<svg xmlns="http://www.w3.org/2000/svg" width="91.097" height="79.68" viewBox="0 0 91.097 79.68">
  <g id="Group_9529" data-name="Group 9529" transform="translate(-576.311 -254.329)">
    <path id="Path_14237" data-name="Path 14237" d="M122.82,141.653a3.9,3.9,0,0,1-3.871-4.327,3.656,3.656,0,0,1,4.1-3.707c2.42.045,3.8,1.546,3.952,3.943a4.041,4.041,0,0,1-4.185,4.091" transform="translate(520.703 150.959)" fill="#ff6b18"/>
    <path id="Path_14240" data-name="Path 14240" d="M180.7,211.922a1.274,1.274,0,0,1-1.292,1.388,1.192,1.192,0,0,1-1.2-1.247,1.252,1.252,0,0,1,1.286-1.28,1.236,1.236,0,0,1,1.21,1.139" transform="translate(457.191 83.685)" fill="#ff6b18"/>
    <path id="Path_14267" data-name="Path 14267" d="M182.319,212.662a2.1,2.1,0,0,1-2.128,2.286,1.963,1.963,0,0,1-1.982-2.053,2.062,2.062,0,0,1,2.117-2.108,2.035,2.035,0,0,1,1.993,1.875" transform="translate(474.321 71.711)" fill="#ff6b18"/>
    <path id="Path_14269" data-name="Path 14269" d="M181.2,212.15a1.527,1.527,0,0,1-1.549,1.664,1.43,1.43,0,0,1-1.443-1.5,1.5,1.5,0,0,1,1.541-1.535,1.482,1.482,0,0,1,1.451,1.365" transform="translate(458.439 67.846)" fill="#ff6b18"/>
    <path id="Path_14268" data-name="Path 14268" d="M182.7,212.836a2.291,2.291,0,0,1-2.324,2.5,2.144,2.144,0,0,1-2.165-2.243,2.252,2.252,0,0,1,2.312-2.3,2.222,2.222,0,0,1,2.177,2.048" transform="translate(472.942 81.404)" fill="#ff6b18"/>
    <path id="Path_14264" data-name="Path 14264" d="M211.707,338.468a45.338,45.338,0,0,1-15.094-2.482,22.289,22.289,0,0,1-3.654-1.872,5.385,5.385,0,0,1-2.092-2.429,19.127,19.127,0,0,0-1.613-2.648,3.6,3.6,0,0,1-.73-2.648,2.958,2.958,0,0,1,3.279-2.784c1.927.012,3.859.138,5.779.315a22.156,22.156,0,0,0,15.1-3.8,29.181,29.181,0,0,1,16.34-5.08c3.113-.06,6.228-.065,9.342-.091,1.662-.014,2.44,1.064,1.859,2.62a33.573,33.573,0,0,1-11.074,15.511,26.129,26.129,0,0,1-12.582,4.938c-1.862.251-3.744.348-4.866.448" transform="translate(415.821 -14.451)" fill="#2c7243"/>
    <path id="Path_14265" data-name="Path 14265" d="M108.306.357,112.678,0c.059,1.168.114,2.269.169,3.37.1,2.073.184,4.147.327,6.218a1.9,1.9,0,0,0,.483,1.073,6.094,6.094,0,0,0,3.585,1.873c3.4.56,6.83,1,10.185,1.76a22.09,22.09,0,0,1,11.079,5.8,23.106,23.106,0,0,1,6.368,13.278c1.028,6.9-.237,13.5-2.8,19.9a42.285,42.285,0,0,1-12.5,17.389,34.389,34.389,0,0,1-16.486,7.286A51,51,0,0,1,87.078,75.5a18.525,18.525,0,0,1-8.7-6,21.6,21.6,0,0,1-1.713-2.921c-.453-.836-.662-.967-1.533-.577a11.719,11.719,0,0,0-1.632.926c-2.1,1.378-4.178,2.776-6.338,4.215l-2.469-3.695c2.764-1.772,5.461-3.547,8.214-5.232a5.771,5.771,0,0,1,2.253-.715c2.623-.325,4.341.7,5.519,3.348a10.542,10.542,0,0,0,3.764,4.388,22.221,22.221,0,0,0,6.694,3.022,49.035,49.035,0,0,0,18.046,1.8c11.7-1.046,20.3-6.885,26.153-16.945a40,40,0,0,0,5.319-15.791,25.852,25.852,0,0,0-.983-10.948A16.557,16.557,0,0,0,128.5,19.148a49.55,49.55,0,0,0-9.909-2c-2.246-.255-4.475-.585-6.344-1.978a19.781,19.781,0,0,1-2.442-2.24,5.038,5.038,0,0,1-1.058-3.388c-.183-3.032-.3-6.069-.442-9.181" transform="translate(521.684 254.869)" fill="#1a1818" stroke="#fff" stroke-width="1"/>
    <path id="Path_14266" data-name="Path 14266" d="M3.686,67.749,0,65.377l1.041-1.633a25.376,25.376,0,0,1,6.015-7.077,21.314,21.314,0,0,1,9.853-4.434c1-.136,2.015-.216,3.019-.349a4.033,4.033,0,0,0,2.32-1.066,11.37,11.37,0,0,1,8.026-2.954c2.216-.012,4.44.131,6.648.34,4.175.395,7.908-.548,10.85-3.636a12.019,12.019,0,0,0,2.761-12.684A28.922,28.922,0,0,0,48.229,27a5.379,5.379,0,0,0-1.564-1.686A11.256,11.256,0,0,1,42.493,18.5a41.317,41.317,0,0,1-.824-7.4c-.184-2.77-.292-5.544-.431-8.317-.006-.116.011-.234.023-.463H45.6c.063,1.164.13,2.411.2,3.657.161,2.941.228,5.89.52,8.818a22.308,22.308,0,0,0,1.109,4.621,4.114,4.114,0,0,0,1.31,1.858c4.019,3.14,5.938,7.451,6.641,12.3a15.954,15.954,0,0,1-5.764,15.259A15.023,15.023,0,0,1,39.739,52.6c-2.6,0-5.2-.237-7.807-.364a10.7,10.7,0,0,0-4.5.518,6.464,6.464,0,0,0-2.1,1.227,8.725,8.725,0,0,1-5.839,2.37A17.329,17.329,0,0,0,8.853,60.885a22.755,22.755,0,0,0-4.066,5.157l-1.1,1.707" transform="translate(577 252.885)" fill="#1a1818" stroke="#fff" stroke-width="1"/>
    <path id="Path_14241" data-name="Path 14241" d="M311.4,250.726a2.153,2.153,0,0,1-2.393,2.052,1.983,1.983,0,0,1-2-2.239,2.074,2.074,0,0,1,2.184-2.106,2.235,2.235,0,0,1,2.206,2.293" transform="matrix(0.966, -0.259, 0.259, 0.966, 279.737, 146.309)" fill="#fff"/>
    <path id="Path_14270" data-name="Path 14270" d="M180.7,211.922a1.274,1.274,0,0,1-1.292,1.388,1.192,1.192,0,0,1-1.2-1.247,1.252,1.252,0,0,1,1.286-1.28,1.236,1.236,0,0,1,1.21,1.139" transform="translate(455.191 98.976)" fill="#fff"/>
  </g>
</svg>
