<svg xmlns="http://www.w3.org/2000/svg" width="79.757" height="77.6" viewBox="0 0 79.757 77.6"><g transform="translate(-861.008 -886)"><path d="M180.7,211.922a1.274,1.274,0,0,1-1.292,1.388,1.192,1.192,0,0,1-1.2-1.247,1.252,1.252,0,0,1,1.286-1.28,1.236,1.236,0,0,1,1.21,1.139" transform="matrix(0.407, 0.914, -0.914, 0.407, 1059.821, 681.481)" fill="#ff6b18"/><path d="M122.82,141.653a3.9,3.9,0,0,1-3.871-4.327,3.656,3.656,0,0,1,4.1-3.707c2.42.045,3.8,1.546,3.952,3.943a4.041,4.041,0,0,1-4.185,4.091" transform="matrix(0.407, 0.914, -0.914, 0.407, 1007.926, 770.831)" fill="#ff6b18"/><path d="M180.7,211.922a1.274,1.274,0,0,1-1.292,1.388,1.192,1.192,0,0,1-1.2-1.247,1.252,1.252,0,0,1,1.286-1.28,1.236,1.236,0,0,1,1.21,1.139" transform="translate(689.065 725.12)" fill="#ff6b18"/><path d="M182.319,212.662a2.1,2.1,0,0,1-2.128,2.286,1.963,1.963,0,0,1-1.982-2.053,2.062,2.062,0,0,1,2.117-2.108,2.035,2.035,0,0,1,1.993,1.875" transform="translate(688.258 744.511)" fill="#ff6b18"/><path d="M181.2,212.15a1.527,1.527,0,0,1-1.549,1.664,1.43,1.43,0,0,1-1.443-1.5,1.5,1.5,0,0,1,1.541-1.535,1.482,1.482,0,0,1,1.451,1.365" transform="matrix(0.407, 0.914, -0.914, 0.407, 1049.101, 699.157)" fill="#ff6b18"/><path d="M184.471,213.649a3.2,3.2,0,0,1-3.242,3.482A2.991,2.991,0,0,1,178.21,214a3.141,3.141,0,0,1,3.225-3.211,3.1,3.1,0,0,1,3.036,2.857" transform="translate(682.801 732.902)" fill="#ff6b18"/><g transform="translate(839.63 886)"><g transform="translate(25.016 0)"><path d="M93.74,31.148A5.137,5.137,0,0,0,89.426,28.9H87.4l-.8-7.371c-.259-2.412-.1-2.664.707-3.458.31-.3.66-.61,1.03-.932a12.383,12.383,0,0,0,4.945-9.688A1.515,1.515,0,0,0,91.4,5.887c-.809.207-1.552.407-2.207.583-4.787,1.29-5.925,1.6-10.443-1.191C71.352.719,64.724-.863,58.484.441c-5.3,1.108-9.151,4.053-12.247,6.42q-.373.285-.725.552a9.2,9.2,0,0,0-7.267.932,10.789,10.789,0,0,0-4.98,7.685A69.817,69.817,0,0,0,32.493,28.9h-1.87a5.137,5.137,0,0,0-4.314,2.251,7.922,7.922,0,0,0-1.293,4.513c0,3.919,2.435,8.085,6.947,8.085h.991a30.01,30.01,0,0,0,6.154,12.175A34.155,34.155,0,0,0,32.431,64.3a1.516,1.516,0,0,0,1.327,2.247h0l4.107-.013a2.04,2.04,0,0,1,1.341.718l2.259,3.435a5,5,0,0,0,3.86,2.085h.016l4.111-.013a2.036,2.036,0,0,1,1.336.716l2.255,3.437a1.515,1.515,0,0,0,1.267.684h.059a1.516,1.516,0,0,0,1.269-.784c.989-1.8,2-3.6,2.986-5.336q1.112-1.97,2.149-3.825a20.585,20.585,0,0,0,6.258-1.387,29.363,29.363,0,0,0,5.722-2.907,1.515,1.515,0,0,0-1.651-2.542,26.339,26.339,0,0,1-5.127,2.608,20.736,20.736,0,0,1-3.421.974c3.458-6.462,5.634-11.628,4.664-15.047a4.64,4.64,0,0,0-2.3-2.894c-3.188-1.755-9.3-.753-15.958,2.613A43.546,43.546,0,0,0,41.4,53.938c-3.7-4.619-5.88-9.869-5.88-14.276v-8.6A21.1,21.1,0,0,1,45.7,25.351c2.086-.583,3.063-.293,5.009.284.488.145,1.04.309,1.658.47A168.753,168.753,0,0,0,81.4,31.395c.991.115,2.031.236,3.127.365v7.9c0,3.69-1.509,7.972-4.25,12.057A1.515,1.515,0,1,0,82.8,53.408a28.774,28.774,0,0,0,4.294-9.661h.994c4.512,0,6.947-4.166,6.947-8.085a7.924,7.924,0,0,0-1.293-4.514Zm-43.4,20.628c6.147-3.109,11.258-3.693,13.128-2.663a1.645,1.645,0,0,1,.843,1.067c.958,3.373-3.758,11.729-8.318,19.809-.586,1.039-1.184,2.1-1.783,3.168l-.88-1.341a5.015,5.015,0,0,0-3.876-2.085l-4.118.013h0A2.019,2.019,0,0,1,44,69.027l-2.259-3.435a5.019,5.019,0,0,0-3.88-2.085l-1.382,0A37.538,37.538,0,0,1,50.336,51.776ZM31.963,40.715c-2.873,0-3.916-3.022-3.916-5.054a4.963,4.963,0,0,1,.745-2.775,2.1,2.1,0,0,1,1.83-.958h1.87v7.734q0,.522.032,1.054ZM81.752,28.384a166.392,166.392,0,0,1-28.617-5.212c-.569-.149-1.074-.3-1.562-.443A12.9,12.9,0,0,0,47.739,22a10.494,10.494,0,0,0-2.856.43,23.708,23.708,0,0,0-9.356,4.589,59.429,59.429,0,0,1,.736-10.546,7.732,7.732,0,0,1,3.532-5.525,6.206,6.206,0,0,1,5.482-.431,1.514,1.514,0,0,0,1.42-.205c.446-.33.9-.677,1.381-1.044,5.91-4.518,14-10.705,29.078-1.411,5.631,3.474,7.884,2.869,12.817,1.539a9.238,9.238,0,0,1-3.624,5.452c-.388.338-.789.688-1.166,1.058-1.818,1.794-1.882,3.255-1.594,5.943l.744,6.833-2.581-.3Zm6.334,12.332h-.559c.022-.355.034-.706.034-1.054V31.928h1.865a2.1,2.1,0,0,1,1.83.958A4.963,4.963,0,0,1,92,35.661c0,2.032-1.043,5.054-3.916,5.054Z" transform="translate(-25.016 0)"/><path d="M312.6,239.608a1.516,1.516,0,0,0-.638-2.046l-3.782-1.983,3.782-1.983a1.516,1.516,0,1,0-1.408-2.684l-6.341,3.325a1.515,1.515,0,0,0,0,2.684l6.341,3.325a1.515,1.515,0,0,0,2.046-.638Z" transform="translate(-261.207 -195.767)" fill="#2c7243"/><path d="M146.937,239.608a1.515,1.515,0,0,0,2.046.638l6.341-3.325a1.515,1.515,0,0,0,0-2.684l-6.341-3.325a1.516,1.516,0,1,0-1.408,2.684l3.781,1.983-3.781,1.983A1.516,1.516,0,0,0,146.937,239.608Z" transform="translate(-128.311 -195.767)" fill="#2c7243"/><path d="M180.028,352.634a1.509,1.509,0,0,0,.8-.23,29.59,29.59,0,0,1,8.467-3.68,1.516,1.516,0,0,0-.719-2.945,32.643,32.643,0,0,0-9.353,4.053,1.516,1.516,0,0,0,.8,2.8Z" transform="translate(-155.247 -293.336)"/><path d="M359.466,372.146l0,0a1.516,1.516,0,1,0,2.148,0A1.513,1.513,0,0,0,359.461,372.15Z" transform="translate(-308.396 -315.366)"/></g></g></g></svg>