<svg xmlns="http://www.w3.org/2000/svg" width="74" height="74" viewBox="0 0 74 74">
  <g id="Group_497" data-name="Group 497" transform="translate(-516 -27)">
    <rect id="Rectangle_146" data-name="Rectangle 146" width="74" height="74" rx="37" transform="translate(516 27)" fill="#f3f5f4" opacity="0.91"/>
    <g id="Group_337" data-name="Group 337" transform="translate(537 46)">
      <path id="Path_368" data-name="Path 368" d="M1.585,17.143a5.929,5.929,0,0,1-1.1-3.855c.021-1.136,0-2.273.007-3.409.007-.955.4-1.334,1.361-1.338,1.06,0,2.122.027,3.181-.008A6.078,6.078,0,0,1,9.145,9.676a5.565,5.565,0,0,1,2.146-3.314,5.16,5.16,0,0,1,3.02-1c1.4-.013,2.8-.009,4.2,0A1.1,1.1,0,0,1,19.774,6.6c0,1.383.006,2.765,0,4.148a2.676,2.676,0,0,1-.094.9.782.782,0,0,0,.522,1.142,5.365,5.365,0,0,1,.6.349c.433-1.054.847-2.061,1.26-3.068,1.091-2.659,2.167-5.325,3.278-7.976A3.307,3.307,0,0,1,28.724.01,3.215,3.215,0,0,1,31.6,2.454a3.936,3.936,0,0,1-.011,1.838c-1.081,4.153-2.216,8.291-3.334,12.435-.034.125-.055.253-.1.455h2.576c1.371,0,1.527.125,1.819,1.465a17.73,17.73,0,0,1-.836,10.532,17.223,17.223,0,0,1-4.766,6.754,1.852,1.852,0,0,1-1.11.427q-9.373.039-18.746,0a1.648,1.648,0,0,1-1.02-.368A17.57,17.57,0,0,1,.1,20.584c.075-.789.252-1.568.377-2.352a1.271,1.271,0,0,1,1.11-1.09m28.94,2.216H2.478a.563.563,0,0,0-.066.125,15.475,15.475,0,0,0,4.616,14.5,1.189,1.189,0,0,0,.763.241q8.692.02,17.383-.007a1.483,1.483,0,0,0,.925-.394,14.879,14.879,0,0,0,4.263-7.737,17.132,17.132,0,0,0,.164-6.725m-4.389-3.017c.272-.992.522-1.9.769-2.809Q28.215,8.717,29.521,3.9a1.269,1.269,0,0,0-.7-1.693c-.676-.234-1.283.116-1.62.936-.187.455-.372.91-.558,1.365Q24.759,9.1,22.881,13.7c-.095.233-.346.5.047.731,1.042.613,2.077,1.239,3.208,1.915M17.631,7.5c-1.2,0-2.291-.021-3.385,0a3.094,3.094,0,0,0-3.006,2.963c-.04,1.152-.015,2.306-.015,3.459a3.943,3.943,0,0,0,.056.438c1.257-.944,2.448-1.836,3.638-2.731,1.264-.951,1.263-.952,2.68-.522.011-.191.03-.373.031-.555,0-1,0-1.994,0-3.057M7.362,17.1l.1-.133c-.768-.749-1.547-1.488-2.3-2.252a1.068,1.068,0,1,1,1.512-1.5c.665.646,1.312,1.311,1.971,1.964.11.109.24.2.421.349,0-.707.049-1.315-.009-1.912a3.178,3.178,0,0,0-3.247-2.935c-.87-.007-1.741,0-2.612,0-.18,0-.36.02-.575.034,0,1.009,0,1.953,0,2.9a5.043,5.043,0,0,0,.018.567,3.151,3.151,0,0,0,2.914,2.908,17.312,17.312,0,0,0,1.8.01m3.905-.058.06.1H23.2a.971.971,0,0,0-.143-.155c-2.074-1.247-4.146-2.5-6.232-3.726a.656.656,0,0,0-.578.052c-.848.6-1.672,1.239-2.5,1.864l-2.48,1.863" transform="translate(0 0)" fill="#3c8454" stroke="#3c8454" stroke-width="0.3"/>
    </g>
  </g>
</svg>
