<svg xmlns="http://www.w3.org/2000/svg" width="65.702" height="82.52" viewBox="0 0 65.702 82.52">
  <g id="Group_9530" data-name="Group 9530" transform="translate(-848 -254.118)">
    <path id="Path_14270" data-name="Path 14270" d="M180.7,211.922a1.274,1.274,0,0,1-1.292,1.388,1.192,1.192,0,0,1-1.2-1.247,1.252,1.252,0,0,1,1.286-1.28,1.236,1.236,0,0,1,1.21,1.139" transform="translate(729.234 60.723)" fill="#ff6b18"/>
    <path id="Path_14237" data-name="Path 14237" d="M122.82,141.653a3.9,3.9,0,0,1-3.871-4.327,3.656,3.656,0,0,1,4.1-3.707c2.42.045,3.8,1.546,3.952,3.943a4.041,4.041,0,0,1-4.185,4.091" transform="translate(786.689 145.623)" fill="#ff6b18"/>
    <path id="Path_14240" data-name="Path 14240" d="M180.7,211.922a1.274,1.274,0,0,1-1.292,1.388,1.192,1.192,0,0,1-1.2-1.247,1.252,1.252,0,0,1,1.286-1.28,1.236,1.236,0,0,1,1.21,1.139" transform="translate(671.848 60.723)" fill="#ff6b18"/>
    <path id="Path_14267" data-name="Path 14267" d="M182.319,212.662a2.1,2.1,0,0,1-2.128,2.286,1.963,1.963,0,0,1-1.982-2.053,2.062,2.062,0,0,1,2.117-2.108,2.035,2.035,0,0,1,1.993,1.875" transform="translate(669.793 80.856)" fill="#ff6b18"/>
    <path id="Path_14269" data-name="Path 14269" d="M181.2,212.15a1.527,1.527,0,0,1-1.549,1.664,1.43,1.43,0,0,1-1.443-1.5,1.5,1.5,0,0,1,1.541-1.535,1.482,1.482,0,0,1,1.451,1.365" transform="translate(729.959 80.856)" fill="#ff6b18"/>
    <path id="Path_14268" data-name="Path 14268" d="M182.7,212.836a2.291,2.291,0,0,1-2.324,2.5,2.144,2.144,0,0,1-2.165-2.243,2.252,2.252,0,0,1,2.312-2.3,2.222,2.222,0,0,1,2.177,2.048" transform="translate(674.346 70.231)" fill="#ff6b18"/>
    <path id="Path_14271" data-name="Path 14271" d="M48.584,51.333c-.313,3.728-.192,7.557-1.02,11.167A24.073,24.073,0,0,1,.09,58.033c-.138-4.3-.094-8.608-.017-12.91A23.432,23.432,0,0,1,7.011,28.894c.329-.343.754-1.023.621-1.288a2.494,2.494,0,0,0-1.367-1.236,7.81,7.81,0,0,1-6.219-7.73C.063,14.836,2.465,11.97,6.352,11a2.151,2.151,0,0,0,1.182-.958C11.515,3.1,17.509-.437,25.482.043c6.69.4,11.758,3.826,15.091,9.676a2.559,2.559,0,0,0,1.875,1.422,7.618,7.618,0,0,1,5.837,7.48,7.749,7.749,0,0,1-5.835,7.638c-.246.06-.5.084-.741.162a1.3,1.3,0,0,0-.591,2.3A23.757,23.757,0,0,1,48.3,46.246c-.015,1.688,0,3.376,0,5.063l.286.024M7.32,35.951c-.689,1.732-1.36,3.135-1.8,4.608a14.141,14.141,0,0,0-.646,3.848c-.037,5.1-.5,10.279.186,15.292A19.239,19.239,0,0,0,34.239,73.379a19.065,19.065,0,0,0,9.193-14.106C26.367,59.489,14.36,51.939,7.32,35.951M18.531,13.215c1.1-1.024,2.052-1.966,3.074-2.829a1.167,1.167,0,0,1,.972.028,3.1,3.1,0,0,0,3.738-.457A2.939,2.939,0,0,0,27,6.688,3.067,3.067,0,0,0,23.791,4.74a13.689,13.689,0,0,0-12.47,8.6c-.643,1.7-1.334,2.5-3.275,2.327a2.887,2.887,0,0,0-3.26,3.047,2.922,2.922,0,0,0,3.324,2.991c1.865-.169,2.833.462,3.142,2.252a1.857,1.857,0,0,0,.2.46c2.521,5.16,6.643,8.025,12.384,8.162A13.1,13.1,0,0,0,36.657,24.76c.951-1.946,1.578-3.414,4.181-3.1,1.58.191,2.743-1.437,2.707-3.049A2.975,2.975,0,0,0,40.8,15.654a7.2,7.2,0,0,0-1.641-.027c-.974.117-1.417-.3-1.71-1.215A13.509,13.509,0,0,0,32.936,7.84a7.078,7.078,0,0,0-.879-.5c-.208,3.835-1.8,6.591-5.377,7.812-2.885.986-5.551.412-8.148-1.935M36.922,32.581C28.33,39.025,19.967,39,11.59,32.718a1.159,1.159,0,0,0-.031.4A29.854,29.854,0,0,0,23.6,49.2a1.5,1.5,0,0,0,1.4-.14,71.934,71.934,0,0,0,6.37-5.92,26.946,26.946,0,0,0,5.557-10.557M43.4,54.357c1.217-6.21-.148-15.6-2.665-18.1A35.916,35.916,0,0,1,29.017,52.108,30.737,30.737,0,0,0,43.4,54.357" transform="translate(857.042 254.87)" fill="#1a1818" stroke="#fff" stroke-width="1.5"/>
    <path id="Path_14272" data-name="Path 14272" d="M129.04,161.366a30.737,30.737,0,0,1-14.38-2.249,35.916,35.916,0,0,0,11.715-15.852c2.517,2.5,3.882,11.891,2.665,18.1" transform="translate(771.398 147.86)" fill="#2c7243"/>
  </g>
</svg>
