<svg xmlns="http://www.w3.org/2000/svg" width="63.339" height="71.242" viewBox="0 0 63.339 71.242"><g transform="translate(-2.18 0.75)"><g transform="translate(16.482 36.914)"><path d="M145.519,271a12.036,12.036,0,0,0-6.13,1.678,12.035,12.035,0,0,0-6.13-1.678,12.26,12.26,0,0,0-4.086,23.819v6.966a2.043,2.043,0,0,0,2.043,2.043h16.346a2.043,2.043,0,0,0,2.043-2.043v-6.966A12.26,12.26,0,0,0,145.519,271Zm1.637,20.267a2.043,2.043,0,0,0-1.637,2v6.472H133.259V293.27a2.043,2.043,0,0,0-1.637-2,8.173,8.173,0,0,1,1.637-16.181,8.817,8.817,0,0,1,5.22,1.875c.03.029.059.059.091.086a8.168,8.168,0,0,1,2.862,6.212,2.043,2.043,0,0,0,4.086,0,12.244,12.244,0,0,0-2.713-7.691,7.9,7.9,0,0,1,2.713-.482,8.173,8.173,0,0,1,1.637,16.181Z" transform="translate(-121 -271)" stroke="#fff" stroke-width="1.5"/></g><g transform="translate(16.482)"><path d="M149.605,9.009V2.043A2.043,2.043,0,0,0,147.562,0H131.216a2.043,2.043,0,0,0-2.043,2.043V9.009a12.26,12.26,0,0,0,4.086,23.819,12.035,12.035,0,0,0,6.13-1.678,12.035,12.035,0,0,0,6.13,1.678,12.26,12.26,0,0,0,4.086-23.819Zm-4.086,19.732a8.2,8.2,0,0,1-8.173-8.173,2.043,2.043,0,1,0-4.086,0,12.153,12.153,0,0,0,2.707,7.693,7.9,7.9,0,0,1-2.707.48,8.173,8.173,0,0,1-1.637-16.181,2.043,2.043,0,0,0,1.637-2V4.086h12.259v6.472a2.043,2.043,0,0,0,1.637,2,8.173,8.173,0,0,1-1.637,16.181Z" transform="translate(-121)" stroke="#fff" stroke-width="1.5"/></g><path d="M183.164,212.3c.01,1.114-1.172,1.925-2.565,1.851-1.479-.079-2.326-.657-2.389-1.663-.058-.926,1.224-1.8,2.552-1.707,1.438.106,2.285.682,2.4,1.519" transform="translate(-139.832 -186.123)" fill="#2c7243"/><path d="M123.173,140.521c-2.575-.052-4.411-1.645-4.222-3.718.2-2.168,1.895-3.223,4.476-3.185,2.64.039,4.147,1.328,4.31,3.388.154,1.93-2.074,3.565-4.565,3.515" transform="matrix(0.998, -0.07, 0.07, 0.998, -104.308, -82.41)" fill="#2c7243"/><path d="M13.705,103.96c.012,1.977-1.525,3.044-3.088,2.437a24.829,24.829,0,0,1-3.3-1.619,2.2,2.2,0,0,1,1.809-3.993,21.564,21.564,0,0,1,3.7,1.857c.492.313.712,1.054.878,1.319" transform="translate(-2.533 -80.075)" fill="#ff6b18"/><path d="M13.944,196.9a7.443,7.443,0,0,1-1.4,1.741,18.79,18.79,0,0,1-3.167,1.6A2.212,2.212,0,0,1,6.446,199.2a2.156,2.156,0,0,1,.961-2.944,28.726,28.726,0,0,1,3.084-1.516,2.481,2.481,0,0,1,3.452,2.161" transform="translate(-2.536 -151.567)" fill="#ff6b18"/><path d="M287.033,100.722c1.443.016,2.154.5,2.537,1.438a1.881,1.881,0,0,1-.668,2.431,21.257,21.257,0,0,1-3.913,1.928,2.041,2.041,0,0,1-2.613-1.259,2.159,2.159,0,0,1,.974-2.758c1.311-.706,2.682-1.3,3.684-1.78" transform="translate(-225.691 -80.133)" fill="#ff6b18"/><path d="M282.271,197.128c-.02-1.987,1.509-3.064,3.076-2.465a23.371,23.371,0,0,1,3.3,1.616,2.118,2.118,0,0,1,.9,2.866,2.157,2.157,0,0,1-2.8,1.113,20.781,20.781,0,0,1-3.483-1.76,4.029,4.029,0,0,1-.985-1.37" transform="translate(-225.742 -151.534)" fill="#ff6b18"/><path d="M3.694,155.069a14.433,14.433,0,0,1-1.778-.013A2.172,2.172,0,0,1,0,152.858a2.1,2.1,0,0,1,1.851-2.123,24.107,24.107,0,0,1,3.791,0,2.014,2.014,0,0,1,1.833,2.12,2.077,2.077,0,0,1-1.885,2.2,15.7,15.7,0,0,1-1.9.013" transform="translate(2.181 -118.162)" fill="#ff6b18"/><path d="M292.346,155.056a16.188,16.188,0,0,1-1.779-.011,2.1,2.1,0,0,1-1.951-2.15,2.047,2.047,0,0,1,1.885-2.2,24,24,0,0,1,3.674,0,2.124,2.124,0,0,1,1.918,2.188,2.176,2.176,0,0,1-1.968,2.153,15.613,15.613,0,0,1-1.778.012v0" transform="translate(-230.573 -118.132)" fill="#ff6b18"/></g></svg>