<svg xmlns="http://www.w3.org/2000/svg" width="86.128" height="77.6" viewBox="0 0 86.128 77.6"><g transform="translate(-864.031 -277)"><path d="M180.7,211.922a1.274,1.274,0,0,1-1.292,1.388,1.192,1.192,0,0,1-1.2-1.247,1.252,1.252,0,0,1,1.286-1.28,1.236,1.236,0,0,1,1.21,1.139" transform="translate(757.172 84.999)" fill="#ff6b18"/><path d="M122.82,141.653a3.9,3.9,0,0,1-3.871-4.327,3.656,3.656,0,0,1,4.1-3.707c2.42.045,3.8,1.546,3.952,3.943a4.041,4.041,0,0,1-4.185,4.091" transform="translate(817.689 168.75)" fill="#ff6b18"/><path d="M180.7,211.922a1.274,1.274,0,0,1-1.292,1.388,1.192,1.192,0,0,1-1.2-1.247,1.252,1.252,0,0,1,1.286-1.28,1.236,1.236,0,0,1,1.21,1.139" transform="translate(694.866 89.651)" fill="#ff6b18"/><path d="M182.319,212.662a2.1,2.1,0,0,1-2.128,2.286,1.963,1.963,0,0,1-1.982-2.053,2.062,2.062,0,0,1,2.117-2.108,2.035,2.035,0,0,1,1.993,1.875" transform="translate(685.824 109.059)" fill="#ff6b18"/><path d="M181.2,212.15a1.527,1.527,0,0,1-1.549,1.664,1.43,1.43,0,0,1-1.443-1.5,1.5,1.5,0,0,1,1.541-1.535,1.482,1.482,0,0,1,1.451,1.365" transform="translate(768.959 101.982)" fill="#ff6b18"/><path d="M184.471,213.649a3.2,3.2,0,0,1-3.242,3.482A2.991,2.991,0,0,1,178.21,214a3.141,3.141,0,0,1,3.225-3.211,3.1,3.1,0,0,1,3.036,2.857" transform="translate(688.602 97.434)" fill="#ff6b18"/><g transform="translate(868 276.954)"><path d="M10878.769,3751.508v12.847l-1.738,3.414-4.469,5.337,3.165,5.772,5.958-6.331s6.7,6.02,6.7,6.331a21.19,21.19,0,0,0,1.613-2.731l1.3-3.041-5.275-5.71-1.18-3.786v-12.1Z" transform="translate(-10843 -3749.954)" fill="#2c7243" stroke="#707070" stroke-width="1"/><circle cx="1.515" cy="1.515" r="1.515" transform="translate(69.876 44.294)"/><path d="M73.158,50.812a1.515,1.515,0,0,0-1.01,1.89c2.857,9.409,3.218,16.954.965,20.183a3.955,3.955,0,0,1-3.22,1.728c-2.446.145-10.073-4.3-16.343-8.757a1.516,1.516,0,0,0-.878-.28,6.9,6.9,0,0,1-6.89-6.886s.021-19.436.034-19.727l6.027,6.027V57.932a1.515,1.515,0,0,0,3.031,0v-9.91l6.507,6.507a1.515,1.515,0,0,0,2.143-2.143l-6.576-6.576h5.5a1.515,1.515,0,1,0,0-3.031H53.917L46.137,35c.485-4.037,2.006-11.642,6.069-11.845h.063c1.949,0,4.471,1.654,7.115,4.669a57.155,57.155,0,0,1,7.864,12.423,1.515,1.515,0,0,0,2.725-1.326,60.162,60.162,0,0,0-8.311-13.1c-3.378-3.851-6.589-5.768-9.544-5.7h-.033A6.25,6.25,0,0,0,48.574,21.4l-3.33-3.331a6.424,6.424,0,0,1-1.887-4.544V1.561A1.512,1.512,0,0,0,41.846.046H35.785A1.515,1.515,0,0,0,34.27,1.561v12.1a6.133,6.133,0,0,1-1.865,4.389l-.019.019L29.052,21.4a6.28,6.28,0,0,0-3.533-1.276h-.033C18.6,19.966,11.959,30.583,8.766,36.671,3.772,46.193.341,57.389.025,65.2-.4,75.623,4.552,77.468,7.54,77.639q.119.007.244.007c4.34,0,14.073-6.542,17.646-9.051a9.954,9.954,0,0,0,9.441-9.932v-19.8a50.617,50.617,0,0,0-1.274-9.15l5.218-5.224,5.2,5.2a48.547,48.547,0,0,0-1.264,10.08c0,.015,0,18.916,0,18.916a9.931,9.931,0,0,0,9.422,9.9c3.562,2.5,13.306,9.052,17.648,9.051A7.031,7.031,0,0,0,75.6,74.619c3.864-5.537,1.314-16.661-.55-22.8a1.516,1.516,0,0,0-1.89-1.009ZM31.841,58.668a6.921,6.921,0,0,1-6.908,6.909,1.516,1.516,0,0,0-.878.28c-6.273,4.456-13.9,8.9-16.342,8.757-3.333-.192-4.9-3.319-4.659-9.3.3-7.392,3.595-18.084,8.4-27.239,4.838-9.224,10.145-14.926,13.88-14.926H25.4c4.047.2,5.583,7.82,6.09,11.848l-7.808,7.777h-8.5a1.515,1.515,0,1,0,0,3.031h5.46l-6.529,6.5a1.515,1.515,0,1,0,2.139,2.147l6.5-6.475v9.948a1.515,1.515,0,0,0,3.031,0V44.966l6.06-6.036c0,.006,0,19.738,0,19.738Zm4.83-36.314-4.106,4.109A15.343,15.343,0,0,0,31.11,23.63l3.411-3.413a9.174,9.174,0,0,0,2.776-6.56V3.077h3.035V13.52a9.446,9.446,0,0,0,2.77,6.687l3.411,3.412a15.249,15.249,0,0,0-1.462,2.822l-4.095-4.1a3.04,3.04,0,0,0-4.284.008Z" transform="translate(0)"/></g></g></svg>