<svg xmlns="http://www.w3.org/2000/svg" width="64.098" height="78.639" viewBox="0 0 64.098 78.639">
  <g id="Group_9516" data-name="Group 9516" transform="translate(-345 -61.869)">
    <path id="Path_14226" data-name="Path 14226" d="M93.75,47.27a10.766,10.766,0,0,0,2.2,7.528c4.715,6.766,6.6,14.45,6.477,22.652a6.484,6.484,0,0,1-.235,1.189h-1.98a27.6,27.6,0,0,1-.319-3.042c.025-7.819-2.59-14.744-7.009-21.088-.544-.781-.939-.862-1.784-.457a51.167,51.167,0,0,1-18.134,5.313,1.543,1.543,0,0,0-1,.719A37.042,37.042,0,0,0,66.8,74.627q-.23,2.005-.467,4.011h-1.98a41.009,41.009,0,0,1,.18-5.6A42.606,42.606,0,0,1,72.37,54.83c1.851-2.555,1.92-2.768,1.515-6.163-1.354.311-2.694.633-4.036.932a5.9,5.9,0,0,1-6.715-3.376c-.551-1.258-.39-1.752.825-2.4.472-.252.986-.425,1.448-.689.262-.151.687-.487.647-.615-.114-.356-.381-.848-.68-.924a7.876,7.876,0,0,0-2.3-.213c-.909.044-1.661-.188-1.762-1.124-.24-2.209-1.868-3.1-3.514-4.068-1.757-1.028-1.957-1.609-.551-3.022a10.828,10.828,0,0,0,3.205-9.351A5.341,5.341,0,0,0,58.9,19.967c-2.709-2.565-3.8-6.023-4.359-9.611a32.59,32.59,0,0,1-.272-5.291,1.786,1.786,0,0,1,.865-1.4,1.773,1.773,0,0,1,1.488.633,3.489,3.489,0,0,0,3.129,1.446c2.686-.284,5.36-.729,8.012-1.255,1.609-.319,3.161-.912,4.74-1.379.771-.227,1.431-.079,1.705.744A1.149,1.149,0,0,1,73.27,5.44c-3.87.954-7.723,2-11.632,2.748-1.51.287-3.156-.138-4.861-.247.39,4.179,1.184,8.286,4.814,11.185a9.09,9.09,0,0,0,5.761,1.9q5.5.03,11,0c.9,0,1.765.109,1.784,1.2.02,1.184-.882,1.292-1.829,1.278-1.938-.027-3.875.015-5.81-.027-3.151-.069-6.3-.183-9.626-.284,0,1.542-.047,3.415.02,5.286a3.488,3.488,0,0,1-.917,2.578c-.855.991-1.616,2.064-2.506,3.213A18.109,18.109,0,0,0,61,35.254,3.659,3.659,0,0,1,63.224,38a1.328,1.328,0,0,0,1.006.776c2.548.042,3.853,1.5,4.636,3.729a1.444,1.444,0,0,1-.776,2.031c-.727.376-1.465.727-2.195,1.087a2.872,2.872,0,0,0,3.514,1.537c1.683-.386,3.351-.848,5.027-1.26,1.426-.351,2.022.121,2.029,1.579,0,.124,0,.247-.007.371-.185,2.983.9,6.265-2.355,8.533.116.084.232.168.348.255.507-.044,1.021-.047,1.517-.136a56.51,56.51,0,0,0,14.467-4.859,1.466,1.466,0,0,0,.9-1.406c.245-2.437-.079-4.35-2.748-5.469-1.312-.549-2.283-1.955-3.346-3.037a1.157,1.157,0,0,1,.072-1.846c.677-.561,1.231-.269,1.834.269,1.342,1.194,2.748,2.316,4.142,3.447.578.472.993.262,1.414-.316,4.99-6.86,8.692-14.267,9.611-22.83A18.138,18.138,0,0,0,101.3,11.47c-.956-2.328-2.382-4.127-5.148-4.387a1.6,1.6,0,0,1-1.087-.7c-2.19-4.07-5.894-4.12-9.767-3.737a14.922,14.922,0,0,1-2.439.3,1.913,1.913,0,0,1-1.374-.877c-.324-.685.106-1.307.88-1.463C85.792-.073,89.215-.417,92.6.861a8.336,8.336,0,0,1,3.828,3.008,2.262,2.262,0,0,0,1.082.877,8.893,8.893,0,0,1,6.151,5.921c1.8,4.681,1.5,9.46.457,14.235A52.061,52.061,0,0,1,94.555,44.91a4.349,4.349,0,0,0-.806,2.36" transform="translate(304.146 61.87)" fill="#1a1818"/>
    <path id="Path_14227" data-name="Path 14227" d="M3.722,210.435a3.572,3.572,0,0,1-.233-1.06c.615-6.33-1.262-12.3-2.644-18.336a3.046,3.046,0,0,0-.119-.478,10.079,10.079,0,0,1,.56-8.632c.856-1.767,1.368-3.7,2.08-5.539.511-1.319,1.046-1.547,2.4-1.161a3.947,3.947,0,0,1,2.974,4.5c-.267,1.7-.855,3.348-1.141,5.045a6.993,6.993,0,0,0,.119,2.721,28.5,28.5,0,0,0,1.328,3.973c.15.371.66.6,1.005.89.279-.392.736-.756.8-1.181a23.231,23.231,0,0,0,.048-2.588,3.706,3.706,0,0,1,7.41.025,21.747,21.747,0,0,1-3.318,13.545,3.156,3.156,0,0,0-.261,1.753c.087,2.175.238,4.347.366,6.52H12.871c-.245-2.662-.514-5.322-.709-7.988a2.107,2.107,0,0,1,.457-1.227A18.362,18.362,0,0,0,15.782,188.8a1.823,1.823,0,0,0-1.139-1.274c-.8-.176-1.254.453-1.27,1.284s0,1.648-.009,2.471a3.383,3.383,0,0,1-2.814,3.527,3.254,3.254,0,0,1-3.769-2.266c-.691-1.893-1.326-3.808-1.919-5.733a2.907,2.907,0,0,1,.03-1.437c.4-1.723.873-3.428,1.275-5.15.193-.827.408-1.709-.7-2.381-1.06,2.838-2.1,5.6-3.107,8.371-.085.234.058.559.121.836.6,2.606,1.116,5.234,1.818,7.812a42.326,42.326,0,0,1,1.643,14.263,11.667,11.667,0,0,1-.242,1.31Z" transform="translate(345 -69.927)" fill="#1a1818"/>
    <path id="Path_14228" data-name="Path 14228" d="M131.547,242.572h5.439a27.6,27.6,0,0,1-.319-3.042c.025-7.819-2.59-14.744-7.009-21.088-.544-.781-.939-.862-1.784-.457A51.168,51.168,0,0,1,109.74,223.3a1.543,1.543,0,0,0-1,.719,37.042,37.042,0,0,0-5.16,14.544q-.23,2.006-.467,4.011h11.62a7.535,7.535,0,0,1-.237-1.307c-.02-3.087-.027-6.176,0-9.265a8.65,8.65,0,1,1,17.3,0c.025,3.089.015,6.176,0,9.265a7.35,7.35,0,0,1-.237,1.307" transform="translate(267.37 -102.065)" fill="#5ba273"/>
    <path id="Path_14229" data-name="Path 14229" d="M173.011,101.059c-.249,3.639-1.876,6.225-4.644,7.017a3.282,3.282,0,0,1-1.689.172c-.488-.142-1.166-.655-1.2-1.051a1.6,1.6,0,0,1,.956-1.264,3.628,3.628,0,0,0,3.279-2.031A6.541,6.541,0,0,0,170,98.973c-.3-.883-.824-1.7-1.942-1.556-1.059.136-1.346,1.006-1.412,1.9s-.323,1.6-1.341,1.533c-1.121-.07-1.211-.919-1.147-1.808a4.36,4.36,0,0,1,3.2-4.075A4.1,4.1,0,0,1,172,97.427a24.3,24.3,0,0,1,1.013,3.633" transform="translate(221.426 -9.567)" fill="#1a1818"/>
    <path id="Path_14230" data-name="Path 14230" d="M59.744,181.565a3.416,3.416,0,0,1-.405.872,23.971,23.971,0,0,1-2.633,2.584,1.164,1.164,0,0,1-1.639-1.639,18.082,18.082,0,0,1,2.6-2.618,1.425,1.425,0,0,1,1.226-.143c.353.14.573.613.855.944" transform="translate(303.673 -74.057)" fill="#ff6b18"/>
    <path id="Path_14231" data-name="Path 14231" d="M51.738,162.358c-.408,0-.909.149-1.2-.034-.456-.284-1.069-.8-1.062-1.208s.636-1.035,1.1-1.152a5.128,5.128,0,0,1,2.423-.009,1.936,1.936,0,0,1,1.249,1.155c.165.786-.457,1.236-1.28,1.258-.408.011-.816,0-1.225,0v-.012" transform="translate(307.753 -58.449)" fill="#ff6b18"/>
    <path id="Path_14232" data-name="Path 14232" d="M81.276,198.008c0,.368.134.818-.029,1.086a8.741,8.741,0,0,1-1.18,1.3c-.419-.412-1.072-.761-1.2-1.25a4.865,4.865,0,0,1,0-2.423,1.868,1.868,0,0,1,1.226-1.153c.325-.053.893.638,1.142,1.108.186.351.037.88.037,1.329h.006" transform="translate(285.74 -85.368)" fill="#ff6b18"/>
    <path id="Path_14233" data-name="Path 14233" d="M145.273,8.067c-.292-.5-.879-1.052-.794-1.47a1.739,1.739,0,0,1,1.274-1.057c.327-.03,1.018.746,1.018,1.163,0,.464-.6.93-.933,1.395l-.565-.029" transform="translate(236.233 57.7)" fill="#1a1818"/>
  </g>
</svg>
