<svg xmlns="http://www.w3.org/2000/svg" width="68" height="68" viewBox="0 0 68 68"><g transform="translate(0 0)"><g transform="translate(0 0)"><path d="M36.988,68H31.012a3.985,3.985,0,0,1-1-7.843V58.5a.8.8,0,0,0-.653-.779,23.933,23.933,0,0,1-8.854-3.667.8.8,0,0,0-1.018.086l-1.179,1.179a3.977,3.977,0,0,1-6.24,4.831L7.845,55.929a3.986,3.986,0,0,1,4.842-6.251l1.168-1.168a.8.8,0,0,0,.086-1.018,23.933,23.933,0,0,1-3.667-8.854.8.8,0,0,0-.779-.653H7.844a3.99,3.99,0,0,1-4,2.986A4,4,0,0,1,0,36.925V31.012A3.984,3.984,0,0,1,4.12,27.03a4.035,4.035,0,0,1,3.706,2.986H9.5a.8.8,0,0,0,.779-.653,23.933,23.933,0,0,1,3.667-8.854.8.8,0,0,0-.086-1.018l-1.168-1.168a3.985,3.985,0,0,1-4.842-6.251l4.226-4.226a3.986,3.986,0,0,1,6.251,4.842l1.168,1.168a.8.8,0,0,0,1.018.086,23.935,23.935,0,0,1,8.854-3.667.8.8,0,0,0,.653-.779V7.843a3.985,3.985,0,0,1,1-7.843h5.977a3.985,3.985,0,0,1,1,7.843V9.5a.8.8,0,0,0,.653.779,23.933,23.933,0,0,1,8.854,3.667.8.8,0,0,0,1.018-.086l1.169-1.169a3.985,3.985,0,0,1,6.25-4.841l4.226,4.226a3.986,3.986,0,0,1-4.842,6.251L54.144,19.49a.8.8,0,0,0-.086,1.018,23.933,23.933,0,0,1,3.667,8.854.8.8,0,0,0,.779.653h1.667a4.022,4.022,0,0,1,3.486-2.972h0A3.985,3.985,0,0,1,68,31.012v5.977a3.977,3.977,0,0,1-7.829,1H58.5a.8.8,0,0,0-.779.653,23.933,23.933,0,0,1-3.667,8.854.8.8,0,0,0,.086,1.018l1.168,1.168a3.985,3.985,0,0,1,4.842,6.251l-4.226,4.226a3.977,3.977,0,0,1-6.24-4.831l-1.179-1.179a.8.8,0,0,0-1.018-.086,23.935,23.935,0,0,1-8.854,3.667.8.8,0,0,0-.653.779v1.653a3.985,3.985,0,0,1-1,7.843ZM20.049,51.261a3.472,3.472,0,0,1,1.944.594,21.29,21.29,0,0,0,7.877,3.263,3.461,3.461,0,0,1,2.8,3.386v2.523a1.662,1.662,0,0,1-1.66,1.66,1.328,1.328,0,0,0,0,2.656h5.977a1.328,1.328,0,0,0,0-2.656,1.662,1.662,0,0,1-1.66-1.66V58.5a3.461,3.461,0,0,1,2.8-3.386,21.294,21.294,0,0,0,7.877-3.263,3.466,3.466,0,0,1,4.381.411l1.827,1.827a1.6,1.6,0,0,1,0,2.263,1.368,1.368,0,0,0-.127,1.829,1.329,1.329,0,0,0,1.963.092l4.226-4.226A1.328,1.328,0,0,0,56.4,52.172l-.043.042a1.6,1.6,0,0,1-2.263,0l-1.827-1.827a3.466,3.466,0,0,1-.411-4.381,21.292,21.292,0,0,0,3.263-7.877,3.461,3.461,0,0,1,3.386-2.8h2.583a1.6,1.6,0,0,1,1.6,1.6,1.367,1.367,0,0,0,1.2,1.383,1.329,1.329,0,0,0,1.453-1.323V31.012a1.329,1.329,0,0,0-1.453-1.323,1.368,1.368,0,0,0-1.2,1.383,1.6,1.6,0,0,1-1.6,1.6H58.5a3.461,3.461,0,0,1-3.386-2.8,21.294,21.294,0,0,0-3.263-7.877,3.466,3.466,0,0,1,.411-4.381l1.784-1.784a1.662,1.662,0,0,1,2.348,0,1.328,1.328,0,0,0,1.878-1.878L54.05,9.723A1.328,1.328,0,0,0,52.172,11.6a1.662,1.662,0,0,1,0,2.348l-1.784,1.784a3.466,3.466,0,0,1-4.381.411,21.29,21.29,0,0,0-7.877-3.263,3.461,3.461,0,0,1-2.8-3.386V6.973a1.662,1.662,0,0,1,1.66-1.66,1.328,1.328,0,0,0,0-2.656H31.012a1.328,1.328,0,1,0,0,2.656,1.662,1.662,0,0,1,1.66,1.66V9.5a3.461,3.461,0,0,1-2.8,3.386,21.294,21.294,0,0,0-7.877,3.263,3.466,3.466,0,0,1-4.381-.411L15.828,13.95a1.66,1.66,0,0,1,0-2.348A1.328,1.328,0,0,0,13.95,9.723L9.723,13.949A1.328,1.328,0,0,0,11.6,15.828a1.662,1.662,0,0,1,2.348,0l1.784,1.784a3.466,3.466,0,0,1,.411,4.381,21.292,21.292,0,0,0-3.263,7.877,3.461,3.461,0,0,1-3.386,2.8H6.9a1.592,1.592,0,0,1-1.591-1.591,1.375,1.375,0,0,0-1.281-1.4,1.328,1.328,0,0,0-1.375,1.327v5.913a1.373,1.373,0,0,0,1.278,1.391,1.328,1.328,0,0,0,1.378-1.327,1.662,1.662,0,0,1,1.66-1.66H9.5a3.461,3.461,0,0,1,3.386,2.8,21.294,21.294,0,0,0,3.263,7.877,3.466,3.466,0,0,1-.411,4.381l-1.827,1.827a1.6,1.6,0,0,1-2.263,0l-.042-.042A1.328,1.328,0,0,0,9.723,54.05l4.226,4.226a1.329,1.329,0,0,0,1.963-.092,1.368,1.368,0,0,0-.127-1.829,1.6,1.6,0,0,1,0-2.263l1.827-1.827a3.44,3.44,0,0,1,2.437-1Z" transform="translate(0 0)"/><g transform="translate(20.276 37.604)"><path d="M157.492,292.789a4.826,4.826,0,1,1,4.825-4.825A4.831,4.831,0,0,1,157.492,292.789Zm0-6.995a2.169,2.169,0,1,0,2.169,2.169A2.172,2.172,0,0,0,157.492,285.794Z" transform="translate(-152.667 -283.138)"/></g><g transform="translate(35.119 29.571)"><path d="M272.581,239.015a8.2,8.2,0,0,1-8.147-7.243,1.328,1.328,0,1,1,2.638-.308A5.546,5.546,0,1,0,273.2,225.3a1.328,1.328,0,0,1,.291-2.64,8.2,8.2,0,0,1-.908,16.355Z" transform="translate(-264.426 -222.653)"/></g><g transform="translate(40.242 21.5)"><path d="M305.926,167.732a2.927,2.927,0,1,1,2.068-.857A2.948,2.948,0,0,1,305.926,167.732Z" transform="translate(-304.598 -163.478)" fill="#ff6b18"/></g><g transform="translate(32.672 48.476)"><path d="M247.328,367.656a1.329,1.329,0,1,1,.939-.389A1.338,1.338,0,0,1,247.328,367.656Z" transform="translate(-246 -365)" fill="#ff6b18"/></g><g transform="translate(17.753 32.689)"><path d="M136.14,251.069a2.471,2.471,0,1,1,1.746-.724A2.484,2.484,0,0,1,136.14,251.069Z" transform="translate(-134.811 -247.271)" fill="#ff6b18"/></g><g transform="translate(37.07 31.559)"><path d="M280.448,240.276a1.329,1.329,0,1,1,.939-.389A1.338,1.338,0,0,1,280.448,240.276Z" transform="translate(-279.12 -237.62)" fill="#5ba273"/></g><g transform="translate(24.331 19.902)"><path d="M283.955,247.289a4.838,4.838,0,1,1,3.418-1.417A4.87,4.87,0,0,1,283.955,247.289Z" transform="translate(-279.12 -237.62)" fill="#5ba273"/></g></g></g></svg>