<svg xmlns="http://www.w3.org/2000/svg" width="67.653" height="59.366" viewBox="0 0 67.653 59.366"><g transform="translate(-398.445 -287.756)"><g transform="translate(377.426 288.308)"><g transform="translate(65.293 5.352)"><g transform="translate(0)"><path d="M377.107,46.993a1.139,1.139,0,1,0,1.139,1.139A1.139,1.139,0,0,0,377.107,46.993Z" transform="translate(-375.968 -46.993)" fill="#1a1818" stroke="#1a1818" stroke-width="1"/></g></g><g transform="translate(27.617 0)"><g transform="translate(0 0)"><path d="M69.474.911A19.7,19.7,0,0,0,53.625,2.763,19.693,19.693,0,0,0,37.776.911c-9.461,3.035-13.9,16.851-6.311,28,3.594,5.279,4.074,9.351,4.582,13.663A34.921,34.921,0,0,0,38.41,52.806c1.08,2.565,2.608,5.5,4.867,5.5h.062c1.817-.043,3.281-1.845,4.747-5.843a47.037,47.037,0,0,0,1.688-6.769c.833-4.186,1.694-8.515,3.859-8.53h.012c2.141,0,3,4.33,3.832,8.517a46.937,46.937,0,0,0,1.688,6.781c1.468,4,2.932,5.809,4.747,5.852h.062c2.255,0,3.784-2.939,4.866-5.508a35.393,35.393,0,0,0,2.326-10.049c.548-4.432,1.065-8.619,4.627-13.86C83.469,17.606,78.777,3.893,69.474.911ZM73.91,27.617c-3.872,5.7-4.448,10.355-5,14.861a33.08,33.08,0,0,1-2.165,9.444c-1.676,3.979-2.648,4.114-2.771,4.114h0c-.044,0-1.092-.075-2.662-4.359a45.373,45.373,0,0,1-1.593-6.44,37.277,37.277,0,0,0-1.753-6.766c-1-2.38-2.447-3.586-4.309-3.586h-.031c-1.87.013-3.325,1.229-4.325,3.614a37.233,37.233,0,0,0-1.752,6.75,45.484,45.484,0,0,1-1.593,6.429c-1.568,4.275-2.618,4.349-2.662,4.35-.1,0-1.085-.092-2.776-4.1a32.6,32.6,0,0,1-2.2-9.617c-.518-4.394-1.053-8.937-4.961-14.678C26.51,17.579,30.632,5.6,38.472,3.081A17.51,17.51,0,0,1,53.019,5.057a1.138,1.138,0,0,0,1.213,0A17.516,17.516,0,0,1,68.779,3.081C76.774,5.643,80.611,17.759,73.91,27.617Z" transform="translate(-27.617 0)" fill="#1a1818" stroke="#1a1818" stroke-width="1"/></g></g><g transform="translate(68.715 9.357)"><path d="M409.555,76.807A12.336,12.336,0,0,0,408.1,73.87a1.139,1.139,0,1,0-1.882,1.284,10.061,10.061,0,0,1,1.185,2.4,13.979,13.979,0,0,1-.812,10.546,1.139,1.139,0,1,0,2.05.993A16.268,16.268,0,0,0,409.555,76.807Z" transform="translate(-406.018 -73.372)" fill="#1a1818" stroke="#1a1818" stroke-width="1"/></g><path d="M181.4,212.242a1.631,1.631,0,0,1-1.654,1.777,1.526,1.526,0,0,1-1.541-1.6,1.6,1.6,0,0,1,1.646-1.638,1.582,1.582,0,0,1,1.549,1.458" transform="translate(-153.785 -210.777)" fill="#ff6b18"/><path d="M183.47,213.19a2.685,2.685,0,0,1-2.724,2.926,2.513,2.513,0,0,1-2.537-2.628,2.639,2.639,0,0,1,2.71-2.7,2.6,2.6,0,0,1,2.551,2.4" transform="translate(-157.188 -183.312)" fill="#ff6b18"/><path d="M191.682,218.677c.026,5.766-3.186,9.966-6.974,9.581-4.021-.41-6.324-3.4-6.5-8.607-.159-4.793,3.327-9.343,6.938-8.835,3.908.548,6.211,3.531,6.532,7.861" transform="matrix(0.891, 0.454, -0.454, 0.891, -24.071, -265.462)" fill="#5ba273"/></g><path d="M180.7,211.922a1.274,1.274,0,0,1-1.292,1.388,1.192,1.192,0,0,1-1.2-1.247,1.252,1.252,0,0,1,1.286-1.28,1.236,1.236,0,0,1,1.21,1.139" transform="matrix(0.839, 0.545, -0.545, 0.839, 429.344, 40.451)" fill="#ff6b18"/><path d="M122.82,141.653a3.9,3.9,0,0,1-3.871-4.327,3.656,3.656,0,0,1,4.1-3.707c2.42.045,3.8,1.546,3.952,3.943a4.041,4.041,0,0,1-4.185,4.091" transform="matrix(0.839, 0.545, -0.545, 0.839, 430.473, 142.415)" fill="#ff6b18"/><path d="M181.2,212.15a1.527,1.527,0,0,1-1.549,1.664,1.43,1.43,0,0,1-1.443-1.5,1.5,1.5,0,0,1,1.541-1.535,1.482,1.482,0,0,1,1.451,1.365" transform="matrix(0.839, 0.545, -0.545, 0.839, 424.821, 60.328)" fill="#ff6b18"/></g></svg>