<svg xmlns="http://www.w3.org/2000/svg" width="78.257" height="78.638" viewBox="0 0 78.257 78.638">
  <g id="Group_9531" data-name="Group 9531" transform="translate(-842 -61.869)">
    <path id="Path_14246" data-name="Path 14246" d="M54.368,264.871c-.2-4.233,1.482-8.319,1.345-12.475a1.491,1.491,0,0,1,.764-1.074c1.494-.622,3.041-1.074,4.539-1.686.72-.294,1.082-.07,1.464.636,6.453,11.922,22.9,11.483,31.974,3.273a22.431,22.431,0,0,0,2.2-3.285c.4-.687.741-.937,1.465-.641,1.5.615,3.046,1.063,4.533,1.7a1.627,1.627,0,0,1,.769,1.209c-.131,4.108,1.77,8.028,1.574,12.221-15.531,0-34.978.118-50.629.118" transform="translate(801.416 -124.43)" fill="#2c7243"/>
    <path id="Path_14247" data-name="Path 14247" d="M78.23,77.47c-.854-5.5-1.667-11.009-2.5-16.513-1.143-7.548-2.431-15.078-3.379-22.65-.434-3.47-1.567-6.275-4.37-8.454-1.793-1.394-3.335-3.1-5.048-4.607a2.748,2.748,0,0,1-1.066-2.386c.086-2.107.04-4.221.021-6.331a8.855,8.855,0,0,0-7.932-8.86,1.192,1.192,0,0,1-1.248-1.059A8.792,8.792,0,0,0,44.134.019q-7.029-.033-14.058,0A13.931,13.931,0,0,0,16.3,13.855c-.018,3.082-.033,6.164.015,9.245a2.355,2.355,0,0,1-.867,1.959c-2.317,2.094-4.591,4.237-6.882,6.359a7.436,7.436,0,0,0-2.37,4.5C5.3,42.009,4.434,48.1,3.52,54.191,2.411,61.574,1.252,68.949.144,76.331c-.319,2.123-.273,2.131,1.9,2.282.072.005.149-.057.35-.14.435-2.931.873-5.93,1.327-8.926C5.288,59.206,6.933,48.875,8.39,38.519a9.63,9.63,0,0,1,3.235-6.55c3.526-3.015,6.839-6.279,10.242-9.438,1.114-1.034,2.217-2.08,3.35-3.092.61-.544,1.428-.689,1.9-.024a3.1,3.1,0,0,1,.274,1.912c-.03.355-.456.685-.723,1.011-2.8,3.432-5.531,6.931-8.451,10.261a7.055,7.055,0,0,0-1.971,5.454c.181,2.889.044,5.8.044,8.726h2.536v-3.5c0-2.192.235-2.477,2.346-2.945.475,1.79.878,3.6,1.454,5.35a1.6,1.6,0,0,1-.392,1.8,18.456,18.456,0,0,1-8.186,5.532,1.966,1.966,0,0,0-1.556,2.33c.328,5.1.586,10.2.866,15.3.143,2.6.276,5.2.42,7.927l2.421-.116c0-.866.031-1.582-.006-2.294-.158-3.077-.316-6.155-.522-9.229-.054-.808.156-1.22.994-1.435,1.468-.377,2.889-.939,4.358-1.31.351-.089,1.345,1.054,1.6,1.343.783.878,2.715,3.768,2.8,3.685,8.256,6.887,24.048,5.733,30.427-4.508a1.03,1.03,0,0,1,1.438-.534c1.429.508,2.878.968,4.344,1.357a1.009,1.009,0,0,1,.881,1.256c-.115,1.345-.178,2.7-.247,4.045-.129,2.514-.248,5.028-.375,7.623h2.515c.213-3.923.421-7.754.63-11.586s.377-7.674.652-11.5a2.035,2.035,0,0,0-1.659-2.392,17.853,17.853,0,0,1-8.14-5.585c-.251-.3-.568-.767-.494-1.069.5-2.018,1.092-4.013,1.655-6.014,2.3.75,2.3.75,2.3,3.086v3.43h2.536c0-3.6.048-7.063-.037-10.519a4.036,4.036,0,0,0-.813-2.261c-3.286-4.127-6.651-8.19-9.989-12.276-.63-.772-.873-1.6-.041-2.356.793-.72,1.539-.379,2.232.266,4.882,4.543,9.8,9.045,14.624,13.654a5.686,5.686,0,0,1,1.55,2.93c.694,3.9,1.169,7.838,1.755,11.758q1.693,11.324,3.42,22.644c.4,2.654.841,5.3,1.266,7.98.654-.056,1.156-.1,1.657-.142.646-.058.816-.369.714-1.027M21.258,36.792c-.234.707-1.361,1.12-2.308,1.829-.267-2.848-.1-3.219,2.4-5.536a12.673,12.673,0,0,1-.093,3.708m35.67-3.754c1.339,1.622,3.057,2.822,2.319,5.13-2.314-.3-2.7-1.091-2.319-5.13m-40.257,29.8c-.313.1-.636.158-1.1.27-.078-.628-.171-1.155-.2-1.685-.1-1.683-.222-3.367-.241-5.051a1.5,1.5,0,0,1,.559-1.189,22.531,22.531,0,0,0,8.3-5.843c2.057,1.771,3.986,3.378,5.833,5.074a2.221,2.221,0,0,1,.387,1.457c.042,2.758.023,2.755-2.563,3.557q-5.489,1.7-10.976,3.409m16.091-6.974a18.109,18.109,0,0,0,12.663-.025c0,1.028,0,1.856,0,2.683,0,1.883.078,1.979,1.913,2.547.506.156,1,.339,1.554.527-4.638,5.4-14.292,5.854-19.628.042.79-.28,1.5-.577,2.237-.781A1.554,1.554,0,0,0,32.771,59.1c-.036-1.007-.008-2.016-.008-3.234m5.552,15.018A16.508,16.508,0,0,1,24.395,63.27c1.242-.813,2.075-.8,3.153.3a16.26,16.26,0,0,0,23.162,0c1.284-1.287,1.313-1.29,3.1-.257-3.771,5.451-9.063,7.82-15.5,7.576M62.08,54.94a1.333,1.333,0,0,1,1.02,1.584c-.19,2.13-.275,4.269-.419,6.672l-4.436-1.384c-3.054-.953-6.1-1.944-9.169-2.838-.909-.264-1.068-.725-1.157-1.6a3.858,3.858,0,0,1,2.057-4.216,35.2,35.2,0,0,0,4.306-3.5l-.361-.475a7.969,7.969,0,0,1,.629.55A20.655,20.655,0,0,0,62.08,54.94M51.128,25.869a9.4,9.4,0,0,1,3.207,8.652c-.317,2.453.013,4.994-.345,7.437A15.051,15.051,0,0,1,39.128,54.468c-7.327.008-13.984-5.344-14.893-12.445-.5-3.907-.256-7.91-.326-11.87-.015-.836.543-1.022,1.277-1.016,2.658.018,5.317.009,7.975.006a13.483,13.483,0,0,0,12.46-7.233c.083-.145.176-.283.272-.42.021-.029.074-.036.336-.152,1.583,1.465,3.236,3,4.9,4.53m8.228-4.054c-.542-.472-.9-.771-1.242-1.086-.931-.857-1.852-1.723-2.782-2.581-2.832-2.614-5.428-2.212-7.395,1.334-.531-.448-.965-.828-1.415-1.191-1.1-.889-1.913-.683-2.391.66a10.572,10.572,0,0,1-6.469,6.83,17.206,17.206,0,0,1-4.689.795c-2.043.13-4.1.032-6.46.032,1.084-1.364,2.037-2.462,2.876-3.64A4.021,4.021,0,0,0,27.2,16.6a3.839,3.839,0,0,0-3.737,1c-1.461,1.33-2.91,2.673-4.511,4.146a9.183,9.183,0,0,1-.119-1.093,74.237,74.237,0,0,1,.322-9.077A11.069,11.069,0,0,1,29.895,2.56c4.766-.048,9.532-.036,14.3,0a6.262,6.262,0,0,1,6.268,5.9c.087,1.237.629,1.686,1.828,1.7,4.63.052,7.064,2.539,7.068,7.153,0,1.39,0,2.779,0,4.5" transform="translate(842 61.87)" fill="#1a1818"/>
    <path id="Path_14248" data-name="Path 14248" d="M120.749,124.909c-1.607-1.33-3.312-2.54-5.079-3.878l-1.451,2.033,2.606,2.075-3.417.79.535,2.426c2.162-.436,4.183-.8,6.182-1.263a1.207,1.207,0,0,0,.624-2.183" transform="translate(757.318 -28.505)" fill="#2c7243"/>
    <path id="Path_14249" data-name="Path 14249" d="M164.669,126.25a1.866,1.866,0,0,0,1.17.944c1.916.465,3.861.816,6.05,1.26l.478-2.419-3.34-.842,2.59-2.08-1.512-1.955c-1.734,1.3-3.4,2.5-4.992,3.8a1.477,1.477,0,0,0-.444,1.294" transform="translate(719.067 -28.6)" fill="#2c7243"/>
    <path id="Path_14273" data-name="Path 14273" d="M180.7,211.922a1.274,1.274,0,0,1-1.292,1.388,1.192,1.192,0,0,1-1.2-1.247,1.252,1.252,0,0,1,1.286-1.28,1.236,1.236,0,0,1,1.21,1.139" transform="translate(732.023 -140.277)" fill="#ff6b18"/>
    <path id="Path_14274" data-name="Path 14274" d="M122.82,141.653a3.9,3.9,0,0,1-3.871-4.327,3.656,3.656,0,0,1,4.1-3.707c2.42.045,3.8,1.546,3.952,3.943a4.041,4.041,0,0,1-4.185,4.091" transform="translate(788.504 -55.377)" fill="#ff6b18"/>
    <path id="Path_14275" data-name="Path 14275" d="M181.2,212.15a1.527,1.527,0,0,1-1.549,1.664,1.43,1.43,0,0,1-1.443-1.5,1.5,1.5,0,0,1,1.541-1.535,1.482,1.482,0,0,1,1.451,1.365" transform="translate(739.057 -121.144)" fill="#ff6b18"/>
    <path id="Path_14276" data-name="Path 14276" d="M180.7,211.922a1.274,1.274,0,0,1-1.292,1.388,1.192,1.192,0,0,1-1.2-1.247,1.252,1.252,0,0,1,1.286-1.28,1.236,1.236,0,0,1,1.21,1.139" transform="translate(671.343 -142.813)" fill="#ff6b18"/>
    <path id="Path_14277" data-name="Path 14277" d="M182.319,212.662a2.1,2.1,0,0,1-2.128,2.286,1.963,1.963,0,0,1-1.982-2.053,2.062,2.062,0,0,1,2.117-2.108,2.035,2.035,0,0,1,1.993,1.875" transform="translate(663.793 -124.5)" fill="#ff6b18"/>
    <path id="Path_14278" data-name="Path 14278" d="M182.7,212.836a2.291,2.291,0,0,1-2.324,2.5,2.144,2.144,0,0,1-2.165-2.243,2.252,2.252,0,0,1,2.312-2.3,2.222,2.222,0,0,1,2.177,2.048" transform="translate(670.346 -132.905)" fill="#ff6b18"/>
  </g>
</svg>
