<svg xmlns="http://www.w3.org/2000/svg" width="74" height="74" viewBox="0 0 74 74">
  <g id="Group_568" data-name="Group 568" transform="translate(-1096 -24)">
    <rect id="Rectangle_144" data-name="Rectangle 144" width="74" height="74" rx="37" transform="translate(1096 24)" fill="#f3f5f4" opacity="0.91"/>
    <g id="Group_567" data-name="Group 567" transform="translate(1115 40.006)">
      <g id="Group_566" data-name="Group 566" transform="translate(0 0.994)">
        <g id="Group_565" data-name="Group 565" transform="translate(0 0)">
          <path id="Path_14219" data-name="Path 14219" d="M35.157,14.072H31.789a10.316,10.316,0,0,0-1.37-2.218A8.446,8.446,0,0,0,24.6,8.741a10.057,10.057,0,0,0,1.631-5.882A1.154,1.154,0,0,0,25.138,1.77c-.168-.009-4.152-.2-6.591,2.24a6.323,6.323,0,0,0-.71.849A8.867,8.867,0,0,0,15,1.225a1.154,1.154,0,1,0-1.385,1.846A6.57,6.57,0,0,1,16.232,8.3v1.848a8.885,8.885,0,0,0-5-1.463,8.575,8.575,0,0,0-6.878,3.167C2.711,13.866,1.8,16.679,1.641,20.227H1.154A1.154,1.154,0,0,0,0,21.381v9.232a1.154,1.154,0,0,0,1.154,1.154H3.821c2.318,5.315,5.913,8.462,9.719,8.462a4.775,4.775,0,0,0,3.847-2.089,4.775,4.775,0,0,0,3.847,2.089c3.806,0,7.4-3.147,9.719-8.462h4.206a4.236,4.236,0,0,0,4.231-4.231V18.3a4.236,4.236,0,0,0-4.231-4.231ZM20.179,5.642a6.247,6.247,0,0,1,3.692-1.516,6.247,6.247,0,0,1-1.516,3.692,6.246,6.246,0,0,1-3.69,1.516,6.273,6.273,0,0,1,1.514-3.692ZM11.232,11a6.418,6.418,0,0,1,4.062,1.322,3.39,3.39,0,0,0,4.186,0A6.418,6.418,0,0,1,23.541,11c4.367,0,6.983,3.346,7.28,9.232H3.952C4.249,14.341,6.865,11,11.232,11ZM25.615,35.808a6.242,6.242,0,0,1-4.382,2.113c-1.064,0-2.008-.839-2.808-2.493a1.154,1.154,0,0,0-2.078,0c-.8,1.654-1.744,2.493-2.808,2.493a6.242,6.242,0,0,1-4.382-2.113,15.328,15.328,0,0,1-2.793-4.042H28.408a15.332,15.332,0,0,1-2.793,4.042Zm11.466-8.273a1.925,1.925,0,0,1-1.923,1.923H34.7V27.535a1.154,1.154,0,1,0-2.308,0v1.923H30.08V26a1.154,1.154,0,0,0-2.308,0v3.462H25.464V27.535a1.154,1.154,0,1,0-2.308,0v1.923H20.848V26a1.154,1.154,0,0,0-2.308,0v3.462H16.233V27.535a1.154,1.154,0,0,0-2.308,0v1.923H11.617V26a1.154,1.154,0,0,0-2.308,0v3.462H7V27.535a1.154,1.154,0,0,0-2.308,0v1.923H2.308V22.535h32.85a4.207,4.207,0,0,0,1.923-.463v5.463Zm-1.923-7.308H33.131a19.216,19.216,0,0,0-.538-3.847h2.564a1.923,1.923,0,1,1,0,3.847Z" transform="translate(0 -0.994)" fill="#3c8454"/>
        </g>
      </g>
    </g>
  </g>
</svg>
