<svg xmlns="http://www.w3.org/2000/svg" width="72.522" height="82.974" viewBox="0 0 72.522 82.974"><g transform="translate(-151 -888)"><path d="M123.034,142.1a4.113,4.113,0,0,1-4.084-4.566c.191-2.663,1.833-3.958,4.33-3.912,2.554.047,4.011,1.631,4.17,4.161a4.264,4.264,0,0,1-4.416,4.317" transform="translate(96.064 794.364)" fill="#ff6b18"/><path d="M180.842,211.985a1.344,1.344,0,0,1-1.363,1.465,1.258,1.258,0,0,1-1.27-1.316,1.321,1.321,0,0,1,1.356-1.351,1.3,1.3,0,0,1,1.277,1.2" transform="translate(32.882 731.013)" fill="#ff6b18"/><path d="M182.545,212.766a2.213,2.213,0,0,1-2.245,2.412,2.072,2.072,0,0,1-2.091-2.166,2.175,2.175,0,0,1,2.234-2.224,2.147,2.147,0,0,1,2.1,1.979" transform="translate(38.887 708.67)" fill="#ff6b18"/><path d="M181.366,212.225a1.611,1.611,0,0,1-1.635,1.756,1.508,1.508,0,0,1-1.523-1.577,1.584,1.584,0,0,1,1.626-1.619,1.563,1.563,0,0,1,1.531,1.441" transform="translate(-24.415 715.828)" fill="#ff6b18"/><path d="M182.946,212.949a2.417,2.417,0,0,1-2.452,2.634,2.263,2.263,0,0,1-2.284-2.366,2.376,2.376,0,0,1,2.44-2.429,2.345,2.345,0,0,1,2.3,2.161" transform="translate(-15.442 719.037)" fill="#ff6b18"/><g transform="translate(151 888)"><path d="M146.572,33.465a18.121,18.121,0,0,0-28.5-12.563,18.8,18.8,0,0,1-.955-4.171,39.106,39.106,0,0,1,.2-9.926,5.814,5.814,0,0,0-11.456-1.991,50.515,50.515,0,0,0-.306,13.167,26.385,26.385,0,0,0,3.492,10.82,17.838,17.838,0,0,0,1.911,2.547,18,18,0,0,0-.422,6.281,18.188,18.188,0,0,0,1.193,4.8.136.136,0,0,1-.006.127.142.142,0,0,1-.116.067l-.024,0a14.072,14.072,0,0,0-9.434,5.341,14.366,14.366,0,0,0-1.242,1.881H96.767A12.78,12.78,0,0,0,84,62.614V77.261a5.713,5.713,0,1,0,11.426,0V62.614a1.341,1.341,0,0,1,1.339-1.339h3.159a13.212,13.212,0,0,0,4.682,6.254,17.921,17.921,0,0,0,10.11,3.32c.376.011.824,0,1.181,0,3.164-.05,7.017-1.355,10.849-3.674a41.672,41.672,0,0,0,11.069-9.97,51.674,51.674,0,0,0,6.8-10.9A26.1,26.1,0,0,0,146.572,33.465ZM111.82,27.08a23.184,23.184,0,0,1-3.025-9.489,46.835,46.835,0,0,1,.281-12.215,2.549,2.549,0,0,1,5.023.875,42.305,42.305,0,0,0-.223,10.888,20.077,20.077,0,0,0,1.6,6.008,18.323,18.323,0,0,0-3.214,4.607c-.154-.219-.3-.443-.447-.674ZM92.164,62.614V77.261a2.448,2.448,0,0,1-4.9,0V62.614a9.511,9.511,0,0,1,9.5-9.5H99.6a14.128,14.128,0,0,0-.387,4.9H96.768A4.609,4.609,0,0,0,92.164,62.614Zm49.473-17.636A48.6,48.6,0,0,1,135.244,55.2c-6.556,8.4-14.64,12.307-19.384,12.389-.315,0-.716.01-1.048,0-5.564-.161-11.53-3.183-12.316-9.57a10.9,10.9,0,0,1,9.488-12.15l.022,0a3.4,3.4,0,0,0,2.754-4.647,14.876,14.876,0,1,1,28.572-7.353,22.908,22.908,0,0,1-1.7,11.114Z" transform="translate(-84.002 0)"/><path d="M299.182,207.693a1.633,1.633,0,0,1-1.6-1.339,17.146,17.146,0,0,1-.094-5.8,1.632,1.632,0,0,1,3.224.516,13.892,13.892,0,0,0,.082,4.7,1.634,1.634,0,0,1-1.608,1.926Z" transform="translate(-262.717 -166.897)"/><path d="M313.469,163.125a1.633,1.633,0,0,1-1.338-2.566,9.66,9.66,0,0,1,1.037-1.277,1.632,1.632,0,0,1,2.326,2.29,6.529,6.529,0,0,0-.685.854,1.63,1.63,0,0,1-1.34.7Z" transform="translate(-274.915 -133.061)"/></g><path d="M14.218,8.335c.028,6.083-3.362,10.515-7.358,10.109C2.617,18.011.187,14.856.006,9.363-.162,4.306,3.516-.495,7.326.041c4.124.579,6.554,3.725,6.892,8.294" transform="matrix(0.174, -0.985, 0.985, 0.174, 170.977, 950.464)" fill="#5ba273"/></g></svg>