<svg xmlns="http://www.w3.org/2000/svg" xmlns:xlink="http://www.w3.org/1999/xlink" width="77.852" height="80.96" viewBox="0 0 77.852 80.96">
  <defs>
    <clipPath id="clip-path">
      <rect id="Rectangle_376" data-name="Rectangle 376" width="64.498" height="77.229" fill="#1a1818" stroke="#1a1818" stroke-width="0.5"/>
    </clipPath>
  </defs>
  <g id="Group_9650" data-name="Group 9650" transform="translate(-399.585 -280)">
    <g id="Group_9648" data-name="Group 9648" transform="translate(399.585 280)">
      <g id="Group_9647" data-name="Group 9647" clip-path="url(#clip-path)">
        <path id="Path_14463" data-name="Path 14463" d="M59.268,46.447c.232,3.945.3,7.826,1.273,11.616a10,10,0,0,1,.238,2.5,4.686,4.686,0,0,1-2.852,4.455,9.931,9.931,0,0,1-4.419.944c-1.751,0-3.5-.136-5.253-.205-.817-.032-1.637-.081-2.454-.06-2.4.061-3.548,1.1-3.824,3.5-.224,1.949-.37,3.907-.557,5.86-.029.3-.091.6-.139.9A1.388,1.388,0,0,1,39.8,77.226,1.36,1.36,0,0,1,38.5,75.759c.077-1.822.177-3.643.328-5.46a17.4,17.4,0,0,1,.443-2.762,6,6,0,0,1,5.962-4.884c1.865-.065,3.737.129,5.605.11a31.348,31.348,0,0,0,4.673-.3c1.789-.289,2.326-1.117,2.061-2.935-.261-1.8-.65-3.573-.961-5.239-1.639,0-3.223,0-4.807,0-3.718.014-7.439-.025-11.154.086a8.7,8.7,0,0,0-3.148.808A4.1,4.1,0,0,0,34.958,59c-.063,2.733.024,5.469.055,8.2.032,2.783.074,5.566.108,8.349a1.331,1.331,0,0,1-1.208,1.383,1.364,1.364,0,0,1-1.479-1.277c-.071-.626-.093-1.26-.109-1.891-.1-4.185-.215-8.37-.285-12.556A15.04,15.04,0,0,1,32.229,58a7.474,7.474,0,0,1,6.358-6.111,30.921,30.921,0,0,1,6.14-.306c3.671.019,7.342.148,11.013.231.228.005.457,0,.743,0l.06-1.243c-.851,0-1.638-.014-2.424,0-3.554.074-7.107.18-10.661.22a11.646,11.646,0,0,1-2.914-.284,3.2,3.2,0,0,1-2.6-2.709,3.375,3.375,0,0,1,1.906-3.394,7.814,7.814,0,0,1,2.96-.676c4.254-.072,8.509-.031,12.89-.031-.133-.171-.166-.258-.227-.285-4.795-2.144-9.6-4.269-14.386-6.429a8.929,8.929,0,0,0-12.22,6.583,43.086,43.086,0,0,0-.6,7.89c.051,7.6.26,15.2.411,22.8.005.255.072.509.092.764a1.476,1.476,0,0,1-1.327,1.606,1.346,1.346,0,0,1-1.464-1.359A262.989,262.989,0,0,1,25.6,48.135a27.176,27.176,0,0,1,.741-6.037c1.3-4.708,4.652-7.362,9.339-8.36a9.9,9.9,0,0,1,6.311.694c5.868,2.713,11.716,5.47,17.576,8.2.286.133.692.314.917.208a1.311,1.311,0,0,0,.851-1.329,3.469,3.469,0,0,0-.367-1.192Q59.9,38.27,58.757,36.259a19.651,19.651,0,0,1-1.91-4.712,20.65,20.65,0,0,1-.362-4.364C55.934,16.664,49.871,8.524,39.9,5.1A38.2,38.2,0,0,0,24.872,2.985a20.4,20.4,0,0,0-11.5,4.694A26.955,26.955,0,0,0,3.154,24.561,22.938,22.938,0,0,0,6.4,40.773c1.827,3.009,4,5.81,6.048,8.682A29.263,29.263,0,0,1,17.454,59.1a18.3,18.3,0,0,1-3.293,16.1c-.1.131-.187.3-.322.364-.25.115-.625.3-.777.2a.972.972,0,0,1-.362-.789,11.431,11.431,0,0,1,.474-1.681c.613-2.008,1.36-3.986,1.818-6.028a15.929,15.929,0,0,0-2.366-12.54c-1.9-2.914-4.035-5.673-6.08-8.49A33.355,33.355,0,0,1,.429,32.69,25.463,25.463,0,0,1,2.694,16.723,29.416,29.416,0,0,1,17.331,1.951,24.114,24.114,0,0,1,29.05.071,41.578,41.578,0,0,1,43.621,3.55a25.752,25.752,0,0,1,15.415,19.6,27.235,27.235,0,0,1,.4,7.676,1.864,1.864,0,0,0,.332.974c.821,1.441,1.685,2.857,2.5,4.3.586,1.036,1.162,2.081,1.669,3.157,1.807,3.839-1.09,6.718-4.086,7.091-.183.023-.364.058-.585.094m-2.517-.38c-.813.044-1.552.117-2.291.12-3.832.015-7.665-.009-11.5.037a6.489,6.489,0,0,0-2.005.465.852.852,0,0,0-.46.688.97.97,0,0,0,.648.614,16.1,16.1,0,0,0,2.575.158c3.083-.069,6.165-.19,9.247-.27,1.186-.031,2.374,0,3.612,0l.171-1.808" transform="translate(0 0)" fill="#1a1818" stroke="#1a1818" stroke-width="0.5"/>
      </g>
    </g>
    <path id="Path_14464" data-name="Path 14464" d="M9.021,6.43C9.038,2.571,6.888-.241,4.352.016,1.66.291.119,2.293,0,5.778-.1,8.986,2.231,12.032,4.648,11.692c2.616-.367,4.158-2.363,4.373-5.262" transform="translate(414.813 306.896)" fill="#5ba273"/>
    <path id="Path_14465" data-name="Path 14465" d="M12.417,8.851C12.442,3.539,9.481-.332,5.991.023,2.285.4.163,3.157,0,7.954-.141,12.37,3.071,16.563,6.4,16.095c3.6-.505,5.724-3.253,6.019-7.244" transform="matrix(-0.174, -0.985, 0.985, -0.174, 423.033, 360.96)" fill="#5ba273"/>
    <path id="Path_14466" data-name="Path 14466" d="M252.9,3.058c.415-.779.7-1.374,1.036-1.934a2,2,0,0,1,2.723-.872,2,2,0,0,1,.91,2.718c-.75,1.627-1.535,3.241-2.4,4.81a2.005,2.005,0,0,1-3.333.4c-.459-.464-.872-.974-1.436-1.609-.333.62-.61,1.145-.895,1.665a2.079,2.079,0,1,1-3.7-1.847c.7-1.448,1.412-2.893,2.164-4.316a2.092,2.092,0,0,1,3.671-.439c.389.424.764.86,1.26,1.419" transform="translate(713.438 241.036) rotate(164)" fill="#ff6b18"/>
  </g>
</svg>
