<svg xmlns="http://www.w3.org/2000/svg" width="62" height="62.981" viewBox="0 0 62 62.981"><g transform="translate(0.001 0.421)"><g transform="translate(-0.001 0.079)"><circle cx="8" cy="8" r="8" transform="translate(23 23)" fill="#509c8b"/><path d="M61.842,115.493c-11.985-24.756-49.8-24.629-61.687,0a1.816,1.816,0,0,0,0,1.476c11.982,24.751,49.788,24.644,61.687,0A1.816,1.816,0,0,0,61.842,115.493Zm-57.991.738a30.846,30.846,0,0,1,11.992-11.978,19.416,19.416,0,0,0,0,23.956A30.843,30.843,0,0,1,3.851,116.231ZM31,131.924A15.711,15.711,0,0,1,15.305,116.23c.862-20.82,30.529-20.814,31.387,0A15.711,15.711,0,0,1,31,131.924Zm15.156-3.716a19.416,19.416,0,0,0,0-23.956A30.844,30.844,0,0,1,58.147,116.23,30.847,30.847,0,0,1,46.156,128.208Z" transform="translate(0.001 -85.24)"/><path d="M242.816,7.593a1.816,1.816,0,0,0,1.816-1.816V1.886a1.816,1.816,0,0,0-3.633,0V5.777A1.816,1.816,0,0,0,242.816,7.593Z" transform="translate(-211.816 -0.079)" fill="#ff6b18" stroke="#ff6b18" stroke-width="1"/><path d="M242.816,449.867A1.816,1.816,0,0,0,241,451.683v3.891a1.816,1.816,0,0,0,3.633,0v-3.891A1.816,1.816,0,0,0,242.816,449.867Z" transform="translate(-211.816 -395.401)" fill="#ff6b18" stroke="#ff6b18" stroke-width="1"/><path d="M44.832,47.4A1.816,1.816,0,0,0,47.4,44.832L44.65,42.081a1.816,1.816,0,1,0-2.569,2.569Z" transform="translate(-36.518 -36.527)" fill="#ff6b18" stroke="#ff6b18" stroke-width="1"/><path d="M44.832,418.266l-2.751,2.751a1.816,1.816,0,0,0,2.569,2.569l2.751-2.751a1.816,1.816,0,1,0-2.569-2.569Z" transform="translate(-36.517 -367.158)" fill="#ff6b18" stroke="#ff6b18" stroke-width="1"/><path d="M420.834,47.4l2.751-2.751a1.816,1.816,0,0,0-2.569-2.569l-2.751,2.751a1.816,1.816,0,0,0,2.569,2.569Z" transform="translate(-367.149 -36.528)" fill="#ff6b18" stroke="#ff6b18" stroke-width="1"/><path d="M420.834,418.266a1.816,1.816,0,0,0-2.569,2.569l2.751,2.751a1.816,1.816,0,0,0,2.569-2.569Z" transform="translate(-367.149 -367.158)" fill="#ff6b18" stroke="#ff6b18" stroke-width="1"/><path d="M6.325,2.9A3.227,3.227,0,0,1,3.051,6.415,3.02,3.02,0,0,1,0,3.257,3.172,3.172,0,0,1,3.259.014,3.13,3.13,0,0,1,6.325,2.9" transform="matrix(0.839, 0.545, -0.545, 0.839, 33.695, 21)" fill="#fff"/></g></g></svg>