<svg xmlns="http://www.w3.org/2000/svg" width="76.228" height="68.312" viewBox="0 0 76.228 68.312">
  <g id="Group_9513" data-name="Group 9513" transform="translate(0 0)">
    <g id="Group_9514" data-name="Group 9514">
      <path id="Path_14222" data-name="Path 14222" d="M70.662,178.489q-4.938-.706-9.877-1.41a8.6,8.6,0,0,0-1.3-.156,1.4,1.4,0,0,0-1.33,2.147c.481.982,1.1,1.907,1.483,2.924A11.053,11.053,0,0,1,58.6,192.557c-3.872,5.724-12.661,5.4-16.663-.582-2.359-3.527-2.773-7.5-2.447-11.61.017-.217.084-.43.114-.648.342-2.448-.25-2.945-2.718-2.738a50.933,50.933,0,0,1-5.5-.028c-.836-.021-1.87-.257-2.171.7a2.957,2.957,0,0,0,.447,2.112,11.908,11.908,0,0,1,1.355,9.865c-2.083,7.273-11.088,9.431-16.606,4.007a13.744,13.744,0,0,1-3.949-9.487A37.88,37.88,0,0,1,10.7,179.3c.152-1.951-.594-2.681-2.532-2.307-1.678.323-3.336.746-5.013,1.072a4.162,4.162,0,0,1-1.946.09C.7,177.994.018,177.386,0,176.951a1.764,1.764,0,0,1,1.1-1.3c2.082-.493,4.213-.776,6.316-1.187,4.182-.818,6.467,1.334,5.85,5.559a16.011,16.011,0,0,0,1.156,9.262,7.826,7.826,0,0,0,11.168,3.652c3.045-1.859,4.253-6.887,2.5-10.492-.364-.747-.842-1.438-1.236-2.171a3.992,3.992,0,0,1,3.52-5.983c2.623-.035,5.246-.033,7.869-.012a4.024,4.024,0,0,1,4.089,4.2,58.253,58.253,0,0,0,.06,7.455c.461,3.588,2.167,6.531,5.879,7.7,5.742,1.812,10.728-2.946,9.387-8.971a15.107,15.107,0,0,0-1.57-3.867c-.844-1.543-1.17-3.032-.2-4.588a3.954,3.954,0,0,1,4.305-1.891,65.231,65.231,0,0,0,13.329,1.326,1.9,1.9,0,0,1,1.332,1.229c.176.849-.5,1.329-1.383,1.338-.921.01-1.843,0-2.764,0l-.039.275" transform="translate(0 -128.362)" fill="#18171b"/>
      <path id="Path_14223" data-name="Path 14223" d="M240.085,79.572a18.542,18.542,0,0,0-6.458,8.778,35.728,35.728,0,0,0-1.342,5.466c-.176.919-.392,1.711-1.462,1.62-1.153-.1-1.312-.984-1.187-1.949A25.215,25.215,0,0,1,236.282,79.2c.286-.308.554-.632,1.026-1.174a6.948,6.948,0,0,1-2.177.271,5.286,5.286,0,0,1-1.553-1.055c.382-.5.688-1.34,1.157-1.444,2.475-.549,4.988-.937,7.5-1.331,1.386-.218,2.11.626,1.682,1.957-.789,2.458-1.631,4.9-2.449,7.347-.288.862-.821,1.415-1.764,1.057-.9-.342-1.039-1.066-.716-1.949.4-1.091.736-2.2,1.1-3.308" transform="translate(-169.149 -54.836)" fill="#ff6b18"/>
      <path id="Path_14224" data-name="Path 14224" d="M80.217,21.866c.464-.888.829-1.752-.295-2.36-1-.539-1.515.183-1.982.932A148.693,148.693,0,0,0,62.758,51.544,53.574,53.574,0,0,0,59.64,67.6c0,.657-.05,1.32.009,1.972.194,2.116.554,4.2,2.024,5.86a4.963,4.963,0,0,0,5.347,1.614c2.017-.556,2.808-2.129,3.072-4.018a6.006,6.006,0,0,0-.975-4.518,9.108,9.108,0,0,1-1.611-5.575,54.94,54.94,0,0,1,1.831-13.38,125.352,125.352,0,0,1,10.88-27.692" transform="translate(-43.923 -14.232)" fill="#5ba273"/>
      <path id="Path_14225" data-name="Path 14225" d="M195.768.041a2.171,2.171,0,0,0-1.8.541c-4.8,4.992-9.7,9.9-14.247,15.117a81.884,81.884,0,0,0-13.281,20.132,37.4,37.4,0,0,0-3.158,10.19A22.048,22.048,0,0,0,164.9,50.35a4.442,4.442,0,0,0,7.018.789,5.893,5.893,0,0,0,1.441-5.761c-.992-2.944-.544-5.672.375-8.475,2.838-8.659,7.6-16.254,13.043-23.445,2.879-3.807,6.048-7.4,9.1-11.071.855-1.028.888-2.054-.113-2.345" transform="translate(-120.293 0)" fill="#5ba273"/>
    </g>
  </g>
</svg>
