<svg xmlns="http://www.w3.org/2000/svg" width="65.076" height="74.574" viewBox="0 0 65.076 74.574"><g transform="translate(-142.411 -467.462)"><path d="M33.979,73.873a13.686,13.686,0,0,0,5.029-.89c3.635-1.423,6.317-4.54,8.2-9.528a1.232,1.232,0,0,0-2.306-.87c-1.644,4.357-3.8,6.933-6.79,8.1-4.19,1.638-10.073.511-17.991-3.45a30.72,30.72,0,0,1-17.6-29.362,21.1,21.1,0,0,1,2.35-8.58,1.192,1.192,0,0,0,.3-.519,13.084,13.084,0,0,1,7.115-5.957,14.567,14.567,0,0,1,6.064-.794,11.37,11.37,0,0,1,3.866,1.078c6.394,3.1,8.891,11.566,8.916,11.653a1.232,1.232,0,1,0,2.37-.678c-.1-.37-2.489-8.5-8.9-12.468,3.161-3.877,11.314-11.6,23.673-7.543.384.123.77.283,1.155.43a7.664,7.664,0,0,0-1.826,2.858,7.559,7.559,0,0,0-.471,3.46c-5.6-1.211-9.156-.186-11.225,1a6.837,6.837,0,0,0-2.028,1.649,1.232,1.232,0,0,0,.986,1.958,1.248,1.248,0,0,0,.977-.471,4.822,4.822,0,0,1,1.036-.838c4.572-.246,9.261,6.182,10.776,14.836a1.232,1.232,0,0,0,1.213,1.02,1.257,1.257,0,0,0,.213-.018,1.232,1.232,0,0,0,1-1.426c-1.3-7.478-4.8-13.344-8.933-15.734a21.5,21.5,0,0,1,8.222,1.165H49.4a2.811,2.811,0,0,0,.8.123c1.758,0,3.574-1.6,4.506-4.118a7.447,7.447,0,0,0,.426-3.8,3.46,3.46,0,0,0-1.84-2.657,26.275,26.275,0,0,0-4.246-1.784c-11.2-3.672-19.269,1.278-23.783,5.567a59.354,59.354,0,0,0,.616-9.4V3.783C25.874,1.3,22.152,0,18.48,0s-7.394,1.3-7.394,3.784c0,.884.012,1.708.025,2.465.02,1.32.037,2.465-.022,3.354-.073,1.1-.468,4.792-2.5,6.179A13.364,13.364,0,0,0,2.755,28.021,23.5,23.5,0,0,0,.064,37.708a33.179,33.179,0,0,0,18.95,31.736c5.917,2.96,10.865,4.429,14.965,4.429ZM52.4,19.125c-.673,1.826-1.889,2.652-2.324,2.486s-.827-1.575-.153-3.4a5.035,5.035,0,0,1,1.4-2.113,1.479,1.479,0,0,1,.81-.388.315.315,0,0,1,.117.018c.2.074.382.42.463.884a5.044,5.044,0,0,1-.311,2.514ZM18.48,2.465c2.975,0,4.683.922,4.917,1.32-.234.405-1.942,1.321-4.917,1.321-3.055,0-4.775-.972-4.929-1.277V3.82C13.705,3.437,15.425,2.465,18.48,2.465Zm-8.5,15.358c2.871-1.958,3.45-6.285,3.574-8.051.058-.879.051-1.916.033-3.091a12.856,12.856,0,0,0,4.9.888,12.839,12.839,0,0,0,4.929-.9V7.9a44,44,0,0,1-1.356,12.466,13.727,13.727,0,0,0-3.457-.79,17.02,17.02,0,0,0-7.083.907,14.926,14.926,0,0,0-5.959,3.758,10.4,10.4,0,0,1,4.423-6.42Z" transform="translate(151.564 467.812)" fill="#1a1818" stroke="#181616" stroke-width="0.7"/><path d="M12.132,20.429c-4.6,1.537-7.624,6.357-8.086,12.892a1.232,1.232,0,0,0,1.142,1.317h.087a1.232,1.232,0,0,0,1.232-1.145c.389-5.508,2.785-9.519,6.408-10.73a1.234,1.234,0,0,0-.781-2.341Z" transform="translate(153.566 474.065)" fill="#1a1818" stroke="#181616" stroke-width="0.7"/><path d="M28.584,36.361a1.232,1.232,0,0,0-1.742,0,9.957,9.957,0,0,0,0,14.065,1.232,1.232,0,0,0,1.742-1.742,7.49,7.49,0,0,1,0-10.58,1.232,1.232,0,0,0,0-1.742Z" transform="translate(152.739 475.413)" fill="#509c8b" stroke="#509c8b" stroke-width="0.7"/><path d="M181.621,212.342a1.742,1.742,0,0,1-1.767,1.9,1.63,1.63,0,0,1-1.646-1.7,1.712,1.712,0,0,1,1.758-1.75,1.69,1.69,0,0,1,1.655,1.557" transform="translate(-31.846 278.603)" fill="#ff6b18"/><path d="M183.19,213.061a2.542,2.542,0,0,1-2.579,2.77,2.379,2.379,0,0,1-2.4-2.488,2.5,2.5,0,0,1,2.565-2.554,2.466,2.466,0,0,1,2.416,2.273" transform="translate(-13.373 300.636)" fill="#ff6b18"/><path d="M185.571,214.153c.014,2.463-1.741,4.258-3.811,4.094a3.516,3.516,0,0,1-3.55-3.677A3.692,3.692,0,0,1,182,210.794a3.644,3.644,0,0,1,3.569,3.359" transform="translate(-35.796 307.253)" fill="#ff6b18"/><path d="M2.667,1.223a1.361,1.361,0,0,1-1.38,1.483A1.274,1.274,0,0,1,0,1.373,1.337,1.337,0,0,1,1.374.006,1.32,1.32,0,0,1,2.667,1.223" transform="matrix(0.839, 0.545, -0.545, 0.839, 204.535, 512.081)" fill="#ff6b18"/><path d="M6.988,14.462A7.016,7.016,0,0,1,.022,6.674C.348,2.132,3.149-.078,7.408,0c4.355.081,6.842,2.781,7.112,7.1.255,4.044-3.421,7.469-7.532,7.363" transform="matrix(0.839, 0.545, -0.545, 0.839, 188.19, 508.717)" fill="#509c8b"/><path d="M4.659,2.135a2.377,2.377,0,0,1-2.411,2.59A2.225,2.225,0,0,1,0,2.4,2.336,2.336,0,0,1,2.4.01,2.305,2.305,0,0,1,4.659,2.135" transform="matrix(0.839, 0.545, -0.545, 0.839, 203.58, 522.257)" fill="#ff6b18"/></g></svg>