<svg xmlns="http://www.w3.org/2000/svg" width="74" height="74" viewBox="0 0 74 74">
  <g id="Group_566" data-name="Group 566" transform="translate(-967 -24)">
    <rect id="Rectangle_144" data-name="Rectangle 144" width="74" height="74" rx="37" transform="translate(967 24)" fill="#ff6b18" opacity="0.91"/>
    <g id="Group_339" data-name="Group 339" transform="translate(990 39)">
      <path id="Path_369" data-name="Path 369" d="M10.925,7.014c-.147-.668-.27-1.277-.415-1.881a4.091,4.091,0,1,1,8-1.62,7.316,7.316,0,0,1-.332,2.669c-.053.257-.114.512-.178.8.375.026.72.025,1.058.077a2.532,2.532,0,0,1,2.157,2.31,2.5,2.5,0,0,1-1.881,2.656c-.338.083-.412.218-.4.53.053,1.054-.01,2.122.144,3.159a5.568,5.568,0,0,0,2.285,3.605,19.383,19.383,0,0,1,6.707,9.14,13.839,13.839,0,0,1,.219,8.96,8.425,8.425,0,0,1-8.148,5.917c-3.711,0-7.424-.071-11.133.019A8.482,8.482,0,0,1,.3,36.232,15.406,15.406,0,0,1,2.423,25.078,19.864,19.864,0,0,1,7.579,19.3a5.749,5.749,0,0,0,2.384-4.73c0-.709.007-1.418.025-2.126.006-.233-.061-.327-.306-.387A2.528,2.528,0,0,1,7.719,9.217a2.566,2.566,0,0,1,2.54-2.2c.2-.005.41,0,.666,0m.742,5.141c0,.744-.006,1.463,0,2.182a7.6,7.6,0,0,1-3.174,6.42,17.634,17.634,0,0,0-5.68,7.326,12.565,12.565,0,0,0-.627,8.628,6.746,6.746,0,0,0,6.681,4.932c3.765-.075,7.533-.058,11.3-.005a6.776,6.776,0,0,0,6.391-4.429,11.607,11.607,0,0,0,.126-7.529,17.428,17.428,0,0,0-6.261-8.923,7.585,7.585,0,0,1-3.158-6.386c.009-.732,0-1.464,0-2.215Zm2.772-5.141c.472,0,.944-.014,1.415.005.279.011.419-.053.476-.363.122-.667.3-1.324.446-1.987a2.384,2.384,0,1,0-4.637-.044c.144.692.33,1.375.464,2.068.052.269.173.332.42.324.471-.015.943,0,1.415,0m.026,1.711c-1.347,0-2.695,0-4.042,0-.616,0-1.026.343-1.028.846s.409.847,1.026.847q4.042,0,8.085,0c.61,0,1.035-.354,1.028-.846-.007-.514-.4-.845-1.025-.847-1.347,0-2.695,0-4.042,0" transform="translate(0 0)" fill="#fff" stroke="#fff" stroke-width="1"/>
      <path id="Path_370" data-name="Path 370" d="M112.155,273.527a7.48,7.48,0,0,1-2.873,5.975,6.614,6.614,0,0,1-2.5,1.277.407.407,0,0,0-.363.491c.049.762.093,1.524.119,2.287a.833.833,0,0,1-1.134.867.772.772,0,0,1-.541-.721c-.05-.97-.076-1.941-.139-2.91a.979.979,0,0,0-.227-.57,7.785,7.785,0,0,1-2.361-6.22,7.057,7.057,0,0,1,2.164-4.391,14.407,14.407,0,0,1,5.37-3.249.815.815,0,0,1,1.1.469,17.69,17.69,0,0,1,1.383,6.695m-7.205,4.557c.22-.8.413-1.545.634-2.285.215-.723.656-1.017,1.192-.83.516.18.634.637.423,1.367-.252.872-.458,1.758-.681,2.63.124.042.153.064.173.057a3.31,3.31,0,0,0,.349-.131,5.548,5.548,0,0,0,3.178-3.791,11.341,11.341,0,0,0-.711-6.764c-.007-.02-.044-.03-.083-.054a11.394,11.394,0,0,0-4.257,2.894,5.132,5.132,0,0,0-1.288,4.476,5.711,5.711,0,0,0,1.07,2.431" transform="translate(-93.586 -244.086)" fill="#fff" stroke="#fff" stroke-width="1"/>
    </g>
  </g>
</svg>
