<svg xmlns="http://www.w3.org/2000/svg" width="83.698" height="75.36" viewBox="0 0 83.698 75.36"><g transform="translate(-615.513 -84.518)"><g transform="translate(620 86.053)"><path d="M67.331,15.252a3.014,3.014,0,0,0-1.882-2.23c-4.383-1.688-8.75-3.466-12.981-5.3C47.075,5.382,41.714,2.9,36.549.335A3.083,3.083,0,0,0,33.673.38C28.522,2.927,23.191,5.4,17.83,7.72c-4.228,1.837-8.6,3.615-12.981,5.3a3.014,3.014,0,0,0-1.883,2.23c-.857,4.431-4.382,27.4,10.8,44.307A43.094,43.094,0,0,0,34.29,72.2a3.2,3.2,0,0,0,.859.121,2.686,2.686,0,0,0,.933-.151A43.15,43.15,0,0,0,56.545,59.559C71.714,42.652,68.19,19.684,67.331,15.252ZM52.061,55.536A37.135,37.135,0,0,1,35.149,66.176,37.135,37.135,0,0,1,18.237,55.536C6.279,42.213,7.771,23.843,8.613,18.026c3.931-1.537,7.817-3.136,11.6-4.778,5.045-2.17,10.061-4.49,14.94-6.887,4.879,2.4,9.894,4.718,14.938,6.887,3.781,1.642,7.667,3.241,11.6,4.778C62.527,23.843,64.018,42.213,52.061,55.536Z" stroke="#fff" stroke-width="3"/><path d="M46.656,27.068a1.507,1.507,0,0,0-1.507,1.507H42.03A11.956,11.956,0,0,0,39.6,22.7l2.2-2.2a1.508,1.508,0,1,0,2.125-2.14L41.8,16.234a1.508,1.508,0,1,0-2.14,2.125l-2.2,2.2a11.956,11.956,0,0,0-5.876-2.426V15.014a1.507,1.507,0,0,0,0-3.014H28.575a1.507,1.507,0,0,0,0,3.014v3.119A11.956,11.956,0,0,0,22.7,20.559l-2.2-2.2a1.508,1.508,0,0,0-2.14-2.125l-2.125,2.125a1.508,1.508,0,0,0,2.125,2.14l2.2,2.2a11.956,11.956,0,0,0-2.426,5.876H15.014a1.507,1.507,0,1,0-3.014,0v3.014a1.507,1.507,0,1,0,3.014,0h3.119a11.956,11.956,0,0,0,2.426,5.876l-2.2,2.2a1.508,1.508,0,0,0-2.125,2.14l2.125,2.125a1.5,1.5,0,0,0,1.07.452A1.514,1.514,0,0,0,20.5,41.8l2.2-2.2a11.956,11.956,0,0,0,5.876,2.426v3.119a1.507,1.507,0,0,0,0,3.014h3.014a1.507,1.507,0,1,0,0-3.014V42.03A11.956,11.956,0,0,0,37.465,39.6l2.2,2.2a1.508,1.508,0,1,0,2.14,2.125L43.929,41.8a1.508,1.508,0,1,0-2.125-2.14l-2.2-2.2a11.956,11.956,0,0,0,2.426-5.876h3.119a1.507,1.507,0,1,0,3.014,0V28.575a1.507,1.507,0,0,0-1.507-1.507ZM27.068,33.095a1.507,1.507,0,1,1,1.507-1.507A1.507,1.507,0,0,1,27.068,33.095Zm1.507-4.52a1.507,1.507,0,1,1,1.507-1.507A1.507,1.507,0,0,1,28.575,28.575ZM31.588,34.6a1.507,1.507,0,1,1,1.507-1.507A1.507,1.507,0,0,1,31.588,34.6Zm1.507-4.52A1.507,1.507,0,1,1,34.6,28.575,1.507,1.507,0,0,1,33.095,30.081Z" transform="translate(5.068 6.081)" fill="#2c7243"/></g><path d="M180.7,211.922a1.274,1.274,0,0,1-1.292,1.388,1.192,1.192,0,0,1-1.2-1.247,1.252,1.252,0,0,1,1.286-1.28,1.236,1.236,0,0,1,1.21,1.139" transform="translate(511.681 -105.385)" fill="#ff6b18"/><path d="M122.82,141.653a3.9,3.9,0,0,1-3.871-4.327,3.656,3.656,0,0,1,4.1-3.707c2.42.045,3.8,1.546,3.952,3.943a4.041,4.041,0,0,1-4.185,4.091" transform="translate(572.198 -20.371)" fill="#ff6b18"/><path d="M181.2,212.15a1.527,1.527,0,0,1-1.549,1.664,1.43,1.43,0,0,1-1.443-1.5,1.5,1.5,0,0,1,1.541-1.535,1.482,1.482,0,0,1,1.451,1.365" transform="translate(514.178 -82.253)" fill="#ff6b18"/><path d="M180.7,211.922a1.274,1.274,0,0,1-1.292,1.388,1.192,1.192,0,0,1-1.2-1.247,1.252,1.252,0,0,1,1.286-1.28,1.236,1.236,0,0,1,1.21,1.139" transform="translate(438.303 -105.701)" fill="#ff6b18"/><path d="M182.319,212.662a2.1,2.1,0,0,1-2.128,2.286,1.963,1.963,0,0,1-1.982-2.053,2.062,2.062,0,0,1,2.117-2.108,2.035,2.035,0,0,1,1.993,1.875" transform="translate(441.737 -77.315)" fill="#ff6b18"/><path d="M182.7,212.836a2.291,2.291,0,0,1-2.324,2.5,2.144,2.144,0,0,1-2.165-2.243,2.252,2.252,0,0,1,2.312-2.3,2.222,2.222,0,0,1,2.177,2.048" transform="translate(437.306 -95.793)" fill="#ff6b18"/></g></svg>