<svg xmlns="http://www.w3.org/2000/svg" width="104.338" height="105.177" viewBox="0 0 104.338 105.177"><g transform="translate(-663.424 -37.972)"><g transform="translate(663.424 77.622) rotate(-44)"><path d="M153.643,15.918a5.709,5.709,0,0,0-4.076-1.7c-1.73,0-3.978.743-5.335,4.083l.548-7.892c0-.013,0-.025,0-.038a5.517,5.517,0,0,0-1.64-4.187,6.315,6.315,0,0,0-4.733-1.847,5.8,5.8,0,0,0-2.555.7,5.654,5.654,0,0,0-1.569-3.072A6.648,6.648,0,0,0,129.34,0a6.31,6.31,0,0,0-5.859,5.124A6.729,6.729,0,0,0,119.14,4c-3.312.29-5.681,3.069-5.761,6.772L113.1,30.833l-1.6-2a6.567,6.567,0,0,0-9.047-1.793l-1.252.825a6.575,6.575,0,0,0-1.867,9.1l6.192,9.39,3.949,7.247c1.587,3.267,4.833,7.137,9.12,8.275L118.55,89.3a1.791,1.791,0,0,0,1.788,1.794h0a1.791,1.791,0,0,0,1.791-1.788l.021-13.533h18.583l.033,13.534a1.791,1.791,0,0,0,1.791,1.786h0a1.791,1.791,0,0,0,1.786-1.8l-.07-29c4.12-2.08,5.453-6.248,6.2-10.129,0-.017.006-.034.009-.051l4.819-29.8a1.814,1.814,0,0,0,.023-.274,5.761,5.761,0,0,0-1.685-4.126ZM125.372,28.785l1.487-22.15c.114-1.366.869-2.98,2.626-3.052a2.979,2.979,0,0,1,2.235.878,2.023,2.023,0,0,1,.614,1.558L131.1,25.37a1.791,1.791,0,0,0,3.57.286l1.433-14.83c.143-1.364.863-2.845,2.451-2.91a2.768,2.768,0,0,1,2.046.792,1.967,1.967,0,0,1,.605,1.475L139.7,31.853a1.786,1.786,0,0,0,.028.458l-14.922-2.339a1.781,1.781,0,0,0,.566-1.187ZM147.051,48.92,116.615,35.465l.064-4.593,32.468,5.089Zm-27.6-41.355a3.02,3.02,0,0,1,2.3.752,2.062,2.062,0,0,1,.682,1.556L121.8,28.6a1.78,1.78,0,0,0,.227.931l-5.313-.833.25-17.869c.033-1.521.816-3.121,2.492-3.267Zm-10.818,37.01q-.036-.066-.077-.129l-6.233-9.452a2.989,2.989,0,0,1,.849-4.136l1.252-.825a2.985,2.985,0,0,1,4.135.849c.03.046,4.862,6.082,4.862,6.082a1.786,1.786,0,0,0,.753.551c2.845,2.3,4.131,4.507,3.817,6.567-.462,3.031-4.155,5.276-6.193,6.3Zm4.182,7.7c2.391-1.208,6.69-3.9,7.3-7.867a7.508,7.508,0,0,0-1.862-5.874l17.822,7.879L119.03,58.265C116.376,57.343,114.1,54.786,112.816,52.278ZM140.7,60.23l.011,4.739L122.253,72.72c-.033.014-.065.029-.1.046l.018-11.308Zm-15.05,13.395L140.716,67.3l.015,6.327Zm16.227-16.187a1.787,1.787,0,0,0-.825.616l-19.22,1.274a1.811,1.811,0,0,0-.214-.243L138.34,47.458l.033-.025,8.24,3.643c-.916,3.647-2.31,5.481-4.736,6.361Zm7.614-23.6-6.432-1.008a1.8,1.8,0,0,0,.124-.282s4.073-12.044,4.079-12.067c.786-2.683,1.851-2.683,2.3-2.683a2.152,2.152,0,0,1,1.535.642,2.2,2.2,0,0,1,.642,1.461Z" transform="translate(-98.25 0)"/><path d="M294.317,210.762c.267.042,1.718.375,1.96.357a1.791,1.791,0,0,0,.35-3.547l-1.606-.321a1.791,1.791,0,1,0-.7,3.512Z" transform="translate(-258.25 -170.348)" fill="#2c7243"/><path d="M259.961,203.885a5.393,5.393,0,0,0,.881.141,1.791,1.791,0,0,0,.35-3.547l-.529-.106a1.791,1.791,0,0,0-.7,3.512Z" transform="translate(-230.006 -164.694)" fill="#2c7243"/></g><path d="M180.7,211.922a1.274,1.274,0,0,1-1.292,1.388,1.192,1.192,0,0,1-1.2-1.247,1.252,1.252,0,0,1,1.286-1.28,1.236,1.236,0,0,1,1.21,1.139" transform="translate(568.023 -138.774)" fill="#ff6b18"/><path d="M122.82,141.653a3.9,3.9,0,0,1-3.871-4.327,3.656,3.656,0,0,1,4.1-3.707c2.42.045,3.8,1.546,3.952,3.943a4.041,4.041,0,0,1-4.185,4.091" transform="translate(624.504 -53.874)" fill="#ff6b18"/><path d="M181.2,212.15a1.527,1.527,0,0,1-1.549,1.664,1.43,1.43,0,0,1-1.443-1.5,1.5,1.5,0,0,1,1.541-1.535,1.482,1.482,0,0,1,1.451,1.365" transform="translate(575.057 -119.641)" fill="#ff6b18"/><path d="M180.7,211.922a1.274,1.274,0,0,1-1.292,1.388,1.192,1.192,0,0,1-1.2-1.247,1.252,1.252,0,0,1,1.286-1.28,1.236,1.236,0,0,1,1.21,1.139" transform="translate(438.955 213.313) rotate(-82)" fill="#ff6b18"/><path d="M182.319,212.662a2.1,2.1,0,0,1-2.128,2.286,1.963,1.963,0,0,1-1.982-2.053,2.062,2.062,0,0,1,2.117-2.108,2.035,2.035,0,0,1,1.993,1.875" transform="translate(446.226 236.337) rotate(-82)" fill="#ff6b18"/><path d="M182.7,212.836a2.291,2.291,0,0,1-2.324,2.5,2.144,2.144,0,0,1-2.165-2.243,2.252,2.252,0,0,1,2.312-2.3,2.222,2.222,0,0,1,2.177,2.048" transform="translate(438.955 226.679) rotate(-82)" fill="#ff6b18"/></g></svg>