<svg xmlns="http://www.w3.org/2000/svg" width="71.632" height="84.687" viewBox="0 0 71.632 84.687">
  <g id="Group_9649" data-name="Group 9649" transform="translate(-146 -272.814)">
    <path id="Path_14252" data-name="Path 14252" d="M252.9,3.058c.415-.779.7-1.374,1.036-1.934a2,2,0,0,1,2.723-.872,2,2,0,0,1,.91,2.718c-.75,1.627-1.535,3.241-2.4,4.81a2.005,2.005,0,0,1-3.333.4c-.459-.464-.872-.974-1.436-1.609-.333.62-.61,1.145-.895,1.665a2.079,2.079,0,1,1-3.7-1.847c.7-1.448,1.412-2.893,2.164-4.316a2.092,2.092,0,0,1,3.671-.439c.389.424.764.86,1.26,1.419" transform="translate(-40.149 272.804)" fill="#ff6b18"/>
    <path id="Path_14460" data-name="Path 14460" d="M250.395,3.058c-.415-.779-.7-1.374-1.036-1.934a2,2,0,0,0-2.723-.872,2,2,0,0,0-.91,2.718c.75,1.627,1.535,3.241,2.4,4.81a2.005,2.005,0,0,0,3.334.4c.459-.464.872-.974,1.436-1.609.333.62.61,1.145.895,1.665a2.079,2.079,0,1,0,3.7-1.847c-.7-1.448-1.412-2.893-2.164-4.316a2.093,2.093,0,0,0-3.671-.439c-.389.424-.764.86-1.26,1.419" transform="translate(-96.956 272.804)" fill="#ff6b18"/>
    <g id="Group_9643" data-name="Group 9643" transform="translate(146 286.812)">
      <g id="Group_9642" data-name="Group 9642">
        <path id="Path_14458" data-name="Path 14458" d="M30.119,26.784a6.681,6.681,0,0,0-3.475-1.827,8.941,8.941,0,0,0-1.753-4.495A13.657,13.657,0,0,0,27.7,8.555,10.816,10.816,0,0,0,16.663,0C5.152,0,0,13.314,0,26.508S5.152,53.017,16.663,53.017A10.815,10.815,0,0,0,27.7,44.462a13.628,13.628,0,0,0-2.969-12.088,7.909,7.909,0,0,0,1.806-3.769,3.032,3.032,0,0,1,1.069.668c2.765,2.789,2.665,12.336,2.52,26.791-.038,3.866-.082,8.142-.082,12.857a1.767,1.767,0,1,0,3.534,0c0-4.7.045-8.967.082-12.823C33.833,39.138,33.92,30.622,30.119,26.784Zm-6.893-.276c0,6.563-7.433,4.489-3.282,6.563,6.565,3.282,6.565,16.41-3.281,16.41S3.534,36.354,3.534,26.508,6.817,3.534,16.663,3.534s9.846,13.128,3.282,16.41C17.009,21.412,23.226,19.945,23.226,26.508Z" transform="translate(0 0)" fill="#1a1818"/>
      </g>
    </g>
    <g id="Group_9645" data-name="Group 9645" transform="translate(182.967 286.812)">
      <g id="Group_9644" data-name="Group 9644">
        <path id="Path_14459" data-name="Path 14459" d="M284.807,0a10.815,10.815,0,0,0-11.038,8.555,13.657,13.657,0,0,0,2.81,11.908,8.942,8.942,0,0,0-1.753,4.495,6.675,6.675,0,0,0-3.474,1.827c-3.8,3.838-3.714,12.353-3.542,29.315.038,3.855.082,8.122.082,12.823a1.767,1.767,0,0,0,3.534,0c0-4.715-.045-8.992-.082-12.857-.145-14.456-.245-24,2.52-26.791a3.011,3.011,0,0,1,1.069-.668,7.907,7.907,0,0,0,1.806,3.769,13.632,13.632,0,0,0-2.969,12.088,10.813,10.813,0,0,0,11.037,8.555c11.511,0,16.663-13.314,16.663-26.509S296.318,0,284.807,0Zm0,49.482c-9.846,0-9.846-13.128-3.282-16.41,4.152-2.076-3.282,0-3.282-6.563s6.217-5.1,3.282-6.563c-6.563-3.282-6.563-16.41,3.282-16.41s13.128,13.128,13.128,22.974S294.653,49.482,284.807,49.482Z" transform="translate(-267.747)" fill="#1a1818"/>
      </g>
    </g>
    <path id="Path_14461" data-name="Path 14461" d="M9.021,6.43C9.038,2.571,6.888-.241,4.352.016,1.66.291.119,2.293,0,5.778-.1,8.986,2.231,12.032,4.648,11.692c2.616-.367,4.158-2.363,4.373-5.262" transform="matrix(-0.174, -0.985, 0.985, -0.174, 195.337, 334.335)" fill="#5ba273"/>
    <path id="Path_14462" data-name="Path 14462" d="M10.913,5.683c.021-3.411-2.335-3.927-5.4-3.7C2.254,2.226.144,2.027,0,5.106a5.307,5.307,0,0,0,5.619,5.227c3.165-.324,5.03-2.089,5.29-4.65" transform="matrix(-0.174, -0.985, 0.985, -0.174, 158.678, 305.099)" fill="#5ba273"/>
  </g>
</svg>
