<svg xmlns="http://www.w3.org/2000/svg" width="80.518" height="76.671" viewBox="0 0 80.518 76.671"><g transform="translate(-858.801 -472)"><path d="M16.454,18a5.663,5.663,0,0,0,4.466-3.358,6.54,6.54,0,0,1,.02,3.9,1.426,1.426,0,1,0,2.716.872c.693-1.716.966-6.782-2.8-9.361a8.9,8.9,0,0,0-4.1-5.03c-1.077-.6-3.035-1.145-3.4.531C13.11,7.62,15.5,6.981,16.575,8.4c-5.9-.387-6.722,10.608-.121,9.605Zm-.9-6.513a2.935,2.935,0,0,1,2.823.355,2.969,2.969,0,0,1-.345,2.2c-.514.733-2.09,1.5-2.964,1.006-.773-.637-.326-3.127.486-3.565Z" transform="translate(847.231 496.769)" fill="#ff6b18" stroke="#fff" stroke-width="0.5"/><path d="M36.415,12.953a1.426,1.426,0,1,0-2.028-2.005c-1.529,1.7-4.963,1.417-5.568-.941,2.825,1.54,8.194-.615,8-3.954C35.97,2.569,29.9,1.789,27.476,4.8c-.624-1.051-.648-3.209-2.419-2.787-2.46.848.127,4.574.955,5.745C24.575,13.934,32.293,17.252,36.415,12.953ZM30.363,6.082a3.766,3.766,0,0,1,3.528.357,3.507,3.507,0,0,1-4.541.61,2.833,2.833,0,0,1,1.014-.967Z" transform="translate(893.561 522.578) rotate(-13)" fill="#ff6b18" stroke="#fff" stroke-width="0.4"/><path d="M-9970.129-3450.024a1.64,1.64,0,0,1,1.632-1.645,1.631,1.631,0,0,1,1.635,1.632v.012a1.636,1.636,0,0,1-1.635,1.64A1.635,1.635,0,0,1-9970.129-3450.024Zm0-6.737v-5.094a1.4,1.4,0,0,1,1.395-1.4,3.453,3.453,0,0,0,2.528-1.091,3.442,3.442,0,0,0,.944-2.571,3.491,3.491,0,0,0-3.4-3.292h-.075a3.475,3.475,0,0,0-3.439,2.991,3.451,3.451,0,0,0-.035.486,1.393,1.393,0,0,1-1.39,1.4,1.4,1.4,0,0,1-1.395-1.4,6.053,6.053,0,0,1,.063-.879,6.263,6.263,0,0,1,6.329-5.39,6.288,6.288,0,0,1,6.126,5.938,6.218,6.218,0,0,1-1.705,4.639,6.286,6.286,0,0,1-3.157,1.8v3.858a1.394,1.394,0,0,1-1.392,1.4A1.4,1.4,0,0,1-9970.132-3456.76Z" transform="translate(8875.16 7437.469) rotate(22)" fill="#ff6b18" stroke="#ff6b18" stroke-width="0.3"/><path d="M10390.724,4007.69c10.165,13.716,24.93,0,24.93,0l13.8,5.164,1.049,11.246h-55.993v-6.406s.564-4.437,1.533-4.841a21.374,21.374,0,0,0,3.389-2.663l8.229-2.017Z" transform="translate(-9506.898 -3476)" fill="#2c7243"/><g transform="translate(556.355 17.328)"><path d="M148.265,113.85a17.853,17.853,0,0,0,11.192-13.936,1.464,1.464,0,1,0-2.886-.5c-3.149,18.331-32.58,17.369-32.58-3.394,0-3.4.032-3.383-.08-3.708a1.462,1.462,0,0,0-.865-.894,4.038,4.038,0,0,1-2.716-3.81c0-4.141-.136-7.769.6-10.62.9-3.48,2.521-3.48,3.13-3.48a1.464,1.464,0,0,0,1.39-1c3.532-10.647,16.376-4.661,28.741-7.993a7.2,7.2,0,0,1-1.307,2.8,1.465,1.465,0,0,0,1.082,2.348,8.056,8.056,0,0,0,6.161-2.334,6.6,6.6,0,0,1-1.661,5.974,1.464,1.464,0,0,0-.186,1.657,18.759,18.759,0,0,1,2.228,8.868v3.784a4.036,4.036,0,0,1-1.569,3.19c-4.747-7.15-19.665-.269-31.123-6.635a1.465,1.465,0,0,0-2.175,1.28,16.5,16.5,0,0,1-.115,2.078,1.464,1.464,0,0,0,2.9.368q.01-.079.019-.159c12.037,5.172,26.16-.689,28.49,5.566a1.464,1.464,0,0,0,1.86.869,6.966,6.966,0,0,0,4.636-6.558V83.827A21.725,21.725,0,0,0,161.3,74.44a9.266,9.266,0,0,0,.351-10.829,1.465,1.465,0,0,0-2.548.167,5.189,5.189,0,0,1-2.361,2.435,10.3,10.3,0,0,0,.539-3.823,1.465,1.465,0,0,0-1.971-1.3c-11.964,4.435-27.31-2.917-32.308,9.587-1.843.333-3.893,1.665-4.907,5.581-.85,3.281-.7,7.036-.7,11.354a6.97,6.97,0,0,0,3.66,6.126v2.287c0,14.825,13.136,21.457,24.382,18.731,1.168,6.355,6.733,7.944,11.694,9.357,6.109,1.74,9.854,3.115,9.854,9.206V136.2a1.464,1.464,0,0,0,2.928,0v-2.887C169.922,117.848,149.888,124.666,148.265,113.85Z" transform="translate(198.825 393.675)"/><path d="M116.727,376.64a13.916,13.916,0,0,1-15.447-3.511,11.288,11.288,0,0,0,2.662-1.957,1.464,1.464,0,1,0-2.082-2.059c-5.11,5.169-19.824,2.47-19.824,15.576v2.887a1.464,1.464,0,0,0,2.928,0v-2.887c0-6.091,3.745-7.467,9.854-9.206,1.223-.348,2.461-.7,3.655-1.126a16.836,16.836,0,0,0,19.34,5,1.464,1.464,0,1,0-1.085-2.72Z" transform="translate(227.71 142.303)"/></g></g></svg>