<svg xmlns="http://www.w3.org/2000/svg" width="71.526" height="71" viewBox="0 0 71.526 71">
  <g id="Group_9525" data-name="Group 9525" transform="translate(0.526 0)">
    <path id="Path_14250" data-name="Path 14250" d="M64.093,57.6c0-1.863.065-3.733-.022-5.6a2.938,2.938,0,0,0-2.536-2.8c-2.47-.153-4.957-.043-7.452-.043-.114,1.839-.155,3.666-.354,5.476A29.639,29.639,0,0,1,48.96,67.855a19.513,19.513,0,0,0-3.433,10.837,15.8,15.8,0,0,1-3.465,9.668,3.21,3.21,0,0,0-.609,1.781c-.06,3.119-.025,6.239-.029,9.359,0,2.117-.664,2.786-2.736,2.787-2.422,0-4.844.006-7.266,0a2.1,2.1,0,0,1-2.38-2.364c-.023-3.3.017-6.607-.033-9.91a2.8,2.8,0,0,0-.55-1.583,16.377,16.377,0,0,1-3.557-10.2,16.931,16.931,0,0,0-2.788-9.356,32.113,32.113,0,0,1-5.629-19.1c.006-.181-.024-.363-.044-.657a9.013,9.013,0,0,0-.941-.1c-1.8-.009-3.6-.022-5.394,0a3.433,3.433,0,0,0-3.759,3.762c-.008,1.5,0,3.01.011,4.514a1.39,1.39,0,0,0,.078.318,25.64,25.64,0,0,1,3.016.475c5.537,1.539,9.4,8.443,7.874,13.981-1.207,4.368-5.41,6.43-9.84,4.826-5.04-1.825-8.541-8.322-7.2-13.523A19.685,19.685,0,0,1,1.67,60.411a4.165,4.165,0,0,0,.5-1.486c.056-2.164.009-4.331.029-6.5A7.385,7.385,0,0,1,9.03,44.988c2.63-.183,5.281-.043,7.921-.131a6.587,6.587,0,0,0,2.418-.529,37.094,37.094,0,0,1,31.839.056,5.62,5.62,0,0,0,2.1.476c2.749.082,5.51-.044,8.25.143a7.363,7.363,0,0,1,6.695,7.225c.038,2.239-.007,4.478.025,6.717A2.138,2.138,0,0,0,68.6,60.16a8.834,8.834,0,0,1,1.6,7.8c-.989,4.216-3.276,7.484-7.472,8.977-4.729,1.683-8.959-.914-9.83-5.848-.929-5.259,2.885-11.464,8.02-12.964a27.448,27.448,0,0,1,3.169-.533M37.29,98.073V96.785c0-2.606.017-5.212-.007-7.817a3.472,3.472,0,0,1,.97-2.58A11.236,11.236,0,0,0,41.4,78.612a23.266,23.266,0,0,1,4.042-12.921,26.836,26.836,0,0,0,4.4-16.512,1.213,1.213,0,0,0-.817-1.239A32.456,32.456,0,0,0,21.43,48a1.561,1.561,0,0,0-.755,1.111,26.3,26.3,0,0,0,4.313,16.519,23.333,23.333,0,0,1,4.077,13.021A9.462,9.462,0,0,0,31.3,85.187a7.491,7.491,0,0,1,1.891,6.025c-.109,1.865-.022,3.742-.022,5.614v1.247ZM56.967,68.845c-.012,1.959.236,3.32,1.62,4.114a3.536,3.536,0,0,0,3.928-.47,7.977,7.977,0,0,0,3.774-7.357c-.136-2.687-2.288-4-4.707-2.849a7.881,7.881,0,0,0-4.616,6.561m-43.483.706c-.01-3.4-2.395-6.767-5.346-7.544A2.909,2.909,0,0,0,4.374,64.09c-.905,2.937.928,7,3.873,8.593,2.912,1.57,5.247.174,5.237-3.131" transform="translate(0 -31.79)" fill="#1a1818" stroke="#fff" stroke-width="1"/>
    <path id="Path_14251" data-name="Path 14251" d="M26.877,6.551c-.559.621-.979,1.123-1.436,1.588a2.015,2.015,0,0,1-3.4-.418c-.826-1.506-1.587-3.05-2.319-4.6a2.082,2.082,0,0,1,.924-2.9A2.038,2.038,0,0,1,23.4,1.267c.3.531.576,1.081.937,1.762.5-.552.895-1.011,1.309-1.455a2.085,2.085,0,0,1,3.6.461q1.154,2.182,2.212,4.414a2.062,2.062,0,1,1-3.649,1.9c-.306-.535-.572-1.092-.94-1.8" transform="translate(-15.186)" fill="#ff6b18"/>
    <path id="Path_14252" data-name="Path 14252" d="M252.9,3.058c.415-.779.7-1.374,1.036-1.934a2,2,0,0,1,2.723-.872,2,2,0,0,1,.91,2.718c-.75,1.627-1.535,3.241-2.4,4.81a2.005,2.005,0,0,1-3.333.4c-.459-.464-.872-.974-1.436-1.609-.333.62-.61,1.145-.895,1.665a2.079,2.079,0,1,1-3.7-1.847c.7-1.448,1.412-2.893,2.164-4.316a2.092,2.092,0,0,1,3.671-.439c.389.424.764.86,1.26,1.419" transform="translate(-191.458 -0.008)" fill="#ff6b18"/>
    <path id="Path_14253" data-name="Path 14253" d="M133.321,85.953a2.066,2.066,0,0,0-2.154-1.193c-2.678.019-5.357.007-8.035.006s-5.357.015-8.035-.008a2.124,2.124,0,0,0-2.254,1.213,2.244,2.244,0,0,0,.584,2.507,32.733,32.733,0,0,1,7.587,17.375c.165,1.439.893,2.232,2.083,2.226s1.9-.8,2.064-2.246a32.667,32.667,0,0,1,7.6-17.369,2.228,2.228,0,0,0,.561-2.511" transform="translate(-87.856 -66.097)" fill="#509c8b"/>
  </g>
</svg>
