<svg xmlns="http://www.w3.org/2000/svg" width="73.632" height="76.671" viewBox="0 0 73.632 76.671">
  <g id="Group_9583" data-name="Group 9583" transform="translate(-390.497 -474)">
    <path id="Path_14372" data-name="Path 14372" d="M10390.724,4007.69c10.165,13.716,24.93,0,24.93,0l13.8,5.164,1.049,11.246h-55.993v-6.406s.564-4.437,1.533-4.841a21.374,21.374,0,0,0,3.389-2.663l8.229-2.017Z" transform="translate(-9975 -3474)" fill="#2c7243"/>
    <g id="Group_9581" data-name="Group 9581" transform="translate(88.254 19.328)">
      <path id="Path_14370" data-name="Path 14370" d="M148.265,113.85a17.853,17.853,0,0,0,11.192-13.936,1.464,1.464,0,1,0-2.886-.5c-3.149,18.331-32.58,17.369-32.58-3.394,0-3.4.032-3.383-.08-3.708a1.462,1.462,0,0,0-.865-.894,4.038,4.038,0,0,1-2.716-3.81c0-4.141-.136-7.769.6-10.62.9-3.48,2.521-3.48,3.13-3.48a1.464,1.464,0,0,0,1.39-1c3.532-10.647,16.376-4.661,28.741-7.993a7.2,7.2,0,0,1-1.307,2.8,1.465,1.465,0,0,0,1.082,2.348,8.056,8.056,0,0,0,6.161-2.334,6.6,6.6,0,0,1-1.661,5.974,1.464,1.464,0,0,0-.186,1.657,18.759,18.759,0,0,1,2.228,8.868v3.784a4.036,4.036,0,0,1-1.569,3.19c-4.747-7.15-19.665-.269-31.123-6.635a1.465,1.465,0,0,0-2.175,1.28,16.5,16.5,0,0,1-.115,2.078,1.464,1.464,0,0,0,2.9.368q.01-.079.019-.159c12.037,5.172,26.16-.689,28.49,5.566a1.464,1.464,0,0,0,1.86.869,6.966,6.966,0,0,0,4.636-6.558V83.827A21.725,21.725,0,0,0,161.3,74.44a9.266,9.266,0,0,0,.351-10.829,1.465,1.465,0,0,0-2.548.167,5.189,5.189,0,0,1-2.361,2.435,10.3,10.3,0,0,0,.539-3.823,1.465,1.465,0,0,0-1.971-1.3c-11.964,4.435-27.31-2.917-32.308,9.587-1.843.333-3.893,1.665-4.907,5.581-.85,3.281-.7,7.036-.7,11.354a6.97,6.97,0,0,0,3.66,6.126v2.287c0,14.825,13.136,21.457,24.382,18.731,1.168,6.355,6.733,7.944,11.694,9.357,6.109,1.74,9.854,3.115,9.854,9.206V136.2a1.464,1.464,0,0,0,2.928,0v-2.887C169.922,117.848,149.888,124.666,148.265,113.85Z" transform="translate(198.825 393.675)"/>
      <path id="Path_14371" data-name="Path 14371" d="M116.727,376.64a13.916,13.916,0,0,1-15.447-3.511,11.288,11.288,0,0,0,2.662-1.957,1.464,1.464,0,1,0-2.082-2.059c-5.11,5.169-19.824,2.47-19.824,15.576v2.887a1.464,1.464,0,0,0,2.928,0v-2.887c0-6.091,3.745-7.467,9.854-9.206,1.223-.348,2.461-.7,3.655-1.126a16.836,16.836,0,0,0,19.34,5,1.464,1.464,0,1,0-1.085-2.72Z" transform="translate(227.71 142.303)"/>
    </g>
    <path id="Path_14373" data-name="Path 14373" d="M287.033,100.722c1.443.016,2.154.5,2.537,1.438a1.881,1.881,0,0,1-.668,2.431,21.257,21.257,0,0,1-3.913,1.928,2.041,2.041,0,0,1-2.613-1.259,2.159,2.159,0,0,1,.974-2.758c1.311-.706,2.682-1.3,3.684-1.78" transform="translate(172.918 379.867)" fill="#ff6b18"/>
    <path id="Path_14376" data-name="Path 14376" d="M284.927,100.722c-1.443.016-2.154.5-2.537,1.438a1.881,1.881,0,0,0,.668,2.431,21.257,21.257,0,0,0,3.913,1.928,2.041,2.041,0,0,0,2.613-1.259,2.159,2.159,0,0,0-.974-2.758c-1.311-.706-2.682-1.3-3.684-1.78" transform="translate(109.748 379.867)" fill="#ff6b18"/>
    <path id="Path_14374" data-name="Path 14374" d="M282.271,197.128c-.02-1.987,1.509-3.064,3.076-2.465a23.371,23.371,0,0,1,3.3,1.616,2.118,2.118,0,0,1,.9,2.866,2.157,2.157,0,0,1-2.8,1.113,20.781,20.781,0,0,1-3.483-1.76,4.029,4.029,0,0,1-.985-1.37" transform="translate(172.867 308.466)" fill="#ff6b18"/>
    <path id="Path_14378" data-name="Path 14378" d="M289.785,197.128c.02-1.987-1.509-3.064-3.076-2.465a23.372,23.372,0,0,0-3.3,1.616,2.118,2.118,0,0,0-.9,2.866,2.157,2.157,0,0,0,2.8,1.113,20.782,20.782,0,0,0,3.483-1.76,4.029,4.029,0,0,0,.985-1.37" transform="translate(109.702 308.466)" fill="#ff6b18"/>
    <path id="Path_14375" data-name="Path 14375" d="M292.346,155.056a16.188,16.188,0,0,1-1.779-.011,2.1,2.1,0,0,1-1.951-2.15,2.047,2.047,0,0,1,1.885-2.2,24,24,0,0,1,3.674,0,2.124,2.124,0,0,1,1.918,2.188,2.176,2.176,0,0,1-1.968,2.153,15.613,15.613,0,0,1-1.778.012v0" transform="translate(168.036 341.868)" fill="#ff6b18"/>
    <path id="Path_14377" data-name="Path 14377" d="M292.363,155.056a16.188,16.188,0,0,0,1.779-.011,2.1,2.1,0,0,0,1.951-2.15,2.047,2.047,0,0,0-1.885-2.2,24,24,0,0,0-3.674,0,2.124,2.124,0,0,0-1.918,2.188,2.176,2.176,0,0,0,1.968,2.153,15.613,15.613,0,0,0,1.778.012v0" transform="translate(101.881 341.868)" fill="#ff6b18"/>
    <path id="Path_14380" data-name="Path 14380" d="M120.749,124.909c-1.607-1.33-3.312-2.54-5.079-3.878l-1.451,2.033,2.606,2.075-3.417.79.535,2.426c2.162-.436,4.183-.8,6.182-1.263a1.207,1.207,0,0,0,.624-2.183" transform="translate(303.737 385.626)" fill="#2c7243"/>
    <path id="Path_14381" data-name="Path 14381" d="M164.669,126.25a1.866,1.866,0,0,0,1.17.944c1.916.465,3.861.816,6.05,1.26l.478-2.419-3.34-.842,2.59-2.08-1.512-1.955c-1.734,1.3-3.4,2.5-4.992,3.8a1.477,1.477,0,0,0-.444,1.294" transform="translate(265.486 385.531)" fill="#2c7243"/>
  </g>
</svg>
