<svg xmlns="http://www.w3.org/2000/svg" width="76.339" height="77.345" viewBox="0 0 76.339 77.345">
  <g id="Group_9528" data-name="Group 9528" transform="translate(0.001 0.5)">
    <path id="Path_14254" data-name="Path 14254" d="M76.5,76.345q-6.561,0-13.122,0c-1.953,0-2.733-.766-2.753-2.74-.028-2.7.267-5.451-.806-8.013A37.174,37.174,0,0,0,56.7,59.2a37.06,37.06,0,0,1-6.26-23.51,36.612,36.612,0,0,1,6.592-19,18.822,18.822,0,0,0,3.6-11.649,24.731,24.731,0,0,1,.039-2.98,2.1,2.1,0,0,1,2.2-2.05q13.659-.02,27.318,0a2.106,2.106,0,0,1,2.178,2.076,25.971,25.971,0,0,1,.037,2.98,18.575,18.575,0,0,0,3.681,11.74c8.782,12.22,8.756,30.532.018,42.7a18.6,18.6,0,0,0-3.7,11.734c.036.953.039,1.911-.019,2.862a2.186,2.186,0,0,1-2.4,2.234c-4.493.012-8.987,0-13.48,0M65.253,4.56a1.694,1.694,0,0,0-.127.32,4.805,4.805,0,0,0-.032.594,22.9,22.9,0,0,1-4.307,13.647A32.567,32.567,0,0,0,54.954,35.4a32.046,32.046,0,0,0,5.487,21.253,25.273,25.273,0,0,1,4.2,9.655c.339,1.777.422,3.6.627,5.459H87.785a1.522,1.522,0,0,0,.119-.3,4.762,4.762,0,0,0,.032-.594,23.083,23.083,0,0,1,4.37-13.747,32.387,32.387,0,0,0,5.757-16.06,32.127,32.127,0,0,0-5.537-21.473,24.9,24.9,0,0,1-4.138-9.553c-.338-1.777-.422-3.6-.629-5.478Z" transform="translate(-38.346 0)" fill="#1a1818" stroke="#fff" stroke-width="1"/>
    <path id="Path_14255" data-name="Path 14255" d="M13.705,103.96c.012,1.977-1.525,3.044-3.088,2.437a24.829,24.829,0,0,1-3.3-1.619,2.2,2.2,0,0,1,1.809-3.993,21.564,21.564,0,0,1,3.7,1.857c.492.313.712,1.054.878,1.319" transform="translate(-4.714 -76.625)" fill="#ff6b18"/>
    <path id="Path_14256" data-name="Path 14256" d="M13.944,196.9a7.443,7.443,0,0,1-1.4,1.741,18.79,18.79,0,0,1-3.167,1.6A2.212,2.212,0,0,1,6.446,199.2a2.156,2.156,0,0,1,.961-2.944,28.726,28.726,0,0,1,3.084-1.516,2.481,2.481,0,0,1,3.452,2.161" transform="translate(-4.717 -148.117)" fill="#ff6b18"/>
    <path id="Path_14257" data-name="Path 14257" d="M287.033,100.722c1.443.016,2.154.5,2.537,1.438a1.881,1.881,0,0,1-.668,2.431,21.257,21.257,0,0,1-3.913,1.928,2.041,2.041,0,0,1-2.613-1.259,2.159,2.159,0,0,1,.974-2.758c1.311-.706,2.682-1.3,3.684-1.78" transform="translate(-214.872 -76.69)" fill="#ff6b18"/>
    <path id="Path_14258" data-name="Path 14258" d="M282.271,197.128c-.02-1.987,1.509-3.064,3.076-2.465a23.371,23.371,0,0,1,3.3,1.616,2.118,2.118,0,0,1,.9,2.866,2.157,2.157,0,0,1-2.8,1.113,20.781,20.781,0,0,1-3.483-1.76,4.029,4.029,0,0,1-.985-1.37" transform="translate(-214.923 -148.091)" fill="#ff6b18"/>
    <path id="Path_14259" data-name="Path 14259" d="M3.694,155.069a14.433,14.433,0,0,1-1.778-.013A2.172,2.172,0,0,1,0,152.858a2.1,2.1,0,0,1,1.851-2.123,24.107,24.107,0,0,1,3.791,0,2.014,2.014,0,0,1,1.833,2.12,2.077,2.077,0,0,1-1.885,2.2,15.7,15.7,0,0,1-1.9.013" transform="translate(0 -114.712)" fill="#ff6b18"/>
    <path id="Path_14260" data-name="Path 14260" d="M292.346,155.056a16.188,16.188,0,0,1-1.779-.011,2.1,2.1,0,0,1-1.951-2.15,2.047,2.047,0,0,1,1.885-2.2,24,24,0,0,1,3.674,0,2.124,2.124,0,0,1,1.918,2.188,2.176,2.176,0,0,1-1.968,2.153,15.613,15.613,0,0,1-1.778.012v0" transform="translate(-219.754 -114.689)" fill="#ff6b18"/>
    <path id="Path_14261" data-name="Path 14261" d="M148.381,127.067a49.59,49.59,0,0,1-2.1-5.77,69.387,69.387,0,0,1,.118-32.516,39.589,39.589,0,0,1,2.032-5.2l.566,0a25.622,25.622,0,0,1,1.3,2.39,39.843,39.843,0,0,1,2.661,12.884c.514,7.685.4,15.359-1.646,22.861a53.479,53.479,0,0,1-2.063,5.344l-.863.009" transform="translate(-110.664 -67.145)" fill="#5ba273" stroke="#5ba273" stroke-width="1"/>
    <path id="Path_14262" data-name="Path 14262" d="M186.815,94.1c5.363,4.773,7.364,11.034,7.535,17.927.186,7.479-1.778,14.268-7.509,19.564a83.355,83.355,0,0,0-.026-37.49" transform="translate(-141.01 -74.672)" fill="#5ba273" stroke="#5ba273" stroke-width="1"/>
    <path id="Path_14263" data-name="Path 14263" d="M114.144,131.6c-5.462-4.915-7.458-11.319-7.537-18.374-.081-7.32,1.881-13.969,7.533-19.111a83.229,83.229,0,0,0,0,37.485" transform="translate(-83.619 -74.684)" fill="#5ba273" stroke="#5ba273" stroke-width="1"/>
  </g>
</svg>
