<svg xmlns="http://www.w3.org/2000/svg" width="74" height="74" viewBox="0 0 74 74">
  <g id="Group_494" data-name="Group 494" transform="translate(-830 -27)">
    <rect id="Rectangle_144" data-name="Rectangle 144" width="74" height="74" rx="37" transform="translate(830 27)" fill="#ff6b18" opacity="0.91"/>
    <path id="Path_373" data-name="Path 373" d="M17.573,27.749a21.706,21.706,0,0,1-6.783-3.56A22.106,22.106,0,0,1,2.253,10.671a13.657,13.657,0,0,1-.2-1.615c-.046-.667.2-.917.882-.868A18.275,18.275,0,0,1,9.137,9.8q.278.125.562.237a.419.419,0,0,0,.137,0c.068-1.212.1-2.424.215-3.627a16.591,16.591,0,0,1,.418-2.262c.17-.71.472-.845,1.138-.562A18.28,18.28,0,0,1,16.7,6.9l.575.518c.1-.256.184-.45.253-.65A19.513,19.513,0,0,1,20.952.563c.622-.746.941-.75,1.554-.015a19.4,19.4,0,0,1,3.428,6.2c.065.19.134.379.237.669.23-.2.41-.351.585-.509a18.532,18.532,0,0,1,5.031-3.3c.748-.327,1.1-.209,1.215.589.246,1.694.389,3.4.566,5.107.025.238,0,.48,0,.754,1.075-.4,2.067-.841,3.1-1.124a30.184,30.184,0,0,1,3.582-.723c1.036-.152,1.256.131,1.142,1.169A20.726,20.726,0,0,1,36.324,20.73a22.639,22.639,0,0,1-10,6.878.379.379,0,0,0-.229.163,16.682,16.682,0,0,0,8.868-1.637A16.1,16.1,0,0,0,41.9,20.163c-.528-.142-.971-.268-1.417-.379-.419-.1-.742-.309-.636-.79s.511-.551.915-.451c.679.167,1.358.35,2.018.58.766.267.86.572.457,1.273a16.41,16.41,0,0,1-6.589,6.3,18.364,18.364,0,0,1-13.832,1.874c-1.277-.335-2.461.126-3.675.345-6.983,1.261-15.23-2.2-18.84-8.394-.5-.854-.413-1.138.505-1.447.641-.216,1.3-.385,1.959-.541.386-.091.751,0,.854.446s-.164.673-.561.78c-.453.122-.908.239-1.364.358,1.262,4.127,10.732,8.734,15.879,7.629m4.1-3.877c.114-.114.16-.139.171-.175a23.14,23.14,0,0,1,10-12.6.752.752,0,0,0,.341-.452,16.438,16.438,0,0,0-.3-5.653,4.388,4.388,0,0,0-.7.34C29.781,6.356,28.4,7.4,27,8.432a1,1,0,0,0-.343,1.135c.157.866.27,1.741.383,2.615.055.425.036.868-.524.924-.586.059-.683-.352-.728-.831A20.381,20.381,0,0,0,23.736,4.8c-.558-1.089-1.252-2.108-1.94-3.251-.329.44-.542.7-.731.981a20.8,20.8,0,0,0-3.442,12.478,3.828,3.828,0,0,0,.8,2.425,20.478,20.478,0,0,1,3.257,6.441M3.354,9.569a20.662,20.662,0,0,0,7.913,13.365,18.616,18.616,0,0,0,9.743,4.2c-1.078-9.352-10-17-17.657-17.569m19.1,17.6A20.03,20.03,0,0,0,34.6,20.733,19.578,19.578,0,0,0,40.086,9.568c-7.723.6-16.574,8.308-17.632,17.6M11.577,4.971a16.659,16.659,0,0,0-.3,5.629c.023.2.245.4.423.543,1.359,1.082,2.729,2.149,4.1,3.221l.373.295c.226-1.8.454-3.571.661-5.34a.855.855,0,0,0-.117-.613,17.246,17.246,0,0,0-5.139-3.734" transform="translate(845.5 49.5)" fill="#fff" stroke="#fff" stroke-width="1.2"/>
  </g>
</svg>
