<svg xmlns="http://www.w3.org/2000/svg" width="65.178" height="73.92" viewBox="0 0 65.178 73.92"><g transform="translate(-862.099 -697.5)"><g transform="translate(831.909 698)"><path d="M87.33,33.379H85.117V22.744a25.479,25.479,0,0,0,2.254-2A24.9,24.9,0,0,0,94.71,3.024V1.068A1.068,1.068,0,0,0,93.642,0H85.6a1.068,1.068,0,0,0,0,2.136h6.979v.887a22.772,22.772,0,0,1-6.714,16.209,22.772,22.772,0,0,1-16.209,6.713A13.7,13.7,0,0,1,55.968,12.264c0-.018,0-.035,0-.052A9.6,9.6,0,0,1,65.559,2.136H81.322a1.068,1.068,0,0,0,0-2.136H65.559A11.764,11.764,0,0,0,54.628,7.443a11.262,11.262,0,0,0-8.207-3.519H44.55A11.342,11.342,0,0,0,33.222,15.253v.078A11.345,11.345,0,0,0,40.44,25.885v7.495H38.228a7.538,7.538,0,0,0,0,15.077H40.44v2.122c0,.392.01.776.028,1.143a1.068,1.068,0,0,0,1.066,1.013h.056A1.068,1.068,0,0,0,42.6,51.612c-.017-.331-.026-.678-.026-1.033V26.484a11.342,11.342,0,0,0,1.974.176h1.87a11.268,11.268,0,0,0,9.925-5.849,15.821,15.821,0,0,0,13.306,7.271A24.9,24.9,0,0,0,82.98,24.253V50.578A20.2,20.2,0,0,1,43.2,55.569a1.068,1.068,0,0,0-2.071.526,22.341,22.341,0,0,0,43.99-5.517V48.456H87.33a7.538,7.538,0,1,0,0-15.077Zm-49.1,12.94a5.4,5.4,0,0,1,0-10.8H40.44v10.8H38.228Zm8.192-21.8H44.55a9.2,9.2,0,0,1-9.192-9.192v-.078A9.2,9.2,0,0,1,44.55,6.06h1.87a9.139,9.139,0,0,1,7.527,3.922,11.91,11.91,0,0,0-.116,2.307,15.727,15.727,0,0,0,1.249,6.133A9.144,9.144,0,0,1,46.421,24.523ZM91.149,44.737A5.366,5.366,0,0,1,87.33,46.32H85.117v-10.8H87.33a5.4,5.4,0,0,1,3.819,9.221Z" stroke="#000" stroke-width="1"/><path d="M191.458,334.975a1.068,1.068,0,0,0,1.068,1.068h8.142a10.06,10.06,0,0,1,7.142,2.966,1.068,1.068,0,0,0,1.511-1.511,12.185,12.185,0,0,0-8.651-3.591h-8.144a1.068,1.068,0,0,0-1.068,1.068Z" transform="translate(-141.871 -286.351)" stroke="#000" stroke-width="1"/><path d="M211.67,230.741v-5.009a1.068,1.068,0,0,0-2.136,0v5.009a1.068,1.068,0,1,0,2.136,0Z" transform="translate(-153.373 -192.667)" stroke="#000" stroke-width="1"/><path d="M293.087,262.773l-3.945-2.751a1.068,1.068,0,1,0-1.222,1.752l3.945,2.751a1.068,1.068,0,1,0,1.222-1.752Z" transform="translate(-220.203 -222.824)" stroke="#000" stroke-width="1"/><path d="M303.566,357.267a1.068,1.068,0,0,0-1.068,1.068,5.284,5.284,0,0,1-5.278,5.278,1.068,1.068,0,1,0,0,2.136,7.423,7.423,0,0,0,7.415-7.415A1.068,1.068,0,0,0,303.566,357.267Z" transform="translate(-231.653 -306.384)" stroke="#000" stroke-width="1"/><path d="M309.765,382.485a1.068,1.068,0,0,0,1.068,1.068,9.437,9.437,0,0,0,9.427-9.427,1.068,1.068,0,1,0-2.136,0,7.3,7.3,0,0,1-7.29,7.29A1.068,1.068,0,0,0,309.765,382.485Z" transform="translate(-243.329 -319.926)" stroke="#000" stroke-width="1"/></g><path d="M180.7,211.922a1.274,1.274,0,0,1-1.292,1.388,1.192,1.192,0,0,1-1.2-1.247,1.252,1.252,0,0,1,1.286-1.28,1.236,1.236,0,0,1,1.21,1.139" transform="translate(631.643 900.34) rotate(-82)" fill="#ff6b18"/><path d="M182.319,212.662a2.1,2.1,0,0,1-2.128,2.286,1.963,1.963,0,0,1-1.982-2.053,2.062,2.062,0,0,1,2.117-2.108,2.035,2.035,0,0,1,1.993,1.875" transform="translate(638.341 916.413) rotate(-82)" fill="#ff6b18"/><path d="M182.7,212.836a2.291,2.291,0,0,1-2.324,2.5,2.144,2.144,0,0,1-2.165-2.243,2.252,2.252,0,0,1,2.312-2.3,2.222,2.222,0,0,1,2.177,2.048" transform="translate(630.501 909.707) rotate(-82)" fill="#ff6b18"/></g></svg>