<svg xmlns="http://www.w3.org/2000/svg" width="82.202" height="83.097" viewBox="0 0 82.202 83.097">
  <g id="Group_9641" data-name="Group 9641" transform="translate(-605.673 -83.632)">
    <g id="Group_9640" data-name="Group 9640" transform="translate(602.961 83.792)">
      <path id="Path_14456" data-name="Path 14456" d="M70.525,12.042a1.179,1.179,0,0,0-1.178-1.152H24.729a1.179,1.179,0,0,0-1.178,1.152c-.17,6.746-2.723,11.016-5.424,15.535-3.016,5.046-6.138,10.263-6.087,19.086.22,2.3-.707,6.289,2.651,19.026a60.361,60.361,0,0,1,2.488,15.6,1.178,1.178,0,0,0,1.178,1.15h24.8a1.178,1.178,0,0,0,1.179-1.179v-24.4a15.572,15.572,0,0,0,2.7-3.322,15.614,15.614,0,0,0,2.7,3.325v24.4a1.179,1.179,0,0,0,1.179,1.179h24.8a1.178,1.178,0,0,0,1.178-1.15,60.261,60.261,0,0,1,2.492-15.594c3.274-12.416,2.484-17.451,2.65-19.231,0-8.7-3.094-13.876-6.087-18.885-2.7-4.52-5.256-8.79-5.427-15.535Zm6.582,53.052a63.945,63.945,0,0,0-2.529,14.988H52.1V58.635a15.149,15.149,0,0,0,8.352,2.112,1.179,1.179,0,0,0,1.153-1.2,1.2,1.2,0,0,0-1.2-1.153,12.545,12.545,0,0,1-12.182-7.723V38.3a1.179,1.179,0,1,0-2.357,0V50.67a12.553,12.553,0,0,1-12.179,7.72,1.179,1.179,0,0,0-.051,2.357,15.155,15.155,0,0,0,8.352-2.112V80.079H19.5A63.914,63.914,0,0,0,16.97,65.087C13.8,53.082,14.526,48,14.4,46.657c-.047-8.17,2.77-12.883,5.753-17.872,2.595-4.338,5.272-8.818,5.706-15.537H68.22c.434,6.719,3.112,11.2,5.706,15.538,2.958,4.951,5.753,9.626,5.753,17.676-.213,2.281.664,6.36-2.572,18.63Z" transform="translate(0 0)" fill="#1a1818" stroke="#1a1818" stroke-width="1"/>
      <path id="Path_14433" data-name="Path 14433" d="M14.218,8.335c.028,6.083-3.362,10.515-7.358,10.109C2.617,18.011.187,14.856.006,9.363-.162,4.306,3.516-.495,7.326.041c4.124.579,6.554,3.725,6.892,8.294" transform="matrix(0.174, -0.985, 0.985, 0.174, 50.017, 52.671)" fill="#5ba273"/>
      <path id="Path_14457" data-name="Path 14457" d="M9.021,6.43C9.038,2.571,6.888-.241,4.352.016,1.66.291.119,2.293,0,5.778-.1,8.986,2.231,12.032,4.648,11.692c2.616-.367,4.158-2.363,4.373-5.262" transform="matrix(-0.174, -0.985, 0.985, -0.174, 30.376, 55.543)" fill="#5ba273"/>
    </g>
    <path id="Path_14270" data-name="Path 14270" d="M180.7,211.922a1.274,1.274,0,0,1-1.292,1.388,1.192,1.192,0,0,1-1.2-1.247,1.252,1.252,0,0,1,1.286-1.28,1.236,1.236,0,0,1,1.21,1.139" transform="matrix(0.998, -0.07, 0.07, 0.998, 488.053, -114.026)" fill="#ff6b18"/>
    <path id="Path_14237" data-name="Path 14237" d="M122.82,141.653a3.9,3.9,0,0,1-3.871-4.327,3.656,3.656,0,0,1,4.1-3.707c2.42.045,3.8,1.546,3.952,3.943a4.041,4.041,0,0,1-4.185,4.091" transform="matrix(0.998, -0.07, 0.07, 0.998, 551.29, -33.342)" fill="#ff6b18"/>
    <path id="Path_14240" data-name="Path 14240" d="M180.7,211.922a1.274,1.274,0,0,1-1.292,1.388,1.192,1.192,0,0,1-1.2-1.247,1.252,1.252,0,0,1,1.286-1.28,1.236,1.236,0,0,1,1.21,1.139" transform="matrix(0.998, -0.07, 0.07, 0.998, 415.393, -51.023)" fill="#ff6b18"/>
    <path id="Path_14267" data-name="Path 14267" d="M182.319,212.662a2.1,2.1,0,0,1-2.128,2.286,1.963,1.963,0,0,1-1.982-2.053,2.062,2.062,0,0,1,2.117-2.108,2.035,2.035,0,0,1,1.993,1.875" transform="matrix(0.998, -0.07, 0.07, 0.998, 413.196, -35.77)" fill="#ff6b18"/>
    <path id="Path_14269" data-name="Path 14269" d="M181.2,212.15a1.527,1.527,0,0,1-1.549,1.664,1.43,1.43,0,0,1-1.443-1.5,1.5,1.5,0,0,1,1.541-1.535,1.482,1.482,0,0,1,1.451,1.365" transform="matrix(0.998, -0.07, 0.07, 0.998, 490.18, -93.993)" fill="#ff6b18"/>
    <path id="Path_14268" data-name="Path 14268" d="M182.7,212.836a2.291,2.291,0,0,1-2.324,2.5,2.144,2.144,0,0,1-2.165-2.243,2.252,2.252,0,0,1,2.312-2.3,2.222,2.222,0,0,1,2.177,2.048" transform="matrix(0.998, -0.07, 0.07, 0.998, 416.726, -43.713)" fill="#ff6b18"/>
  </g>
</svg>
