<svg xmlns="http://www.w3.org/2000/svg" width="65.304" height="74.997" viewBox="0 0 65.304 74.997"><g transform="translate(-584.74 -453.564)"><g transform="translate(585 453.812)"><g transform="translate(0 0)"><path d="M38.228,65.09c.344,2.152.759,4.268,1,6.4s-.612,2.991-2.776,2.991c-8.336,0-16.672-.011-25.008.015a2.558,2.558,0,0,1-2.4-1.1c-2.212-3.458-4.629-6.809-6.559-10.419A22.368,22.368,0,0,1,5.271,38.353a17.264,17.264,0,0,0,3.867-6.411A11.817,11.817,0,0,0,8.221,22.7,17.79,17.79,0,0,1,7.053,7.035c.608-1.63,1.066-3.316,1.606-4.971A2.449,2.449,0,0,1,11.464.013c4.032,0,8.065-.042,12.1.036a3.506,3.506,0,0,1,2.176.81A27.7,27.7,0,0,0,37.15,7.322,8.733,8.733,0,0,1,42.9,19.331a1.665,1.665,0,0,0-.062.367c9.636,5.284,14.846,13.263,13.677,24.4s-7.9,17.863-18.288,20.995m-3.472,5.017A15.361,15.361,0,0,0,27.5,59.1a16.314,16.314,0,0,0-7.959-2.257A2.068,2.068,0,0,1,17.5,54.6a2.1,2.1,0,0,1,2.238-2.042,17.77,17.77,0,0,1,3.01.217,19.3,19.3,0,0,1,12.356,7.406,1.447,1.447,0,0,0,1.66.637,18.553,18.553,0,0,0,8.142-3.779,18.922,18.922,0,0,0,7.243-18.126c-.984-7.284-5.067-12.424-11.819-15.37a2.22,2.22,0,0,0-1.6.078c-1.625.728-3.188,1.59-4.794,2.362a2.216,2.216,0,0,1-3.114-.842,2.254,2.254,0,0,1,1.236-3.068c1.552-.794,3.119-1.557,4.673-2.347a4.309,4.309,0,0,0,2.393-2.839,4.233,4.233,0,0,0-3-5.277A32.079,32.079,0,0,1,23.576,4.781a1.683,1.683,0,0,0-1.044-.373q-4.653-.043-9.306.007a1.1,1.1,0,0,0-.854.512c-.727,2.2-1.5,4.4-2.032,6.659a12.039,12.039,0,0,0,1.57,8.722,16.55,16.55,0,0,1,1.605,12.153c-.787,3.339-2.705,6.006-4.825,8.633-4.662,5.78-5.68,12.278-2.674,19.065,1.413,3.19,3.646,6.015,5.462,9.032a1.8,1.8,0,0,0,1.792.935c6.708-.032,13.417-.018,20.125-.018Z" transform="translate(0 0)" fill="#1a1818" stroke="#fff" stroke-width="0.5"/><path d="M127.47,148.236a5.368,5.368,0,0,0-8.376-.688c-.165-.134-.3-.234-.42-.341a5.321,5.321,0,0,0-8.68,2.574,6.38,6.38,0,0,0,1.779,6.628c1.987,2,4.15,3.827,6.269,5.692a1.568,1.568,0,0,0,2.271-.127c1.324-1.12,2.683-2.205,3.942-3.395a26.931,26.931,0,0,0,3.01-3.254,6.242,6.242,0,0,0,.2-7.089" transform="translate(-84.165 -111.905)" fill="#2c7243"/></g></g><path d="M180.7,211.922a1.274,1.274,0,0,1-1.292,1.388,1.192,1.192,0,0,1-1.2-1.247,1.252,1.252,0,0,1,1.286-1.28,1.236,1.236,0,0,1,1.21,1.139" transform="translate(458.186 247.723)" fill="#ff6b18"/><path d="M180.7,211.922a1.274,1.274,0,0,1-1.292,1.388,1.192,1.192,0,0,1-1.2-1.247,1.252,1.252,0,0,1,1.286-1.28,1.236,1.236,0,0,1,1.21,1.139" transform="translate(463.471 267.723)" fill="#ff6b18"/><path d="M122.82,141.653a3.9,3.9,0,0,1-3.871-4.327,3.656,3.656,0,0,1,4.1-3.707c2.42.045,3.8,1.546,3.952,3.943a4.041,4.041,0,0,1-4.185,4.091" transform="translate(514.666 331.623)" fill="#ff6b18"/><path d="M182.7,212.836a2.291,2.291,0,0,1-2.324,2.5,2.144,2.144,0,0,1-2.165-2.243,2.252,2.252,0,0,1,2.312-2.3,2.222,2.222,0,0,1,2.177,2.048" transform="translate(467.346 281.231)" fill="#ff6b18"/></g></svg>