<svg xmlns="http://www.w3.org/2000/svg" width="90.926" height="61.546" viewBox="0 0 90.926 61.546"><g transform="translate(-135.075 -700.142)"><g transform="translate(149.765 700.142)"><path d="M127.546,95.53a11.226,11.226,0,0,0-6.071-9.963,9.833,9.833,0,0,0-1.679-7.409,10.235,10.235,0,0,0-6.706-4.23,8.589,8.589,0,0,0-2.247-5,9.118,9.118,0,0,0-14.07.831,9.118,9.118,0,0,0-14.07-.831,8.589,8.589,0,0,0-2.247,5,10.236,10.236,0,0,0-6.706,4.23,9.833,9.833,0,0,0-1.679,7.409,11.2,11.2,0,0,0-1.258,19.154,9.574,9.574,0,0,0-.65,9.11,10.275,10.275,0,0,0,9.4,6.241q.474,0,.954-.043a8.721,8.721,0,0,0,2.17,4.569,9.118,9.118,0,0,0,14.091-.808,9.118,9.118,0,0,0,14.091.808,8.718,8.718,0,0,0,2.17-4.569q.478.043.953.043h0a10.276,10.276,0,0,0,9.4-6.242,9.572,9.572,0,0,0-.651-9.109A11.169,11.169,0,0,0,127.546,95.53ZM95.154,118.775h0a5.65,5.65,0,0,1-5.749,5.533,5.843,5.843,0,0,1-4.325-1.889,5.387,5.387,0,0,1-1.4-3.144,6.918,6.918,0,0,0,4.241-4.629c.476-1.252.714-1.88,2.07-2.244a1.62,1.62,0,1,0-.838-3.129,5.841,5.841,0,0,0-4.26,4.222,3.921,3.921,0,0,1-3.243,3.044l-.006,0h-.005a7.848,7.848,0,0,1-2.08.291,7.037,7.037,0,0,1-6.424-4.291,6.476,6.476,0,0,1,1.265-7.181,1.619,1.619,0,0,0-.485-2.568A7.99,7.99,0,0,1,74.548,88a1.62,1.62,0,0,0,.959-2.026,6.613,6.613,0,0,1,.894-5.949,7.085,7.085,0,0,1,5.688-3c2.755.006,3.363,1.106,4.2,2.626.765,1.385,1.814,3.282,4.632,3.282a1.62,1.62,0,1,0,0-3.239c-.835,0-1.053-.264-1.8-1.61a6.971,6.971,0,0,0-5.4-4.176,5.406,5.406,0,0,1,1.366-2.787A5.846,5.846,0,0,1,89.4,69.24a5.65,5.65,0,0,1,5.749,5.533V96.68c-3.8-.37-4.753-2.108-5.918-4.246-1.14-2.092-2.558-4.7-6.821-5.146a1.62,1.62,0,0,0-.341,3.221c2.572.272,3.267,1.546,4.317,3.475a19.782,19.782,0,0,0,1.3,2.157,13.827,13.827,0,0,1-3.6,2.49,1.62,1.62,0,1,0,1.439,2.9,16.756,16.756,0,0,0,4.5-3.148,10.976,10.976,0,0,0,5.127,1.543Zm24.478-15.982a1.619,1.619,0,0,0-.485,2.568,6.476,6.476,0,0,1,1.266,7.18,7.038,7.038,0,0,1-6.424,4.292h0a7.844,7.844,0,0,1-2.079-.291H111.9l-.005,0a3.92,3.92,0,0,1-3.243-3.044,5.84,5.84,0,0,0-4.26-4.222,1.62,1.62,0,0,0-.838,3.129c1.355.363,1.594.992,2.07,2.244a6.918,6.918,0,0,0,4.241,4.629,5.384,5.384,0,0,1-1.4,3.144,5.843,5.843,0,0,1-4.325,1.889,5.65,5.65,0,0,1-5.749-5.533V107.181c0-2.912,1.537-4.361,2.972-4.746a4.293,4.293,0,0,1,4.755,2.366,1.62,1.62,0,1,0,2.805-1.62,7.532,7.532,0,0,0-8.4-3.875,6.759,6.759,0,0,0-2.134.993V89.852a6.82,6.82,0,0,1,5.676,3.063,9.931,9.931,0,0,0,5.053,3.739,1.62,1.62,0,0,0,.982-3.087,6.845,6.845,0,0,1-3.528-2.7c-1.5-1.837-3.188-3.9-8.183-4.258V74.773a5.65,5.65,0,0,1,5.749-5.533,5.846,5.846,0,0,1,4.312,1.874,5.409,5.409,0,0,1,1.366,2.787,6.971,6.971,0,0,0-5.4,4.176c-.744,1.346-.962,1.61-1.8,1.61a1.62,1.62,0,1,0,0,3.239c2.818,0,3.867-1.9,4.632-3.282.84-1.52,1.448-2.62,4.2-2.626a7.084,7.084,0,0,1,5.688,3,6.612,6.612,0,0,1,.893,5.948A1.62,1.62,0,0,0,119,88a7.99,7.99,0,0,1,.633,14.8Z" transform="translate(-66 -66.001)"/></g><g transform="translate(196.342 728.222)"><path d="M356.746,239.374h-.04a3.128,3.128,0,0,0,0,6.256h.04a3.128,3.128,0,0,0,0-6.256Z" transform="translate(-351.578 -241.374)" fill="#5ba273"/></g><g transform="translate(162.62 734.128)"><path d="M150.952,278.089a2.8,2.8,0,0,0-3.29-2.194l-.119.025a2.8,2.8,0,1,0,3.409,2.168Z" transform="translate(-147.559 -269.84)" fill="#5ba273"/></g><g transform="translate(141.413 709.374)"><path d="M38.191,124.835l-2.806-1.62a1.62,1.62,0,0,0-1.62,2.805l2.806,1.62a1.62,1.62,0,0,0,1.62-2.805Z" transform="translate(-32.955 -122.998)" fill="#ff6b18" stroke="#ff6b18" stroke-width="2"/></g><g transform="translate(136.075 729.295)"><path d="M4.859,246H1.62a1.62,1.62,0,0,0,0,3.239H4.859a1.62,1.62,0,0,0,0-3.239Z" transform="translate(0 -246.001)" fill="#ff6b18" stroke="#ff6b18" stroke-width="2"/></g><g transform="translate(141.413 747.597)"><path d="M38.783,359.811a1.62,1.62,0,0,0-2.212-.593l-2.806,1.62a1.62,1.62,0,1,0,1.62,2.805l2.806-1.62A1.619,1.619,0,0,0,38.783,359.811Z" transform="translate(-32.955 -359.001)" fill="#ff6b18" stroke="#ff6b18" stroke-width="2"/></g><g transform="translate(213.618 747.597)"><path d="M446.956,360.837l-2.805-1.62a1.62,1.62,0,1,0-1.62,2.805l2.805,1.62a1.62,1.62,0,1,0,1.62-2.805Z" transform="translate(-441.721 -359)" fill="#ff6b18" stroke="#ff6b18" stroke-width="2"/></g><g transform="translate(218.522 729.295)"><path d="M476.861,246h-3.239a1.62,1.62,0,0,0,0,3.239h3.239a1.62,1.62,0,1,0,0-3.239Z" transform="translate(-472.002 -246.001)" fill="#ff6b18" stroke="#ff6b18" stroke-width="2"/></g><g transform="translate(213.618 709.374)"><path d="M447.548,123.809a1.62,1.62,0,0,0-2.212-.593l-2.805,1.62a1.62,1.62,0,1,0,1.62,2.805l2.805-1.62A1.62,1.62,0,0,0,447.548,123.809Z" transform="translate(-441.72 -122.998)" fill="#ff6b18" stroke="#ff6b18" stroke-width="2"/></g></g></svg>