<svg xmlns="http://www.w3.org/2000/svg" width="77.116" height="65.028" viewBox="0 0 77.116 65.028"><g transform="translate(-616.752 -287.431)"><g transform="translate(618 287.481)"><path d="M-10586.827-3718.54a20.852,20.852,0,0,1-3.7-24.665,2.352,2.352,0,0,1,3.186-.976,2.358,2.358,0,0,1,.976,3.186,16.17,16.17,0,0,0,2.869,19.123,16.277,16.277,0,0,0,23,0,16.277,16.277,0,0,0,0-22.995,16.175,16.175,0,0,0-22.651-.338,2.354,2.354,0,0,1-3.329-.1,2.354,2.354,0,0,1,.1-3.329,20.852,20.852,0,0,1,27.46-1.142l5.994-5.995h-5.441a2.355,2.355,0,0,1-2.355-2.356,2.355,2.355,0,0,1,2.355-2.356h11.055a2.35,2.35,0,0,1,1.74.689,2.367,2.367,0,0,1,.348.443l0,.007.021.037.011.019.015.026c.006.01.012.021.017.032a.085.085,0,0,1,.007.013,2.334,2.334,0,0,1,.269,1.091v11.13a2.359,2.359,0,0,1-2.356,2.356,2.355,2.355,0,0,1-2.355-2.356v-5.446l-6,6a21,21,0,0,1-1.571,27.9,20.932,20.932,0,0,1-14.831,6.132A20.911,20.911,0,0,1-10586.827-3718.54Z" transform="translate(10618.499 3760.481)" fill="#5ba273" stroke="#5ba273" stroke-width="0.1"/><path d="M-10574.38-3704.5v-4.567h-5.137a2.357,2.357,0,0,1-2.355-2.355,2.357,2.357,0,0,1,2.355-2.358h5.137v-4.885a21,21,0,0,1-18.62-20.841,21,21,0,0,1,20.976-20.973,21,21,0,0,1,20.97,20.973,21.055,21.055,0,0,1-2.355,9.669,2.357,2.357,0,0,1-3.18,1.005,2.356,2.356,0,0,1-1-3.18,16.088,16.088,0,0,0,1.823-7.494,16.279,16.279,0,0,0-16.257-16.262,16.281,16.281,0,0,0-16.265,16.262,16.28,16.28,0,0,0,16.263,16.259,16.188,16.188,0,0,0,11.149-4.427,2.352,2.352,0,0,1,3.331.1,2.353,2.353,0,0,1-.1,3.328,20.877,20.877,0,0,1-12.026,5.582v4.885h5.128a2.355,2.355,0,0,1,2.355,2.358,2.354,2.354,0,0,1-2.353,2.355h-5.131v4.57a2.359,2.359,0,0,1-2.355,2.355A2.355,2.355,0,0,1-10574.38-3704.5Z" transform="translate(10593 3766.621)" stroke="#fff" stroke-width="1"/></g><path d="M180.7,211.922a1.274,1.274,0,0,1-1.292,1.388,1.192,1.192,0,0,1-1.2-1.247,1.252,1.252,0,0,1,1.286-1.28,1.236,1.236,0,0,1,1.21,1.139" transform="translate(510.127 100.56)" fill="#ff6b18"/><path d="M122.82,141.653a3.9,3.9,0,0,1-3.871-4.327,3.656,3.656,0,0,1,4.1-3.707c2.42.045,3.8,1.546,3.952,3.943a4.041,4.041,0,0,1-4.185,4.091" transform="translate(566.855 187.368)" fill="#ff6b18"/><path d="M181.2,212.15a1.527,1.527,0,0,1-1.549,1.664,1.43,1.43,0,0,1-1.443-1.5,1.5,1.5,0,0,1,1.541-1.535,1.482,1.482,0,0,1,1.451,1.365" transform="translate(504.592 120.693)" fill="#ff6b18"/><path d="M180.7,211.922a1.274,1.274,0,0,1-1.292,1.388,1.192,1.192,0,0,1-1.2-1.247,1.252,1.252,0,0,1,1.286-1.28,1.236,1.236,0,0,1,1.21,1.139" transform="translate(438.545 118.245)" fill="#ff6b18"/><path d="M182.319,212.662a2.1,2.1,0,0,1-2.128,2.286,1.963,1.963,0,0,1-1.982-2.053,2.062,2.062,0,0,1,2.117-2.108,2.035,2.035,0,0,1,1.993,1.875" transform="translate(449.184 137.006)" fill="#ff6b18"/><path d="M182.7,212.836a2.291,2.291,0,0,1-2.324,2.5,2.144,2.144,0,0,1-2.165-2.243,2.252,2.252,0,0,1,2.312-2.3,2.222,2.222,0,0,1,2.177,2.048" transform="translate(445.295 124.213)" fill="#ff6b18"/></g></svg>