<svg xmlns="http://www.w3.org/2000/svg" width="78.206" height="78.639" viewBox="0 0 78.206 78.639">
  <g id="Group_9519" data-name="Group 9519" transform="translate(-0.001 0)">
    <path id="Path_14234" data-name="Path 14234" d="M14.7,37.7q-3.431-3.379-6.861-6.76-2.869-2.844-5.711-5.716c-3.317-3.366-2.7-7.557,1.418-9.818.1-.057.2-.135.386-.267-1.164-1.525-2.1-3.2-1.536-5.148A8.1,8.1,0,0,1,4.148,6.731c2.028-2.126,4.5-2.04,8.107-.014,2.083-3.82,5.3-4.76,9.083-2.818A19.439,19.439,0,0,1,23.21,1.523a5.532,5.532,0,0,1,7.663.037c2.353,2.2,4.587,4.533,6.864,6.816a1.533,1.533,0,0,1,.168,2.288,1.566,1.566,0,0,1-2.37-.175c-2.149-2.122-4.256-4.288-6.418-6.4-1.7-1.659-4.188-1.06-4.733,1.109A2.758,2.758,0,0,0,25.3,7.959q4.945,4.924,9.873,9.867c1.267,1.27,1.458,2.151.655,2.9-.761.714-1.579.5-2.806-.725q-6.5-6.491-13-12.976a2.737,2.737,0,0,0-3.84-.465c-1.376,1.086-1.407,2.882-.023,4.274Q21.21,15.918,26.29,20.968c1.1,1.1,2.2,2.184,3.284,3.3.917.944.988,1.746.268,2.45-.686.671-1.566.569-2.464-.328Q18.8,17.821,10.237,9.241a2.865,2.865,0,0,0-3.115-.85,2.558,2.558,0,0,0-1.76,2.167A3.025,3.025,0,0,0,6.516,13.25q8.155,8.124,16.294,16.263a11,11,0,0,1,1.169,1.249,1.275,1.275,0,0,1-.21,1.946,3,3,0,0,1-1.879.121c-.335-.056-.612-.507-.9-.8Q14.443,25.506,7.9,18.977a2.758,2.758,0,0,0-3.236-.686A2.368,2.368,0,0,0,3.17,20.856a4.416,4.416,0,0,0,1.159,2.189c4.085,4.169,8.231,8.277,12.358,12.4,1.616,1.616,3.24,3.225,4.846,4.851a2.26,2.26,0,0,1,.446,3.073c-.707.95-1.921,1.088-3.182.343-1.3-.768-2.565-1.595-3.889-2.317a2.757,2.757,0,0,0-3.687.849,2.67,2.67,0,0,0,.567,3.73c3.98,2.7,7.96,5.417,12.082,7.892a16.157,16.157,0,0,0,8.487,1.989c2,0,4-.066,6,.038a3.2,3.2,0,0,1,1.931.8q9.4,9.3,18.72,18.68c.115.116.231.231.34.353a1.487,1.487,0,0,1,.017,2.276,1.4,1.4,0,0,1-2.163-.115c-1.106-1.087-2.2-2.186-3.3-3.283q-7.4-7.4-14.787-14.817a2.912,2.912,0,0,0-2.253-.919c-2.689-.021-5.393.007-8.061-.272a20.293,20.293,0,0,1-9.242-3.649q-4.412-2.98-8.844-5.929C8.18,47.33,7.133,44.771,7.886,42.206a5.882,5.882,0,0,1,6.147-4.214c.159.016.321,0,.481,0L14.7,37.7" transform="translate(0.001 0)" fill="#1a1818"/>
    <path id="Path_14235" data-name="Path 14235" d="M189.251,89.111a19.311,19.311,0,0,0-6.364-15.157c-1-.957-1.987-1.938-2.932-2.952a1.43,1.43,0,0,1-.048-2.095,1.384,1.384,0,0,1,2.084-.114c4.137,3.813,8.18,7.767,9.47,13.5a54.608,54.608,0,0,1,.841,8.359,3.15,3.15,0,0,0,.947,2.248q7.607,7.538,15.16,15.132a10.4,10.4,0,0,1,.76.8,1.439,1.439,0,0,1-.038,2.094,1.4,1.4,0,0,1-2.08.055c-.282-.234-.536-.5-.8-.76-5.106-5.105-10.177-10.247-15.342-15.293a4.505,4.505,0,0,1-1.674-4.067,14.044,14.044,0,0,0,.011-1.749" transform="translate(-135.515 -51.627)" fill="#1a1818"/>
    <path id="Path_14236" data-name="Path 14236" d="M189.021,169.017a1.5,1.5,0,1,1,1.611-1.56,1.534,1.534,0,0,1-1.611,1.56" transform="translate(-141.66 -125.364)" fill="#ff6b18"/>
    <path id="Path_14237" data-name="Path 14237" d="M120.376,136.595a1.444,1.444,0,0,1-1.434-1.6,1.355,1.355,0,0,1,1.52-1.374,1.4,1.4,0,0,1,1.464,1.461,1.5,1.5,0,0,1-1.551,1.516" transform="translate(-89.807 -100.891)" fill="#2c7243"/>
    <path id="Path_14238" data-name="Path 14238" d="M236.945,264.408a1.542,1.542,0,0,1,1.52,1.57,1.439,1.439,0,0,1-1.518,1.433,1.4,1.4,0,0,1-1.5-1.429,1.512,1.512,0,0,1,1.5-1.575" transform="translate(-177.777 -199.648)" fill="#2c7243"/>
    <path id="Path_14239" data-name="Path 14239" d="M164.913,52.2a1.5,1.5,0,0,1-1.532,1.673,1.428,1.428,0,0,1-1.46-1.472,1.456,1.456,0,0,1,1.54-1.5,1.4,1.4,0,0,1,1.452,1.3" transform="translate(-122.26 -38.43)" fill="#1a1818"/>
    <path id="Path_14240" data-name="Path 14240" d="M181.2,212.15a1.527,1.527,0,0,1-1.549,1.664,1.43,1.43,0,0,1-1.443-1.5,1.5,1.5,0,0,1,1.541-1.535,1.482,1.482,0,0,1,1.451,1.365" transform="translate(-134.56 -159.153)" fill="#2c7243"/>
    <path id="Path_14241" data-name="Path 14241" d="M310.023,250a1.476,1.476,0,0,1-1.64,1.407,1.359,1.359,0,0,1-1.369-1.535,1.421,1.421,0,0,1,1.5-1.444A1.532,1.532,0,0,1,310.023,250" transform="translate(-231.817 -187.583)" fill="#ff6b18"/>
    <path id="Path_14242" data-name="Path 14242" d="M158.222,105.608a3.758,3.758,0,0,0-3.814,3.706,3.836,3.836,0,0,0,3.742,3.808,3.782,3.782,0,0,0,3.787-3.737,3.708,3.708,0,0,0-3.715-3.777" transform="translate(-116.589 -79.742)" fill="#ff6b18"/>
    <path id="Path_14243" data-name="Path 14243" d="M121.185,173.65a4.062,4.062,0,1,0,4.067,4.084,4.12,4.12,0,0,0-4.067-4.084" transform="translate(-88.434 -131.119)" fill="#ff6b18"/>
    <path id="Path_14244" data-name="Path 14244" d="M218.868,209.34a4.048,4.048,0,1,0,.1,8.095,4.048,4.048,0,0,0-.1-8.095" transform="translate(-162.238 -158.067)" fill="#2c7243"/>
    <path id="Path_14245" data-name="Path 14245" d="M269.748,283.03a4.659,4.659,0,0,0,.046,9.317,4.659,4.659,0,1,0-.046-9.317" transform="translate(-200.198 -213.709)" fill="#ff6b18"/>
  </g>
</svg>
