<svg xmlns="http://www.w3.org/2000/svg" width="67.775" height="67.777" viewBox="0 0 67.775 67.777"><g transform="translate(-0.007 0)"><g transform="translate(0.007 0)"><path d="M110.9,120h-7.943a1.986,1.986,0,0,0-1.983,2.082,2.023,2.023,0,0,0,2.04,1.89h3.915l-5.56,7.413a1.986,1.986,0,0,0,1.589,3.177h7.886a2.023,2.023,0,0,0,2.04-1.89,1.986,1.986,0,0,0-1.983-2.082h-3.971l5.56-7.413A1.986,1.986,0,0,0,110.9,120Z" transform="translate(-87.607 -104.115)" fill="#5ba273"/><path d="M224.581,90h-6.619a1.986,1.986,0,0,0-1.983,2.082,2.023,2.023,0,0,0,2.04,1.89h2.591l-4.236,5.648a1.986,1.986,0,0,0,1.589,3.177h6.563a2.023,2.023,0,0,0,2.04-1.89,1.986,1.986,0,0,0-1.983-2.082h-2.648l4.236-5.648A1.986,1.986,0,0,0,224.581,90Z" transform="translate(-187.384 -78.086)" fill="#ff6b18"/><path d="M218.445,322a1.986,1.986,0,0,0-1.986,1.986v4.473l-3.163,3.163a1.986,1.986,0,0,0,2.808,2.808l3.744-3.744a1.986,1.986,0,0,0,.582-1.4v-5.3A1.986,1.986,0,0,0,218.445,322Z" transform="translate(-184.558 -279.374)"/><path d="M65.329,39.519l-.018-.018-.015-.014A6.887,6.887,0,0,1,63.1,34.64V15.757a6.884,6.884,0,0,1,2.19-4.843l.025-.025.011-.011a8.251,8.251,0,0,0,2.386-4.593,5.537,5.537,0,0,0-1.451-4.767A5.539,5.539,0,0,0,61.5.067,8.25,8.25,0,0,0,56.9,2.453l-.033.033A6.887,6.887,0,0,1,52.025,4.68H15.764a6.884,6.884,0,0,1-4.843-2.19l-.036-.036A8.25,8.25,0,0,0,6.291.067,5.535,5.535,0,0,0,1.524,1.517,5.536,5.536,0,0,0,.073,6.284,8.251,8.251,0,0,0,2.46,10.878l.018.018.015.014a6.887,6.887,0,0,1,2.194,4.847V34.64A6.884,6.884,0,0,1,2.5,39.483l-.025.025-.011.011A8.251,8.251,0,0,0,.073,44.112a5.537,5.537,0,0,0,1.451,4.767A5.536,5.536,0,0,0,6.291,50.33a8.253,8.253,0,0,0,4.6-2.39,7.593,7.593,0,0,1,5.347-2.223h.286a17.871,17.871,0,1,0,34.747,0h.286A7.6,7.6,0,0,1,56.9,47.943,8.249,8.249,0,0,0,61.5,50.33a6.519,6.519,0,0,0,.922.066,5.37,5.37,0,0,0,3.845-1.517,5.537,5.537,0,0,0,1.451-4.767,8.251,8.251,0,0,0-2.386-4.593ZM45.808,51.892h1.843A13.93,13.93,0,0,1,35.88,63.663V61.82a1.986,1.986,0,1,0-3.971,0v1.843A13.93,13.93,0,0,1,20.137,51.892h1.843a1.986,1.986,0,0,0,0-3.971H20.137A13.93,13.93,0,0,1,31.909,36.149v1.843a1.986,1.986,0,0,0,3.971,0V36.149A13.93,13.93,0,0,1,47.652,47.921H45.808a1.986,1.986,0,0,0,0,3.971Zm17.649-5.821c-.663.663-2.4.4-3.741-.933a11.591,11.591,0,0,0-8.162-3.393H49.791a17.866,17.866,0,0,0-31.792,0H16.235a11.588,11.588,0,0,0-8.159,3.39c-1.339,1.339-3.081,1.6-3.744.936s-.4-2.4.933-3.742l.01-.01a10.856,10.856,0,0,0,3.383-7.68V15.757A10.82,10.82,0,0,0,5.286,8.087l-.011-.011-.01-.01c-1.337-1.339-1.6-3.079-.933-3.742s2.4-.4,3.744.936l.018.018a10.82,10.82,0,0,0,7.669,3.372H52.026A10.823,10.823,0,0,0,59.7,5.276l.015-.015c1.339-1.339,3.081-1.6,3.744-.936s.4,2.4-.933,3.742a10.889,10.889,0,0,0-3.393,7.69V34.64A10.82,10.82,0,0,0,62.5,42.309l.011.011.01.01c1.337,1.339,1.6,3.079.933,3.741Z" transform="translate(-0.007 0)"/></g></g></svg>