<svg xmlns="http://www.w3.org/2000/svg" width="57.47" height="79.289" viewBox="0 0 57.47 79.289"><g transform="translate(-630.4 -887.4)"><path d="M180.7,211.922a1.274,1.274,0,0,1-1.292,1.388,1.192,1.192,0,0,1-1.2-1.247,1.252,1.252,0,0,1,1.286-1.28,1.236,1.236,0,0,1,1.21,1.139" transform="translate(504.129 719.408)" fill="#ff6b18"/><path d="M122.82,141.653a3.9,3.9,0,0,1-3.871-4.327,3.656,3.656,0,0,1,4.1-3.707c2.42.045,3.8,1.546,3.952,3.943a4.041,4.041,0,0,1-4.185,4.091" transform="translate(560.857 806.215)" fill="#ff6b18"/><path d="M181.2,212.15a1.527,1.527,0,0,1-1.549,1.664,1.43,1.43,0,0,1-1.443-1.5,1.5,1.5,0,0,1,1.541-1.535,1.482,1.482,0,0,1,1.451,1.365" transform="translate(498.594 739.54)" fill="#ff6b18"/><path d="M180.7,211.922a1.274,1.274,0,0,1-1.292,1.388,1.192,1.192,0,0,1-1.2-1.247,1.252,1.252,0,0,1,1.286-1.28,1.236,1.236,0,0,1,1.21,1.139" transform="translate(452.793 737.764)" fill="#ff6b18"/><path d="M182.319,212.662a2.1,2.1,0,0,1-2.128,2.286,1.963,1.963,0,0,1-1.982-2.053,2.062,2.062,0,0,1,2.117-2.108,2.035,2.035,0,0,1,1.993,1.875" transform="translate(463.732 751.735)" fill="#ff6b18"/><path d="M182.7,212.836a2.291,2.291,0,0,1-2.324,2.5,2.144,2.144,0,0,1-2.165-2.243,2.252,2.252,0,0,1,2.312-2.3,2.222,2.222,0,0,1,2.177,2.048" transform="translate(461.486 740.3)" fill="#ff6b18"/><g transform="translate(548.032 888)"><path d="M123.329,15.938s-3.663,3.538-4.1,3.786-3.6,4.22-3.6,4.22l-.744,3.041,3.352,6.393h3.227s4.1-.373,4.345-.435,3.1-2.11,3.1-2.11L130.28,26.3s-1.181-3.413-1.366-3.786-2.42-3.6-2.73-3.911S123.329,15.938,123.329,15.938Z" fill="#5ba273" stroke="#707070" stroke-width="1"/><path d="M128.3,39.688v9.366a6.216,6.216,0,0,1-6.209,6.209H107.34a1.242,1.242,0,0,1,0-2.484h14.747a3.73,3.73,0,0,0,3.726-3.726V39.688a1.242,1.242,0,1,1,2.484,0ZM110.91,58.834a1.242,1.242,0,0,0-1.242,1.242,2.487,2.487,0,0,1-2.484,2.484h-3.1a2.487,2.487,0,0,1-2.484-2.484V54.022a1.242,1.242,0,0,0-1.242-1.242H89.177a3.73,3.73,0,0,1-3.726-3.726V6.209a3.73,3.73,0,0,1,3.726-3.726h32.91a3.73,3.73,0,0,1,3.726,3.726v3.829a1.242,1.242,0,1,0,2.484,0V6.209A6.216,6.216,0,0,0,122.087,0H89.177a6.216,6.216,0,0,0-6.209,6.209V49.054a6.216,6.216,0,0,0,6.209,6.209h9.935v4.812a4.973,4.973,0,0,0,4.968,4.968h.31v8.227a1.242,1.242,0,0,0,2.484,0V65.043h.31a4.973,4.973,0,0,0,4.968-4.968A1.242,1.242,0,0,0,110.91,58.834ZM94.455,8.538h22.354a2.487,2.487,0,0,1,2.484,2.484,1.242,1.242,0,0,0,2.484,0,4.973,4.973,0,0,0-4.968-4.968H94.455a4.973,4.973,0,0,0-4.968,4.968v16.61A4.973,4.973,0,0,0,94.455,32.6H110.7a1.242,1.242,0,0,0,0-2.484H94.455a2.487,2.487,0,0,1-2.484-2.484V11.022A2.487,2.487,0,0,1,94.455,8.538Zm8.693,31.513h4.968a2.487,2.487,0,0,1,2.484,2.484,1.242,1.242,0,1,0,2.484,0,4.973,4.973,0,0,0-4.968-4.968h-4.968a4.968,4.968,0,1,0,0,9.935h4.968a1.242,1.242,0,0,0,0-2.484h-4.968a2.484,2.484,0,1,1,0-4.968ZM122.863,35.7a8.848,8.848,0,0,1-7.268-13.882l3.381-4.876a4.733,4.733,0,0,1,7.774,0l3.381,4.876A8.848,8.848,0,0,1,122.863,35.7Zm5.227-12.466-3.381-4.876a2.245,2.245,0,0,0-3.692,0l-3.381,4.876a6.361,6.361,0,1,0,10.455,0Z" stroke="#000" stroke-width="1.2"/></g></g></svg>