<svg xmlns="http://www.w3.org/2000/svg" width="71.501" height="71.5" viewBox="0 0 71.501 71.5">
  <g id="Group_9535" data-name="Group 9535" transform="translate(-341.502 -457.312)">
    <path id="Path_14284" data-name="Path 14284" d="M123.775,178.951c.474-1.911.822-3.865,1.459-5.719.53-1.542,1.221-1.643,2.443-.6.989.844,1.884,1.8,2.863,2.654,2.062,1.806,3.79,1.811,5.846.015,1.005-.878,1.925-1.856,2.942-2.719,1.138-.966,1.831-.87,2.33.536a22.586,22.586,0,0,1,1.139,4.859,13.9,13.9,0,0,1-.972,6.848,6.226,6.226,0,0,1-.8,1.426,1.987,1.987,0,0,1-3.384.1,21.761,21.761,0,0,1-1.27-1.866c-1.751-2.62-4.041-2.628-5.789-.016-.343.512-.643,1.054-1.008,1.55-1.251,1.7-2.944,1.7-3.909-.185a21.632,21.632,0,0,1-1.425-4.462,13.75,13.75,0,0,1-.206-2.35l-.261-.069" transform="translate(243.697 321.252)" fill="#ff6b18"/>
    <path id="Path_14285" data-name="Path 14285" d="M155.639,136.948h6.352c-.1.684-.241,1.472-.325,2.266-.169,1.6-.31,3.2-.454,4.8a2.435,2.435,0,0,1-4.869.032c-.232-2.378-.472-4.755-.7-7.1" transform="translate(218.391 349.047)" fill="#2c7243"/>
    <path id="Path_14286" data-name="Path 14286" d="M163.992,239.68h-4.428a2.942,2.942,0,0,1,.445-2.524c1.792-2.692,1.668-2.833,3.51-.027a3.057,3.057,0,0,1,.473,2.551" transform="translate(215.358 271.11)" fill="#2c7243"/>
    <path id="Path_14287" data-name="Path 14287" d="M159.517,309.9h4.352c.408,2.289.177,4.035-.673,5.25-.781,1.117-1.839,1.254-2.665.306-1.146-1.316-1.243-3.253-1.014-5.556" transform="translate(215.39 209.005)" fill="#2c7243"/>
    <rect id="Rectangle_375" data-name="Rectangle 375" width="4.51" height="3.538" transform="translate(374.998 513.099)" fill="#2c7243"/>
    <path id="Path_14288" data-name="Path 14288" d="M70.456,51.581a5.345,5.345,0,0,0-.828-2.646c-2.441-3.836-6.1-5.746-10.5-6.55-4.2-.767-7.412-2.911-8.955-7.085a26.744,26.744,0,0,1-1.224-10.642,1.552,1.552,0,0,1,1.073-1.564,13.55,13.55,0,0,0,6.464-5.91A35.765,35.765,0,0,0,60.773,3.752,3.415,3.415,0,0,0,57.316.009q-22.082-.019-44.164,0A3.4,3.4,0,0,0,9.765,4a85.307,85.307,0,0,0,2.607,9.748c1.5,4.242,4.076,7.7,8.419,9.538a1.428,1.428,0,0,1,.688,1.073,53.211,53.211,0,0,1-.14,6.593C20.672,36.7,18.321,41.163,10.8,42.516A14.265,14.265,0,0,0,.792,49.049,4.958,4.958,0,0,0,.043,51.5C-.025,56.493.008,61.487.01,66.481.011,69.1,1.392,70.5,3.988,70.5q15.639,0,31.279,0,15.694,0,31.389,0a3.54,3.54,0,0,0,3.837-3.826c0-5.03.042-10.062-.036-15.091M20.3,20.332c-2.988-1.506-4.606-4.307-5.684-7.31a87.449,87.449,0,0,1-2.428-8.665c-.376-1.525.108-1.992,1.709-1.993q10.683-.008,21.366,0,10.573,0,21.145,0c1.86,0,2.231.447,1.893,2.236a37.924,37.924,0,0,1-3.208,10.253,12.4,12.4,0,0,1-6.258,6.222c-3.105,1.309-6.144,2.785-9.281,4.008a12.038,12.038,0,0,1-9.142-.17C26.988,23.506,23.6,22,20.3,20.332M68.175,52.855c-.118,4.476-.036,8.958-.043,13.437,0,1.57-.257,1.842-1.763,1.844q-12.815.01-25.629,0a.678.678,0,0,1-.261.052c-2.049.011-4.1.184-6.145.126-1.051-.03-2.1-.126-3.145-.214-.232.012-.464.018-.7.009-.2.013-.436.027-.677.027q-12.72,0-25.44,0c-1.811,0-2.006-.2-2.007-2.044,0-4.663-.035-9.326.033-13.988A4.461,4.461,0,0,1,3.148,49.8a11.517,11.517,0,0,1,7.8-4.885A17.581,17.581,0,0,0,17.51,42.5c3.934-2.555,5.534-6.435,6.127-10.838.293-2.173.322-4.38.481-6.715,1.527.625,3.049,1.242,4.564,1.877a.723.723,0,0,1,.125.026c.651.2,1.22.6,1.879.8a17.334,17.334,0,0,0,2.246.332.638.638,0,0,1,.235.087h4.308c.228-.072.457-.143.688-.21,1.017-.294,2.16-.41,3.15-.78a.882.882,0,0,1,.189-.115c1.613-.683,3.235-1.343,5.022-2.077,0,.5-.032.888.005,1.267a69.968,69.968,0,0,0,.861,7.959c1.278,5.883,5.141,9.315,10.963,10.528,3.113.649,6.016,1.578,8.2,4.09a5.706,5.706,0,0,1,1.624,4.131" transform="translate(342 457.812)" fill="#1a1818" stroke="#1a1818" stroke-width="1"/>
  </g>
</svg>
