<svg xmlns="http://www.w3.org/2000/svg" width="62.566" height="85.229" viewBox="0 0 62.566 85.229">
  <g id="Group_9639" data-name="Group 9639" transform="translate(-397.697 -77.409)">
    <path id="Path_14455" data-name="Path 14455" d="M11723,2835.919h-11.425v7.428h-29.363v-8.139h-12.419v-5.153l.787-4.348,1.032-4.11,2.44-4.238,3.274-3.489,3.306-2.083,5.391-2.3,2.321-.475,1.5,4.055,1.652,1.571,2.134,1.224,1.455.365h3.9l2.6-1.79,1.221-1.644,2.164-4.677,4.84,2.265,2.263,1.251,2.085.913s-1.891-1.461,1.533,1.5a22.95,22.95,0,0,1,5,5.955l1.209,2.722.827,2.74.63,3.8Z" transform="translate(-11268 -2681.738)" fill="#5ba273"/>
    <path id="Path_14445" data-name="Path 14445" d="M219.042,216.728h9.737a1.2,1.2,0,0,0,1.2-1.2,6.064,6.064,0,1,0-12.128,0,1.2,1.2,0,0,0,1.2,1.2Zm4.869-4.869a3.679,3.679,0,0,1,3.473,2.478h-6.947A3.679,3.679,0,0,1,223.91,211.859Z" transform="translate(204.528 -94.914)" fill="#1a1818"/>
    <path id="Path_14446" data-name="Path 14446" d="M193.636,163.9c.028-.007.255-.071.608-.21v.167a1.2,1.2,0,1,0,2.391,0v-1.516a9.137,9.137,0,0,0,.858-.743,1.2,1.2,0,1,0-1.676-1.706A7.394,7.394,0,0,1,193,161.6a1.2,1.2,0,0,0,.634,2.306Z" transform="translate(225.627 -52.933)" fill="#1a1818"/>
    <path id="Path_14447" data-name="Path 14447" d="M284.192,159.913a1.2,1.2,0,0,0,.015,1.691,9.127,9.127,0,0,0,.858.742v1.516a1.2,1.2,0,0,0,2.391,0V163.7c.353.139.581.2.608.21a1.2,1.2,0,0,0,.635-2.305,7.392,7.392,0,0,1-2.816-1.7,1.2,1.2,0,0,0-1.691.015Z" transform="translate(149.559 -52.935)" fill="#1a1818"/>
    <path id="Path_14448" data-name="Path 14448" d="M112.815,78.986h-5.857v-12.9a1.29,1.29,0,0,0-2.573,0v5.634H94.668V67.46A20.352,20.352,0,0,1,99.85,54a23.143,23.143,0,0,1,11.388-6.948,9.055,9.055,0,0,0,17.777,0,23.338,23.338,0,0,1,9.187,4.786,1.356,1.356,0,0,0,1.818-.071,1.137,1.137,0,0,0-.076-1.689,25.887,25.887,0,0,0-9.125-5.007,16.32,16.32,0,0,0,6.142-8.425,6.775,6.775,0,0,0,1.8.245A6.13,6.13,0,0,0,145.1,31a5.577,5.577,0,0,0-1.176-3.41c3.172-7.319,3.03-18.29-.141-23.478a11.468,11.468,0,0,0-8.2-5.666,15.932,15.932,0,0,0-7.508.812,7.391,7.391,0,0,0-1.623-1.3c-2.177-1.312-5.2-1.917-8.984-1.8A16.089,16.089,0,0,0,108.19-.217a1.139,1.139,0,0,0-.2,1.68,1.353,1.353,0,0,0,1.808.187,13.563,13.563,0,0,1,7.762-3.1c7.085-.218,8.782,2.491,8.9,2.692a1.192,1.192,0,0,0,.756.676A1.36,1.36,0,0,0,128.29,1.8a12.556,12.556,0,0,1,6.953-.984,8.93,8.93,0,0,1,6.3,4.477c1.288,2.108,3.919,11.67.334,20.584a6.668,6.668,0,0,0-3.116-.764,6.8,6.8,0,0,0-1.142.1v-.2a5.752,5.752,0,0,0-2.035-4.36,57.416,57.416,0,0,1-7.553-8.746,2.161,2.161,0,0,0-1.614-.875,2.228,2.228,0,0,0-1.75.645,31.89,31.89,0,0,1-8.122,5.911c-.516-3.528-4.418-5.986-4.595-6.1a1.368,1.368,0,0,0-1.427,0c-.19.118-4.652,2.927-4.652,6.862a4.707,4.707,0,0,0,.869,2.715c-.336.071-.67.139-1,.2a3.667,3.667,0,0,0-3.113,3.517v.423a6.748,6.748,0,0,0-3.122.2,25.206,25.206,0,0,1-4.035-12.3,13.3,13.3,0,0,0,4.35-.245c2.249-.564,4.2-6.284,6.238-8.09a1.137,1.137,0,0,0,.043-1.69,1.356,1.356,0,0,0-1.819-.04c-1.805,1.6-3.515,7.106-5.132,7.512a12.058,12.058,0,0,1-4.69-.009,1.363,1.363,0,0,0-1.088.219,1.168,1.168,0,0,0-.5.926,26.956,26.956,0,0,0,4.395,14.913A5.7,5.7,0,0,0,95.154,31a6.13,6.13,0,0,0,6.334,5.887,6.774,6.774,0,0,0,1.8-.245,16.32,16.32,0,0,0,6.141,8.424,25.657,25.657,0,0,0-11.571,7.412,22.648,22.648,0,0,0-5.767,14.98V80.181a1.243,1.243,0,0,0,1.286,1.2h19.433a1.2,1.2,0,1,0,0-2.39Zm25.95-51.48a3.505,3.505,0,1,1,0,6.992,4.012,4.012,0,0,1-1.285-.211,15.2,15.2,0,0,0,.142-2.078V27.672A4.035,4.035,0,0,1,138.765,27.506ZM110.118,15.013A11.04,11.04,0,0,1,111.24,14a11.059,11.059,0,0,1,1.123,1.012,5.23,5.23,0,0,1,1.671,3.346,2.8,2.8,0,0,1-5.586,0A5.23,5.23,0,0,1,110.118,15.013ZM101.489,34.5a3.505,3.505,0,1,1,0-6.992,4.039,4.039,0,0,1,1.142.165v4.537a15.2,15.2,0,0,0,.142,2.079A4.01,4.01,0,0,1,101.489,34.5Zm3.715-2.289V24.79a1.219,1.219,0,0,1,1.034-1.17c.961-.175,1.95-.4,2.946-.655a5.689,5.689,0,0,0,2.057.382,5.418,5.418,0,0,0,4.836-2.827A35.236,35.236,0,0,0,126.2,13.662a57.962,57.962,0,0,0,7.641,8.753,3.429,3.429,0,0,1,1.206,2.6v7.191c0,7.647-6.694,13.869-14.923,13.869S105.2,39.856,105.2,32.209Zm14.923,16.259a18.588,18.588,0,0,0,6.213-1.06,6.5,6.5,0,0,1-12.426,0A18.586,18.586,0,0,0,120.127,48.468ZM104.384,78.986H94.668V74.11h9.717Z" transform="translate(308.422 81.261)" fill="#1a1818"/>
    <path id="Path_14449" data-name="Path 14449" d="M259.061,335.824a1.2,1.2,0,0,0-.286,1.666,21.079,21.079,0,0,1,3.879,12.233v4.259h-9.03v-5.634a1.2,1.2,0,1,0-2.391,0v12.9H236.977a1.2,1.2,0,1,0,0,2.391H263.85a1.2,1.2,0,0,0,1.2-1.2V349.723a23.457,23.457,0,0,0-4.318-13.613A1.2,1.2,0,0,0,259.061,335.824Zm3.593,25.426h-9.03v-4.876h9.03Z" transform="translate(191.399 -201.002)" fill="#1a1818"/>
    <path id="Path_14450" data-name="Path 14450" d="M303.459,133.319a1.2,1.2,0,0,0,1.2-1.2v-1.155a1.2,1.2,0,1,0-2.391,0v1.155A1.2,1.2,0,0,0,303.459,133.319Z" transform="translate(134.477 -27.885)" fill="#ff6b18" stroke="#ff6b18" stroke-width="1"/>
    <path id="Path_14451" data-name="Path 14451" d="M281.469,112.907a1.2,1.2,0,0,0,1.2-1.2v-1.155a1.2,1.2,0,1,0-2.391,0v1.155A1.2,1.2,0,0,0,281.469,112.907Z" transform="translate(151.939 -10.717)" fill="#ff6b18" stroke="#ff6b18" stroke-width="1"/>
    <path id="Path_14452" data-name="Path 14452" d="M256.9,129.684a1.2,1.2,0,0,0,1.2-1.2v-1.155a1.2,1.2,0,1,0-2.391,0v1.155A1.2,1.2,0,0,0,256.9,129.684Z" transform="translate(171.878 -24.827)" fill="#ff6b18" stroke="#ff6b18" stroke-width="1"/>
    <path id="Path_14453" data-name="Path 14453" d="M87.783,277.369a1.436,1.436,0,0,0,.327-1.659,1.2,1.2,0,0,0-1.659-.327,29.719,29.719,0,0,0-8.193,8.6,1.2,1.2,0,1,0,2.009,1.3,30.407,30.407,0,0,1,7.515-7.905Z" transform="translate(320.219 -152.182)" fill="#ff6b18" stroke="#ff6b18" stroke-width="1"/>
    <path id="Path_14454" data-name="Path 14454" d="M379.528,283.979a29.723,29.723,0,0,0-8.193-8.6A1.2,1.2,0,1,0,370,277.369a27.325,27.325,0,0,1,7.515,7.905,1.2,1.2,0,0,0,2.009-1.3Z" transform="translate(79.955 -151.22)" fill="#ff6b18" stroke="#ff6b18" stroke-width="1"/>
  </g>
</svg>
