<svg xmlns="http://www.w3.org/2000/svg" width="73.645" height="71.5" viewBox="0 0 73.645 71.5">
  <g id="Group_9533" data-name="Group 9533" transform="translate(-118 -457.312)">
    <path id="Path_14279" data-name="Path 14279" d="M80.419,70.475c-5.6,0-11.2-.03-16.806.025-1.144.011-1.408-.365-1.388-1.448q.132-7.308.1-14.619a3.476,3.476,0,0,0-.616-1.877q-8.267-11.663-2.452-24.694a3.383,3.383,0,0,0,.142-1.854c-.379-2.144-1.146-4.259-1.236-6.408A12.943,12.943,0,0,1,68.858,6.42,1.946,1.946,0,0,0,70.475,5.2,47.257,47.257,0,0,1,72.652.887a1.823,1.823,0,0,1,1.27-.841q6.618-.093,13.237,0A1.691,1.691,0,0,1,88.366.8c.83,1.466,1.494,3.026,2.327,4.489a2.2,2.2,0,0,0,1.312,1.04A13.164,13.164,0,0,1,102.4,23.006a10.554,10.554,0,0,0,.273,7.244c2.928,7.895,1.661,15.365-3.237,22.231a3.827,3.827,0,0,0-.69,2.067q-.038,7.251.1,14.5c.02,1.083-.245,1.459-1.388,1.448-5.678-.055-11.358-.025-17.037-.025m17.815-48.33a18.872,18.872,0,0,0,.417-2.5,8.859,8.859,0,0,0-8.8-9.137A2.03,2.03,0,0,1,87.7,9.1c-.565-1.339-1.312-2.6-1.915-3.924a1.325,1.325,0,0,0-1.427-.854q-3.855.054-7.711,0a1.255,1.255,0,0,0-1.337.811C74.68,6.493,73.936,7.8,73.338,9.163a1.968,1.968,0,0,1-2.07,1.339,8.815,8.815,0,0,0-8.783,7.716,6.379,6.379,0,0,0,.57,4.072,22.529,22.529,0,0,1,6.84-5.084c.511,1,.936,1.94,1.459,2.822.446.752.234,1.079-.494,1.5a19.359,19.359,0,0,0-7.249,26.106,9.789,9.789,0,0,0,5.876,4.983,42.262,42.262,0,0,0,5.432,1.426,29.62,29.62,0,0,0,17.139-1.805,10.121,10.121,0,0,0,4.109-2.788,18.479,18.479,0,0,0,2.324-18.325,18.9,18.9,0,0,0-8.321-9.667c-.307-.183-.71-.745-.626-.95.458-1.12,1.054-2.184,1.765-3.588l6.924,5.227M82.691,62.834c0,.828.042,1.478-.01,2.12-.07.863.186,1.227,1.141,1.211,3.221-.054,6.444-.018,9.665-.026a7.2,7.2,0,0,0,.881-.109V56.095a37.516,37.516,0,0,1-27.753.153c0,3.132-.021,6.156.039,9.179,0,.244.556.671.867.684,1.685.069,3.374.034,5.062.034h5.8a22.4,22.4,0,0,1,.031-2.506c.034-.29.41-.75.656-.768,1.137-.082,2.284-.036,3.623-.036" transform="translate(74.229 457.812)" fill="#1a1818" stroke="#fff" stroke-width="1"/>
    <path id="Path_14280" data-name="Path 14280" d="M2.912,147.151,0,144.1l4.679-4.387L.04,135.384l2.9-3.094,7.406,7.4-7.43,7.462" transform="translate(118 355.979)" fill="#ff6b18"/>
    <path id="Path_14281" data-name="Path 14281" d="M284.38,144.2l-3.243,3.392c-1.237-1.3-2.421-2.592-3.655-3.831s-2.535-2.444-3.719-3.579l7.688-7.628,2.778,3-4.487,4.161,4.638,4.482" transform="translate(-92.735 355.776)" fill="#ff6b18"/>
    <path id="Path_14282" data-name="Path 14282" d="M115.286,250.385c-1.339,0-2.486-.046-3.623.036-.246.018-.622.478-.656.768a22.393,22.393,0,0,0-.031,2.506h-5.8c-1.688,0-3.377.035-5.062-.034-.311-.013-.862-.44-.867-.684-.06-3.022-.039-6.046-.039-9.179a37.516,37.516,0,0,0,27.753-.153v9.935a7.2,7.2,0,0,1-.881.109c-3.222.008-6.444-.029-9.665.026-.954.016-1.211-.348-1.141-1.211.052-.642.01-1.292.01-2.12" transform="translate(41.634 270.26)" fill="#509c8b"/>
    <path id="Path_14283" data-name="Path 14283" d="M150.067,177.141h4.173c0,1.24.032,2.413-.028,3.582-.011.219-.386.426-.606.623-.044.039-.148.008-.224.013-3.553.228-3.931-.239-3.314-4.218" transform="translate(2.669 321.454)" fill="#1a1818" stroke="#fff" stroke-width="1"/>
  </g>
</svg>
