<svg xmlns="http://www.w3.org/2000/svg" width="70.257" height="75.378" viewBox="0 0 70.257 75.378"><g transform="translate(-394 -85.5)"><g transform="translate(338.078 86)"><path d="M91.15,55.448l-6.925-1.364-3.146-3.776s-2.412-3.566-2.622-3.986l-.839-1.678L70.8,46.323l-3.461,2.308-1.573,4.72-.734,4.929V72.649h52.127v-17.2l-1.573-5.139-4.405-3.986-6.817-1.678-1.049,1.678-1.679,3.986s-3.46,3.881-3.88,3.776S91.15,55.448,91.15,55.448Z" fill="#5ba273"/><path d="M114.651,46.63a15.606,15.606,0,0,0-5.262-2.607V18A17.348,17.348,0,0,0,103.64,4.5a19.595,19.595,0,0,0-24.981,0A17.348,17.348,0,0,0,72.91,18V44.023a15.612,15.612,0,0,0-5.262,2.607c-3.039,2.435-4.516,6.163-4.516,11.4V72.635a1.743,1.743,0,0,0,1.743,1.743h52.549a1.743,1.743,0,0,0,1.743-1.743V58.026c0-5.233-1.477-8.961-4.517-11.4ZM76.4,18c0-9.973,7.648-14.516,14.754-14.516a15.391,15.391,0,0,1,10.193,3.633A13.962,13.962,0,0,1,105.9,18v25.12l-.132-.031c-4.986-1.154-7.63-1.952-7.976-5.9a15.29,15.29,0,0,0,2.548-3.123c2.588-4.135,3.957-10.112,3.957-17.287a1.743,1.743,0,0,0-1.608-1.738,13.275,13.275,0,0,1-8.106-3.633,1.743,1.743,0,0,0-2.774.506,13.361,13.361,0,0,1-11.964,7.557h-.093A1.743,1.743,0,0,0,78,21.218C78,26.7,79.3,31.433,81.762,34.9a13.821,13.821,0,0,0,2.678,2.846c-.54,3.477-3.165,4.251-7.911,5.349l-.132.031V18ZM97.388,32.219c-1.767,2.823-4.1,4.377-6.572,4.377h0c-4.266,0-8.784-4.8-9.283-13.721A16.9,16.9,0,0,0,93.87,15.346a16.788,16.788,0,0,0,6.921,2.965c-.214,7.3-1.94,11.571-3.4,13.908Zm-9.777,7.3a9.539,9.539,0,0,0,3.2.563h0a9.549,9.549,0,0,0,3.81-.794,7.877,7.877,0,0,0,3.557,4.841A14.823,14.823,0,0,0,102,45.737c-1.463,5.335-6.374,7.74-10.846,7.74s-9.383-2.405-10.846-7.74a14.828,14.828,0,0,0,3.812-1.609A7.863,7.863,0,0,0,87.611,39.519Zm28.071,31.372H109.39V61.527a1.743,1.743,0,0,0-3.486,0v9.365H76.4V61.527a1.743,1.743,0,0,0-3.486,0v9.365H66.618V58.026c0-8.853,4.731-10.152,10.3-11.447a13.431,13.431,0,0,0,5.029,7.454,15.907,15.907,0,0,0,18.4,0,13.431,13.431,0,0,0,5.029-7.454c5.57,1.294,10.3,2.594,10.3,11.447Z" transform="translate(0 0)" stroke="#fff" stroke-width="1"/></g><path d="M180.7,211.922a1.274,1.274,0,0,1-1.292,1.388,1.192,1.192,0,0,1-1.2-1.247,1.252,1.252,0,0,1,1.286-1.28,1.236,1.236,0,0,1,1.21,1.139" transform="translate(276.023 -100.385)" fill="#ff6b18"/><path d="M122.82,141.653a3.9,3.9,0,0,1-3.871-4.327,3.656,3.656,0,0,1,4.1-3.707c2.42.045,3.8,1.546,3.952,3.943a4.041,4.041,0,0,1-4.185,4.091" transform="translate(332.504 -15.486)" fill="#ff6b18"/><path d="M181.2,212.15a1.527,1.527,0,0,1-1.549,1.664,1.43,1.43,0,0,1-1.443-1.5,1.5,1.5,0,0,1,1.541-1.535,1.482,1.482,0,0,1,1.451,1.365" transform="translate(283.057 -81.253)" fill="#ff6b18"/><path d="M180.7,211.922a1.274,1.274,0,0,1-1.292,1.388,1.192,1.192,0,0,1-1.2-1.247,1.252,1.252,0,0,1,1.286-1.28,1.236,1.236,0,0,1,1.21,1.139" transform="translate(223.343 -99.117)" fill="#ff6b18"/><path d="M182.319,212.662a2.1,2.1,0,0,1-2.128,2.286,1.963,1.963,0,0,1-1.982-2.053,2.062,2.062,0,0,1,2.117-2.108,2.035,2.035,0,0,1,1.993,1.875" transform="translate(215.793 -80.805)" fill="#ff6b18"/><path d="M182.7,212.836a2.291,2.291,0,0,1-2.324,2.5,2.144,2.144,0,0,1-2.165-2.243,2.252,2.252,0,0,1,2.312-2.3,2.222,2.222,0,0,1,2.177,2.048" transform="translate(222.346 -89.209)" fill="#ff6b18"/></g></svg>