<svg xmlns="http://www.w3.org/2000/svg" width="74" height="74" viewBox="0 0 74 74">
  <g id="Group_565" data-name="Group 565" transform="translate(-534 -24)">
    <rect id="Rectangle_145" data-name="Rectangle 145" width="74" height="74" rx="37" transform="translate(534 24)" fill="#f3f5f4" opacity="0.91"/>
    <path id="Path_14213" data-name="Path 14213" d="M3.6,32.9H.068L0,32.772c.771-.619,1.536-1.245,2.313-1.856a16.227,16.227,0,0,0,5.974-8.989c.28-1.125.388-2.3.745-3.4a8.334,8.334,0,0,1,8.2-5.918h2.811c-4.177-1.626-5.964-4.423-4.569-8.657A6.125,6.125,0,0,1,21.93.025a6.339,6.339,0,0,1,5.491,4.9,6.178,6.178,0,0,1-.127,3.248,5.309,5.309,0,0,1-1.8,2.772c-.855.64-1.822,1.13-2.709,1.667.821,0,1.728,0,2.634,0a8.444,8.444,0,0,1,8.459,7.228,16.351,16.351,0,0,0,5.317,10.174c.9.808,1.867,1.531,2.8,2.294.186.151.37.3.7.576H38.99c.122.252.186.407.269.552a6.291,6.291,0,0,1-5.5,9.543c-8.278,0-16.557-.054-24.835.022a6.336,6.336,0,0,1-5.575-9.637c.066-.11.121-.225.249-.463M35.28,29.614c-.143-.233-.194-.332-.26-.42a18.376,18.376,0,0,1-3.56-8.646,6.1,6.1,0,0,0-6.4-5.448c-2.615.093-5.236.013-7.854.02A5.92,5.92,0,0,0,11.2,20.113a20.032,20.032,0,0,1-1.966,6.374c-.592,1.065-1.264,2.085-1.94,3.193a13.328,13.328,0,0,0,4.552-2.7c1.639-1.435,2.467-3.374,3.367-5.273.177-.372.365-.738.634-1.279.153.861.273,1.513.385,2.167.651,3.812,1.291,7.626,1.97,11.433a1.364,1.364,0,0,0,.578.792,14.01,14.01,0,0,0,2.01,1.07,1.381,1.381,0,0,0,.966.009c.6-.241,1.131-.644,1.729-.883a1.541,1.541,0,0,0,.99-1.355c.616-3.636,1.264-7.267,1.9-10.9.161-.913.331-1.824.5-2.737l.2-.085c1.674,4.061,3.6,7.9,8.2,9.671M18.941,40.16l.082.252a1.607,1.607,0,0,0,.243.037c4.923,0,9.847.019,14.77-.012a3.527,3.527,0,0,0,3.183-2.02,3.777,3.777,0,0,0-.59-4.3,3.23,3.23,0,0,0-4.018-.784c-4.573,2.243-9.115,4.549-13.669,6.831m-.462-2.454.043-.309c-3.13-1.459-6.253-2.932-9.4-4.356a2.114,2.114,0,0,0-1.237-.021,3.716,3.716,0,0,0-2.96,3.725A3.581,3.581,0,0,0,8,40.355a52.045,52.045,0,0,0,5.357.084.417.417,0,0,0,.191-.055q2.466-1.337,4.93-2.678M25.047,6.3a3.765,3.765,0,1,0-3.729,3.775A3.751,3.751,0,0,0,25.047,6.3m3.06,21.2-.983,5.569,4.731-2.2L28.107,27.5M10.9,30.944,15.46,33.08l-.87-5.106L10.9,30.944" transform="translate(550 39)" fill="#3c8454"/>
  </g>
</svg>
